<svg width="112" height="112" viewBox="0 0 112 112" fill="none" xmlns="http://www.w3.org/2000/svg">
<path d="M60.4409 7.00503C59.7875 6.94288 59.2391 7.46597 58.9965 8.07581C58.4822 9.36877 57.2194 10.2827 55.7431 10.2827C54.2669 10.2827 53.0041 9.36878 52.4897 8.07583C52.2471 7.46598 51.6987 6.94288 51.0453 7.00503C50.3905 7.06731 49.9558 7.68619 49.8337 8.33248C49.5752 9.69946 48.5101 10.8372 47.0613 11.1188C45.6092 11.4011 44.1925 10.7416 43.442 9.56607C43.0887 9.01261 42.4513 8.60236 41.8216 8.7886C41.1915 8.97499 40.8832 9.66578 40.8883 10.3229C40.899 11.7174 40.07 13.042 38.6986 13.5961C37.4691 14.0928 36.1232 13.8413 35.1653 13.0559C34.4762 12.4908 33.5177 12.0923 32.7312 12.5115C31.9461 12.9299 31.7444 13.9435 31.8277 14.8292C31.9437 16.0629 31.3995 17.3199 30.2999 18.0616C29.0767 18.8867 27.5198 18.8356 26.3706 18.0527C25.8273 17.6825 25.0806 17.5544 24.5735 17.9728C24.0671 18.3908 24.0511 19.147 24.3106 19.7502C24.8601 21.0278 24.6132 22.566 23.5698 23.6093C22.4203 24.7588 20.6703 24.9416 19.3298 24.1577C18.9643 23.944 18.4788 23.9608 18.2065 24.2849C17.9339 24.6094 18.0015 25.0912 18.2756 25.4143C19.2802 26.5983 19.4041 28.3534 18.4717 29.685C17.538 31.0185 15.8427 31.5019 14.385 30.959C13.9885 30.8113 13.5133 30.9114 13.3014 31.2777C13.0891 31.6445 13.2397 32.1077 13.5663 32.3777C14.7652 33.3686 15.1941 35.0784 14.5061 36.5537C14.0099 37.6178 13.0468 38.3152 11.9745 38.5157C10.8697 38.7223 9.62057 39.1607 9.26398 40.2266C8.9075 41.2922 9.63826 42.4025 10.3961 43.2321C11.132 44.0376 11.4816 45.1743 11.2374 46.3228C10.9622 47.6179 10.0035 48.5922 8.81914 48.9484C7.96534 49.2052 7.10005 49.7713 7.00789 50.6581C6.91595 51.5428 7.64203 52.2837 8.42215 52.711C9.50732 53.3054 10.2431 54.4582 10.2431 55.7827C10.2431 56.9547 9.66714 57.9921 8.78281 58.6273C7.87112 59.2822 6.92836 60.2188 7.05414 61.3343C7.18024 62.4526 8.31089 63.1406 9.34885 63.5755C10.3523 63.9959 11.1458 64.8766 11.4092 66.0176C11.7078 67.3108 11.2477 68.6021 10.3203 69.4252C9.6544 70.0162 9.11106 70.9005 9.40093 71.7423C9.69084 72.5843 10.6615 72.9413 11.5503 72.9971C12.7877 73.0748 13.9452 73.8091 14.5061 75.0119C15.194 76.4872 14.7651 78.197 13.5663 79.1879C13.2397 79.4579 13.0892 79.921 13.3014 80.2878C13.5133 80.6541 13.9884 80.7541 14.3849 80.6064C15.8426 80.0635 17.5379 80.5469 18.4717 81.8804C19.404 83.212 19.2802 84.9672 18.2755 86.1512C18.0014 86.4743 17.9339 86.956 18.2064 87.2804C18.4787 87.6046 18.9642 87.6214 19.3297 87.4077C20.6702 86.6238 22.4203 86.8065 23.5698 87.956C24.6131 88.9994 24.86 90.5375 24.3106 91.815C24.0511 92.4184 24.067 93.1747 24.5736 93.5927C25.0807 94.0112 25.8275 93.883 26.3709 93.5129C27.5201 92.7301 29.0768 92.6791 30.2999 93.5041C31.3995 94.2457 31.9436 95.5027 31.8277 96.7363C31.7445 97.622 31.9463 98.6357 32.7314 99.0541C33.5178 99.4732 34.4764 99.0748 35.1655 98.5098C36.1234 97.7245 37.4692 97.4731 38.6985 97.9698C40.0699 98.5238 40.8989 99.8483 40.8882 101.243C40.8832 101.9 41.1915 102.591 41.8217 102.777C42.4513 102.963 43.0887 102.553 43.4421 101.999C44.1925 100.824 45.6093 100.165 47.0613 100.447C48.5101 100.728 49.5751 101.866 49.8336 103.233C49.9558 103.879 50.3905 104.498 51.0453 104.56C51.6987 104.623 52.2471 104.099 52.4898 103.49C53.0041 102.197 54.2669 101.283 55.7431 101.283C57.2194 101.283 58.4822 102.197 58.9965 103.49C59.2391 104.099 59.7875 104.623 60.4409 104.56C61.0957 104.498 61.5304 103.879 61.6526 103.233C61.9111 101.866 62.9761 100.728 64.4249 100.447C65.8769 100.165 67.2936 100.824 68.0441 101.999C68.3974 102.553 69.0349 102.963 69.6646 102.777C70.2947 102.59 70.6031 101.9 70.5981 101.243C70.5874 99.8482 71.4164 98.5238 72.7878 97.9698C74.0171 97.4731 75.3629 97.7245 76.3207 98.5097C77.0099 99.0747 77.9684 99.4732 78.7549 99.0541C79.54 98.6357 79.7418 97.622 79.6586 96.7362C79.5427 95.5026 80.0868 94.2457 81.1864 93.5041C82.4095 92.6791 83.9662 92.7301 85.1154 93.5129C85.6588 93.883 86.4056 94.0112 86.9127 93.5927C87.4192 93.1746 87.4352 92.4184 87.1757 91.815C86.6263 90.5375 86.8732 88.9993 87.9165 87.956C89.066 86.8065 90.8161 86.6238 92.1566 87.4077C92.522 87.6214 93.0076 87.6046 93.2798 87.2805C93.5523 86.956 93.4848 86.4743 93.2107 86.1512C92.206 84.9672 92.0821 83.212 93.0145 81.8804C93.9483 80.5469 95.6436 80.0635 97.1013 80.6065C97.4978 80.7541 97.9729 80.6541 98.1849 80.2878C98.3971 79.921 98.2466 79.4579 97.9199 79.1879C96.7211 78.197 96.2922 76.4872 96.9801 75.0119C97.4763 73.9478 98.4394 73.2505 99.5117 73.0499C100.617 72.8433 101.866 72.4048 102.222 71.339C102.579 70.2734 101.848 69.1631 101.09 68.3335C100.354 67.528 100.005 66.3913 100.249 65.2428C100.524 63.9478 101.483 62.9735 102.667 62.6173C103.521 62.3605 104.386 61.7943 104.478 60.9075C104.57 60.0227 103.844 59.2818 103.064 58.8544C101.979 58.26 101.243 57.1073 101.243 55.7827C101.243 54.611 101.819 53.5737 102.703 52.9384C103.615 52.2833 104.558 51.3465 104.432 50.2308C104.306 49.1123 103.175 48.4241 102.137 47.9891C101.134 47.5686 100.34 46.6879 100.077 45.5471C99.7783 44.2537 100.239 42.9623 101.166 42.1392C101.832 41.5484 102.375 40.6645 102.085 39.8228C101.795 38.9811 100.825 38.6242 99.9364 38.5685C98.6988 38.491 97.5411 37.7567 96.9801 36.5537C96.2922 35.0784 96.7211 33.3686 97.9199 32.3777C98.2466 32.1076 98.3971 31.6445 98.1848 31.2776C97.9729 30.9114 97.4977 30.8113 97.1012 30.959C95.6435 31.5019 93.9482 31.0185 93.0145 29.685C92.0821 28.3534 92.206 26.5982 93.2106 25.4142C93.4848 25.0912 93.5523 24.6094 93.2798 24.2849C93.0075 23.9608 92.522 23.944 92.1565 24.1577C90.816 24.9416 89.0659 24.7588 87.9165 23.6093C86.8731 22.566 86.6262 21.0278 87.1757 19.7502C87.4352 19.147 87.4192 18.3908 86.9127 17.9728C86.4057 17.5544 85.6589 17.6826 85.1157 18.0527C83.9664 18.8356 82.4096 18.8867 81.1864 18.0616C80.0868 17.3199 79.5426 16.0629 79.6586 14.8293C79.7419 13.9435 79.5402 12.9299 78.7551 12.5115C77.9686 12.0924 77.01 12.4909 76.3209 13.0559C75.3631 13.8413 74.0171 14.0928 72.7877 13.5961C71.4163 13.042 70.5873 11.7174 70.598 10.323C70.6031 9.66582 70.2948 8.975 69.6646 8.7886C69.0349 8.60235 68.3975 9.01262 68.0441 9.56611C67.2937 10.7416 65.8769 11.4011 64.4249 11.1188C62.976 10.8372 61.911 9.69944 61.6525 8.33245C61.5303 7.68617 61.0957 7.06731 60.4409 7.00503Z" fill="#FFA300"/>
<path d="M60.9604 66.3975C60.9604 69.1296 58.7651 71.3445 56.0571 71.3445C53.349 71.3445 51.1537 69.1296 51.1537 66.3975C51.1537 63.6654 53.349 61.4506 56.0571 61.4506C58.7651 61.4506 60.9604 63.6654 60.9604 66.3975Z" fill="#F68212"/>
<path fill-rule="evenodd" clip-rule="evenodd" d="M56.0337 33.9964C53.674 33.9964 51.4109 34.9422 49.7424 36.6256C48.0738 38.309 47.1364 40.5923 47.1364 42.9731V45.018H41.1929V42.9731C41.1929 39.002 42.7564 35.1935 45.5396 32.3855C48.3228 29.5775 52.0976 28 56.0337 28C59.9697 28 63.7445 29.5775 66.5277 32.3855C69.3109 35.1935 70.8744 39.002 70.8744 42.9731V57.038C72.5388 59.7401 73.5 62.9289 73.5 66.3443C73.5 76.0953 65.665 84 56 84C46.335 84 38.5 76.0953 38.5 66.3443C38.5 56.5933 46.335 48.6886 56 48.6886C59.2625 48.6886 62.3164 49.5893 64.9309 51.1576V42.9731C64.9309 40.5923 63.9935 38.309 62.3249 36.6256C60.6564 34.9422 58.3933 33.9964 56.0337 33.9964ZM56 54.685C49.6175 54.685 44.4435 59.905 44.4435 66.3443C44.4435 72.7835 49.6175 78.0036 56 78.0036C62.3825 78.0036 67.5565 72.7835 67.5565 66.3443C67.5565 59.905 62.3825 54.685 56 54.685Z" fill="#F68212"/>
<path d="M34.8587 52.5L33.6146 49.3213H29.6087L28.3783 52.5H27.2025L31.1536 42.4648H32.1312L36.0618 52.5H34.8587ZM33.2523 48.2754L32.0902 45.1787C31.9398 44.7868 31.7848 44.306 31.6253 43.7363C31.5251 44.1738 31.3815 44.6546 31.1947 45.1787L30.0189 48.2754H33.2523ZM42.8818 43.4014C41.7835 43.4014 40.9154 43.7682 40.2773 44.502C39.6439 45.2311 39.3271 46.2314 39.3271 47.5029C39.3271 48.8109 39.6325 49.8226 40.2432 50.5381C40.8584 51.249 41.7334 51.6045 42.8682 51.6045C43.5654 51.6045 44.3607 51.4792 45.2539 51.2285V52.2471C44.5612 52.5068 43.7067 52.6367 42.6904 52.6367C41.2184 52.6367 40.0814 52.1901 39.2793 51.2969C38.4818 50.4036 38.083 49.1344 38.083 47.4893C38.083 46.4593 38.2744 45.557 38.6572 44.7822C39.0446 44.0075 39.6006 43.4105 40.3252 42.9912C41.0544 42.5719 41.9111 42.3623 42.8955 42.3623C43.9437 42.3623 44.8597 42.5537 45.6436 42.9365L45.1514 43.9346C44.3949 43.5791 43.6383 43.4014 42.8818 43.4014ZM54.1725 52.5H48.6012V42.5059H54.1725V43.5381H49.7633V46.7578H53.9059V47.7832H49.7633V51.4609H54.1725V52.5ZM63.2005 49.8408C63.2005 50.7204 62.8815 51.4063 62.2435 51.8984C61.6055 52.3906 60.7396 52.6367 59.6458 52.6367C58.4609 52.6367 57.5495 52.484 56.9115 52.1787V51.0576C57.3216 51.2308 57.7682 51.3675 58.2513 51.4678C58.7344 51.568 59.2129 51.6182 59.6868 51.6182C60.4616 51.6182 61.0449 51.4723 61.4368 51.1807C61.8288 50.8844 62.0247 50.4743 62.0247 49.9502C62.0247 49.6038 61.9541 49.3213 61.8128 49.1025C61.6761 48.8792 61.4437 48.6742 61.1156 48.4873C60.792 48.3005 60.2975 48.0885 59.6322 47.8516C58.7025 47.5189 58.0371 47.1247 57.6361 46.6689C57.2396 46.2132 57.0413 45.6185 57.0413 44.8848C57.0413 44.1146 57.3307 43.5016 57.9095 43.0459C58.4883 42.5902 59.2539 42.3623 60.2064 42.3623C61.1999 42.3623 62.1136 42.5446 62.9476 42.9092L62.5853 43.9209C61.7604 43.5745 60.9583 43.4014 60.179 43.4014C59.5638 43.4014 59.083 43.5335 58.7366 43.7979C58.3903 44.0622 58.2171 44.429 58.2171 44.8984C58.2171 45.2448 58.2809 45.5296 58.4085 45.7529C58.5361 45.9717 58.7503 46.1745 59.0511 46.3613C59.3564 46.5436 59.8213 46.7464 60.4456 46.9697C61.4938 47.3434 62.2139 47.7445 62.6058 48.1729C63.0023 48.6012 63.2005 49.1572 63.2005 49.8408ZM72.0508 49.8408C72.0508 50.7204 71.7318 51.4063 71.0937 51.8984C70.4557 52.3906 69.5898 52.6367 68.4961 52.6367C67.3112 52.6367 66.3997 52.484 65.7617 52.1787V51.0576C66.1719 51.2308 66.6185 51.3675 67.1016 51.4678C67.5846 51.568 68.0631 51.6182 68.5371 51.6182C69.3118 51.6182 69.8952 51.4723 70.2871 51.1807C70.679 50.8844 70.875 50.4743 70.875 49.9502C70.875 49.6038 70.8044 49.3213 70.6631 49.1025C70.5264 48.8792 70.2939 48.6742 69.9658 48.4873C69.6422 48.3005 69.1478 48.0885 68.4824 47.8516C67.5527 47.5189 66.8874 47.1247 66.4863 46.6689C66.0898 46.2132 65.8916 45.6185 65.8916 44.8848C65.8916 44.1146 66.181 43.5016 66.7598 43.0459C67.3385 42.5902 68.1042 42.3623 69.0566 42.3623C70.0501 42.3623 70.9639 42.5446 71.7978 42.9092L71.4355 43.9209C70.6107 43.5745 69.8086 43.4014 69.0293 43.4014C68.4141 43.4014 67.9333 43.5335 67.5869 43.7979C67.2406 44.0622 67.0674 44.429 67.0674 44.8984C67.0674 45.2448 67.1312 45.5296 67.2588 45.7529C67.3864 45.9717 67.6006 46.1745 67.9014 46.3613C68.2067 46.5436 68.6715 46.7464 69.2959 46.9697C70.3441 47.3434 71.0641 47.7445 71.4561 48.1729C71.8525 48.6012 72.0508 49.1572 72.0508 49.8408ZM83.9362 47.4893C83.9362 49.0889 83.5306 50.3467 82.7194 51.2627C81.9128 52.1787 80.7894 52.6367 79.3493 52.6367C77.8773 52.6367 76.7402 52.1878 75.9381 51.29C75.1406 50.3877 74.7419 49.1162 74.7419 47.4756C74.7419 45.8486 75.1429 44.5885 75.945 43.6953C76.7471 42.7975 77.8864 42.3486 79.3629 42.3486C80.7985 42.3486 81.9196 42.8044 82.7262 43.7158C83.5329 44.6273 83.9362 45.8851 83.9362 47.4893ZM75.9723 47.4893C75.9723 48.8428 76.2594 49.8704 76.8337 50.5723C77.4124 51.2695 78.251 51.6182 79.3493 51.6182C80.4567 51.6182 81.293 51.2695 81.8581 50.5723C82.4232 49.875 82.7057 48.8473 82.7057 47.4893C82.7057 46.1449 82.4232 45.1263 81.8581 44.4336C81.2975 43.7363 80.4658 43.3877 79.3629 43.3877C78.2555 43.3877 77.4124 43.7386 76.8337 44.4404C76.2594 45.1377 75.9723 46.154 75.9723 47.4893ZM32.1995 70.5L31.7074 68.627H28.4603L27.9544 70.5H24.9876L28.2484 60.4648H31.8509L35.1527 70.5H32.1995ZM31.1468 66.4121L30.7161 64.7715C30.6159 64.4069 30.4928 63.9352 30.347 63.3564C30.2057 62.7777 30.1123 62.363 30.0667 62.1123C30.0257 62.3447 29.9437 62.7275 29.8206 63.2607C29.7021 63.7939 29.4355 64.8444 29.0208 66.4121H31.1468ZM37.4062 60.5059H40.8926C42.2506 60.5059 43.2578 60.7087 43.9141 61.1143C44.5749 61.5153 44.9053 62.1419 44.9053 62.9941C44.9053 63.5547 44.7617 64.0332 44.4746 64.4297C44.1875 64.8262 43.8092 65.0814 43.3398 65.1953V65.2637C43.9596 65.4277 44.4085 65.7012 44.6865 66.084C44.9645 66.4668 45.1035 66.9635 45.1035 67.5742C45.1035 68.4811 44.7617 69.1966 44.0781 69.7207C43.3991 70.2402 42.4717 70.5 41.2959 70.5H37.4062V60.5059ZM40.1064 64.3408H40.9199C41.3073 64.3408 41.6058 64.2611 41.8154 64.1016C42.0296 63.9421 42.1367 63.7051 42.1367 63.3906C42.1367 62.8301 41.7129 62.5498 40.8652 62.5498H40.1064V64.3408ZM40.1064 66.3164V68.415H41.0566C41.8997 68.415 42.3213 68.0596 42.3213 67.3486C42.3213 67.016 42.2074 66.7607 41.9795 66.583C41.7562 66.4053 41.4303 66.3164 41.002 66.3164H40.1064ZM53.9401 70.5H48.0065V60.5059H53.9401V62.6729H50.7067V64.2451H53.7008V66.4121H50.7067V68.2988H53.9401V70.5ZM59.557 66.8633V70.5H56.8568V60.5059H60.1312C62.8473 60.5059 64.2054 61.4902 64.2054 63.459C64.2054 64.6165 63.6403 65.512 62.5101 66.1455L65.4222 70.5H62.3597L60.2406 66.8633H59.557ZM59.557 64.833H60.0628C61.0062 64.833 61.4779 64.416 61.4779 63.582C61.4779 62.8939 61.0153 62.5498 60.0902 62.5498H59.557V64.833ZM71.9072 70.5H69.207V62.7139H66.7666V60.5059H74.3408V62.7139H71.9072V70.5ZM86.2878 65.4893C86.2878 67.1709 85.8753 68.4492 85.0504 69.3242C84.2256 70.1992 83.0179 70.6367 81.4274 70.6367C79.8597 70.6367 78.6566 70.1969 77.818 69.3174C76.984 68.4378 76.5671 67.1572 76.5671 65.4756C76.5671 63.8122 76.9818 62.543 77.8112 61.668C78.6452 60.7884 79.8551 60.3486 81.4411 60.3486C83.0316 60.3486 84.237 60.7839 85.0573 61.6543C85.8776 62.5247 86.2878 63.8031 86.2878 65.4893ZM79.4108 65.4893C79.4108 67.4215 80.083 68.3877 81.4274 68.3877C82.111 68.3877 82.6169 68.153 82.945 67.6836C83.2777 67.2142 83.444 66.4827 83.444 65.4893C83.444 64.4912 83.2754 63.7552 82.9381 63.2813C82.6055 62.8027 82.1064 62.5635 81.4411 62.5635C80.0876 62.5635 79.4108 63.5387 79.4108 65.4893Z" fill="#503F3F"/>
</svg>
