<svg width="64" height="64" viewBox="0 0 64 64" fill="none" xmlns="http://www.w3.org/2000/svg">
<path d="M34.5377 4.00287C34.1643 3.96736 33.8509 4.26627 33.7123 4.61475C33.4184 5.35358 32.6968 5.87585 31.8532 5.87585C31.0096 5.87585 30.2881 5.35359 29.9941 4.61476C29.8555 4.26628 29.5421 3.96736 29.1688 4.00287C28.7946 4.03846 28.5462 4.39211 28.4764 4.76142C28.3287 5.54255 27.7201 6.19268 26.8922 6.35361C26.0624 6.51489 25.2528 6.13806 24.824 5.46633C24.6221 5.15006 24.2579 4.91563 23.8981 5.02206C23.538 5.12857 23.3618 5.5233 23.3647 5.8988C23.3709 6.69565 22.8971 7.45255 22.1135 7.76918C21.4109 8.05302 20.6418 7.90933 20.0945 7.46051C19.7007 7.13762 19.153 6.90991 18.7036 7.14941C18.2549 7.38849 18.1397 7.96773 18.1872 8.47385C18.2535 9.17881 17.9426 9.89711 17.3142 10.3209C16.6153 10.7924 15.7256 10.7632 15.0689 10.3158C14.7585 10.1043 14.3317 10.0311 14.042 10.2702C13.7526 10.509 13.7435 10.9411 13.8918 11.2858C14.2058 12.0159 14.0647 12.8948 13.4685 13.491C12.8116 14.1479 11.8116 14.2523 11.0456 13.8044C10.8368 13.6823 10.5593 13.6919 10.4037 13.8771C10.248 14.0625 10.2866 14.3378 10.4432 14.5224C11.0173 15.199 11.088 16.202 10.5553 16.9628C10.0217 17.7249 9.05297 18.0011 8.22003 17.6909C7.99343 17.6065 7.7219 17.6637 7.6008 17.8729C7.4795 18.0826 7.56552 18.3472 7.7522 18.5015C8.43725 19.0678 8.68234 20.0448 8.28923 20.8878C8.00568 21.4959 7.45534 21.8944 6.84258 22.009C6.21127 22.127 5.49747 22.3776 5.2937 22.9866C5.09 23.5955 5.50758 24.23 5.94064 24.704C6.36115 25.1643 6.5609 25.8139 6.42139 26.4702C6.26409 27.2102 5.71627 27.767 5.03951 27.9705C4.55162 28.1172 4.05717 28.4407 4.00451 28.9475C3.95197 29.453 4.36687 29.8764 4.81265 30.1206C5.43275 30.4603 5.85321 31.119 5.85321 31.8759C5.85321 32.5455 5.52408 33.1383 5.01875 33.5013C4.49778 33.8755 3.95906 34.4108 4.03094 35.0482C4.103 35.6872 4.74908 36.0803 5.3422 36.3288C5.91559 36.5691 6.36904 37.0724 6.51957 37.7243C6.69018 38.4633 6.42727 39.2012 5.89734 39.6716C5.5168 40.0093 5.20632 40.5145 5.37196 40.9956C5.53762 41.4768 6.09231 41.6808 6.60016 41.7126C7.30728 41.757 7.96869 42.1766 8.2892 42.864C8.68231 43.707 8.43722 44.684 7.75217 45.2502C7.56552 45.4045 7.47952 45.6692 7.6008 45.8788C7.72189 46.088 7.99339 46.1452 8.21996 46.0608C9.05292 45.7506 10.0217 46.0268 10.5552 46.7888C11.088 47.5497 11.0173 48.5527 10.4432 49.2293C10.2865 49.4139 10.2479 49.6892 10.4037 49.8745C10.5593 50.0598 10.8367 50.0694 11.0455 49.9472C11.8115 49.4993 12.8116 49.6037 13.4684 50.2606C14.0646 50.8568 14.2057 51.7357 13.8918 52.4657C13.7435 52.8105 13.7526 53.2427 14.0421 53.4816C14.3318 53.7207 14.7586 53.6474 15.0691 53.4359C15.7258 52.9886 16.6153 52.9595 17.3142 53.4309C17.9426 53.8547 18.2535 54.573 18.1873 55.2779C18.1397 55.784 18.255 56.3633 18.7037 56.6023C19.1531 56.8418 19.7008 56.6142 20.0946 56.2913C20.6419 55.8426 21.411 55.6989 22.1134 55.9827C22.8971 56.2993 23.3708 57.0562 23.3647 57.8529C23.3618 58.2284 23.538 58.6232 23.8981 58.7297C24.2579 58.8361 24.6221 58.6017 24.8241 58.2854C25.2529 57.6137 26.0624 57.2369 26.8922 57.3982C27.72 57.5591 28.3286 58.2092 28.4763 58.9903C28.5462 59.3596 28.7946 59.7132 29.1687 59.7488C29.5421 59.7843 29.8555 59.4854 29.9942 59.1369C30.2881 58.3981 31.0096 57.8759 31.8532 57.8759C32.6968 57.8759 33.4184 58.3981 33.7123 59.1369C33.8509 59.4854 34.1643 59.7843 34.5377 59.7488C34.9118 59.7132 35.1602 59.3596 35.2301 58.9903C35.3778 58.2092 35.9864 57.5591 36.8142 57.3982C37.644 57.2369 38.4535 57.6137 38.8823 58.2854C39.0843 58.6017 39.4485 58.8361 39.8083 58.7297C40.1684 58.6231 40.3446 58.2284 40.3418 57.8529C40.3357 57.0561 40.8094 56.2993 41.593 55.9827C42.2955 55.6989 43.0645 55.8426 43.6119 56.2913C44.0057 56.6141 44.5534 56.8418 45.0028 56.6023C45.4514 56.3632 45.5667 55.784 45.5192 55.2779C45.453 54.5729 45.7639 53.8547 46.3922 53.4309C47.0911 52.9595 47.9807 52.9886 48.6374 53.4359C48.9479 53.6474 49.3746 53.7207 49.6644 53.4815C49.9538 53.2426 49.963 52.8105 49.8147 52.4657C49.5007 51.7357 49.6418 50.8568 50.238 50.2606C50.8949 49.6037 51.8949 49.4993 52.6609 49.9472C52.8697 50.0694 53.1472 50.0598 53.3028 49.8746C53.4585 49.6892 53.4199 49.4139 53.2633 49.2293C52.6891 48.5527 52.6184 47.5497 53.1512 46.7888C53.6847 46.0268 54.6535 45.7506 55.4865 46.0608C55.713 46.1452 55.9845 46.088 56.1056 45.8788C56.2269 45.6692 56.1409 45.4045 55.9543 45.2502C55.2692 44.684 55.0241 43.707 55.4172 42.864C55.7008 42.2559 56.2511 41.8574 56.8638 41.7428C57.4951 41.6248 58.2089 41.3742 58.4127 40.7651C58.6164 40.1562 58.1988 39.5217 57.7658 39.0477C57.3453 38.5874 57.1456 37.9379 57.2851 37.2816C57.4424 36.5416 57.9902 35.9849 58.6669 35.7813C59.1548 35.6346 59.6492 35.311 59.7019 34.8043C59.7545 34.2987 59.3395 33.8753 58.8937 33.6311C58.2737 33.2914 57.8532 32.6327 57.8532 31.8759C57.8532 31.2063 58.1823 30.6135 58.6875 30.2505C59.2085 29.8762 59.7474 29.3408 59.6755 28.7033C59.6034 28.0642 58.9572 27.6709 58.364 27.4223C57.7907 27.1821 57.3373 26.6788 57.1868 26.0269C57.0162 25.2878 57.2792 24.5499 57.8092 24.0796C58.1896 23.742 58.5 23.2368 58.3344 22.7559C58.1688 22.2749 57.6143 22.071 57.1065 22.0392C56.3993 21.9948 55.7378 21.5752 55.4172 20.8878C55.0241 20.0448 55.2692 19.0678 55.9542 18.5015C56.1409 18.3472 56.2269 18.0826 56.1056 17.8729C55.9845 17.6636 55.713 17.6065 55.4864 17.6909C54.6534 18.0011 53.6847 17.7249 53.1511 16.9628C52.6184 16.2019 52.6891 15.199 53.2632 14.5224C53.4199 14.3378 53.4585 14.0625 53.3027 13.8771C53.1471 13.6919 52.8697 13.6823 52.6609 13.8044C51.8949 14.2523 50.8948 14.1479 50.238 13.491C49.6418 12.8948 49.5007 12.0159 49.8147 11.2859C49.9629 10.9411 49.9538 10.5091 49.6644 10.2702C49.3747 10.0311 48.948 10.1043 48.6375 10.3158C47.9808 10.7632 47.0912 10.7924 46.3923 10.3209C45.7639 9.89711 45.4529 9.17882 45.5192 8.47387C45.5668 7.96774 45.4515 7.3885 45.0029 7.14942C44.5535 6.90992 44.0057 7.13763 43.612 7.46052C43.0646 7.90933 42.2955 8.05301 41.593 7.76918C40.8093 7.45255 40.3356 6.69568 40.3417 5.89884C40.3446 5.52333 40.1685 5.12857 39.8083 5.02206C39.4485 4.91563 39.0843 5.15007 38.8824 5.46635C38.4535 6.13807 37.644 6.51489 36.8142 6.35361C35.9863 6.19268 35.3777 5.54254 35.23 4.7614C35.1602 4.3921 34.9118 4.03846 34.5377 4.00287Z" fill="#FFD100"/>
<g style="mix-blend-mode:overlay" opacity="0.9">
<path d="M34.5377 4.00287C34.1643 3.96736 33.8509 4.26627 33.7123 4.61475C33.4184 5.35358 32.6968 5.87585 31.8532 5.87585C31.0096 5.87585 30.2881 5.35359 29.9941 4.61476C29.8555 4.26628 29.5421 3.96736 29.1688 4.00287C28.7946 4.03846 28.5462 4.39211 28.4764 4.76142C28.3287 5.54255 27.7201 6.19268 26.8922 6.35361C26.0624 6.51489 25.2528 6.13806 24.824 5.46633C24.6221 5.15006 24.2579 4.91563 23.8981 5.02206C23.538 5.12857 23.3618 5.5233 23.3647 5.8988C23.3709 6.69565 22.8971 7.45255 22.1135 7.76918C21.4109 8.05302 20.6418 7.90933 20.0945 7.46051C19.7007 7.13762 19.153 6.90991 18.7036 7.14941C18.2549 7.38849 18.1397 7.96773 18.1872 8.47385C18.2535 9.17881 17.9426 9.89711 17.3142 10.3209C16.6153 10.7924 15.7256 10.7632 15.0689 10.3158C14.7585 10.1043 14.3317 10.0311 14.042 10.2702C13.7526 10.509 13.7435 10.9411 13.8918 11.2858C14.2058 12.0159 14.0647 12.8948 13.4685 13.491C12.8116 14.1479 11.8116 14.2523 11.0456 13.8044C10.8368 13.6823 10.5593 13.6919 10.4037 13.8771C10.248 14.0625 10.2866 14.3378 10.4432 14.5224C11.0173 15.199 11.088 16.202 10.5553 16.9628C10.0217 17.7249 9.05297 18.0011 8.22003 17.6909C7.99343 17.6065 7.7219 17.6637 7.6008 17.8729C7.4795 18.0826 7.56552 18.3472 7.7522 18.5015C8.43725 19.0678 8.68234 20.0448 8.28923 20.8878C8.00568 21.4959 7.45534 21.8944 6.84258 22.009C6.21127 22.127 5.49747 22.3776 5.2937 22.9866C5.09 23.5955 5.50758 24.23 5.94064 24.704C6.36115 25.1643 6.5609 25.8139 6.42139 26.4702C6.26409 27.2102 5.71627 27.767 5.03951 27.9705C4.55162 28.1172 4.05717 28.4407 4.00451 28.9475C3.95197 29.453 4.36687 29.8764 4.81265 30.1206C5.43275 30.4603 5.85321 31.119 5.85321 31.8759C5.85321 32.5455 5.52408 33.1383 5.01875 33.5013C4.49778 33.8755 3.95906 34.4108 4.03094 35.0482C4.103 35.6872 4.74908 36.0803 5.3422 36.3288C5.91559 36.5691 6.36904 37.0724 6.51957 37.7243C6.69018 38.4633 6.42727 39.2012 5.89734 39.6716C5.5168 40.0093 5.20632 40.5145 5.37196 40.9956C5.53762 41.4768 6.09231 41.6808 6.60016 41.7126C7.30728 41.757 7.96869 42.1766 8.2892 42.864C8.68231 43.707 8.43722 44.684 7.75217 45.2502C7.56552 45.4045 7.47952 45.6692 7.6008 45.8788C7.72189 46.088 7.99339 46.1452 8.21996 46.0608C9.05292 45.7506 10.0217 46.0268 10.5552 46.7888C11.088 47.5497 11.0173 48.5527 10.4432 49.2293C10.2865 49.4139 10.2479 49.6892 10.4037 49.8745C10.5593 50.0598 10.8367 50.0694 11.0455 49.9472C11.8115 49.4993 12.8116 49.6037 13.4684 50.2606C14.0646 50.8568 14.2057 51.7357 13.8918 52.4657C13.7435 52.8105 13.7526 53.2427 14.0421 53.4816C14.3318 53.7207 14.7586 53.6474 15.0691 53.4359C15.7258 52.9886 16.6153 52.9595 17.3142 53.4309C17.9426 53.8547 18.2535 54.573 18.1873 55.2779C18.1397 55.784 18.255 56.3633 18.7037 56.6023C19.1531 56.8418 19.7008 56.6142 20.0946 56.2913C20.6419 55.8426 21.411 55.6989 22.1134 55.9827C22.8971 56.2993 23.3708 57.0562 23.3647 57.8529C23.3618 58.2284 23.538 58.6232 23.8981 58.7297C24.2579 58.8361 24.6221 58.6017 24.8241 58.2854C25.2529 57.6137 26.0624 57.2369 26.8922 57.3982C27.72 57.5591 28.3286 58.2092 28.4763 58.9903C28.5462 59.3596 28.7946 59.7132 29.1687 59.7488C29.5421 59.7843 29.8555 59.4854 29.9942 59.1369C30.2881 58.3981 31.0096 57.8759 31.8532 57.8759C32.6968 57.8759 33.4184 58.3981 33.7123 59.1369C33.8509 59.4854 34.1643 59.7843 34.5377 59.7488C34.9118 59.7132 35.1602 59.3596 35.2301 58.9903C35.3778 58.2092 35.9864 57.5591 36.8142 57.3982C37.644 57.2369 38.4535 57.6137 38.8823 58.2854C39.0843 58.6017 39.4485 58.8361 39.8083 58.7297C40.1684 58.6231 40.3446 58.2284 40.3418 57.8529C40.3357 57.0561 40.8094 56.2993 41.593 55.9827C42.2955 55.6989 43.0645 55.8426 43.6119 56.2913C44.0057 56.6141 44.5534 56.8418 45.0028 56.6023C45.4514 56.3632 45.5667 55.784 45.5192 55.2779C45.453 54.5729 45.7639 53.8547 46.3922 53.4309C47.0911 52.9595 47.9807 52.9886 48.6374 53.4359C48.9479 53.6474 49.3746 53.7207 49.6644 53.4815C49.9538 53.2426 49.963 52.8105 49.8147 52.4657C49.5007 51.7357 49.6418 50.8568 50.238 50.2606C50.8949 49.6037 51.8949 49.4993 52.6609 49.9472C52.8697 50.0694 53.1472 50.0598 53.3028 49.8746C53.4585 49.6892 53.4199 49.4139 53.2633 49.2293C52.6891 48.5527 52.6184 47.5497 53.1512 46.7888C53.6847 46.0268 54.6535 45.7506 55.4865 46.0608C55.713 46.1452 55.9845 46.088 56.1056 45.8788C56.2269 45.6692 56.1409 45.4045 55.9543 45.2502C55.2692 44.684 55.0241 43.707 55.4172 42.864C55.7008 42.2559 56.2511 41.8574 56.8638 41.7428C57.4951 41.6248 58.2089 41.3742 58.4127 40.7651C58.6164 40.1562 58.1988 39.5217 57.7658 39.0477C57.3453 38.5874 57.1456 37.9379 57.2851 37.2816C57.4424 36.5416 57.9902 35.9849 58.6669 35.7813C59.1548 35.6346 59.6492 35.311 59.7019 34.8043C59.7545 34.2987 59.3395 33.8753 58.8937 33.6311C58.2737 33.2914 57.8532 32.6327 57.8532 31.8759C57.8532 31.2063 58.1823 30.6135 58.6875 30.2505C59.2085 29.8762 59.7474 29.3408 59.6755 28.7033C59.6034 28.0642 58.9572 27.6709 58.364 27.4223C57.7907 27.1821 57.3373 26.6788 57.1868 26.0269C57.0162 25.2878 57.2792 24.5499 57.8092 24.0796C58.1896 23.742 58.5 23.2368 58.3344 22.7559C58.1688 22.2749 57.6143 22.071 57.1065 22.0392C56.3993 21.9948 55.7378 21.5752 55.4172 20.8878C55.0241 20.0448 55.2692 19.0678 55.9542 18.5015C56.1409 18.3472 56.2269 18.0826 56.1056 17.8729C55.9845 17.6636 55.713 17.6065 55.4864 17.6909C54.6534 18.0011 53.6847 17.7249 53.1511 16.9628C52.6184 16.2019 52.6891 15.199 53.2632 14.5224C53.4199 14.3378 53.4585 14.0625 53.3027 13.8771C53.1471 13.6919 52.8697 13.6823 52.6609 13.8044C51.8949 14.2523 50.8948 14.1479 50.238 13.491C49.6418 12.8948 49.5007 12.0159 49.8147 11.2859C49.9629 10.9411 49.9538 10.5091 49.6644 10.2702C49.3747 10.0311 48.948 10.1043 48.6375 10.3158C47.9808 10.7632 47.0912 10.7924 46.3923 10.3209C45.7639 9.89711 45.4529 9.17882 45.5192 8.47387C45.5668 7.96774 45.4515 7.3885 45.0029 7.14942C44.5535 6.90992 44.0057 7.13763 43.612 7.46052C43.0646 7.90933 42.2955 8.05301 41.593 7.76918C40.8093 7.45255 40.3356 6.69568 40.3417 5.89884C40.3446 5.52333 40.1685 5.12857 39.8083 5.02206C39.4485 4.91563 39.0843 5.15007 38.8824 5.46635C38.4535 6.13807 37.644 6.51489 36.8142 6.35361C35.9863 6.19268 35.3777 5.54254 35.23 4.7614C35.1602 4.3921 34.9118 4.03846 34.5377 4.00287Z" fill="url(#paint0_linear_738_2085)" fill-opacity="0.6"/>
</g>
<g style="mix-blend-mode:multiply" opacity="0.6">
<path d="M32 33.8333C31.4418 33.8268 30.8951 33.9914 30.4333 34.305C29.9715 34.6187 29.6169 35.0662 29.4172 35.5875C29.2175 36.1087 29.1823 36.6786 29.3163 37.2205C29.4503 37.7624 29.747 38.2502 30.1667 38.6183V41.1667C30.1667 41.6529 30.3598 42.1192 30.7036 42.463C31.0474 42.8068 31.5138 43 32 43C32.4862 43 32.9525 42.8068 33.2964 42.463C33.6402 42.1192 33.8333 41.6529 33.8333 41.1667V38.6183C34.253 38.2502 34.5497 37.7624 34.6837 37.2205C34.8177 36.6786 34.7825 36.1087 34.5828 35.5875C34.3831 35.0662 34.0285 34.6187 33.5667 34.305C33.1049 33.9914 32.5582 33.8268 32 33.8333V33.8333ZM41.1667 26.5H26.5V22.8333C26.4973 21.7447 26.8178 20.6797 27.4208 19.7733C28.0238 18.8669 28.8823 18.1599 29.8874 17.7417C30.8926 17.3236 31.9992 17.2131 33.0672 17.4243C34.1351 17.6356 35.1164 18.159 35.8867 18.9283C36.5759 19.6324 37.0689 20.5047 37.3167 21.4583C37.3769 21.6919 37.4824 21.9113 37.6274 22.104C37.7724 22.2967 37.9539 22.459 38.1616 22.5816C38.3693 22.7041 38.5991 22.7846 38.8379 22.8184C39.0767 22.8521 39.3198 22.8385 39.5533 22.7783C39.7869 22.7181 40.0063 22.6125 40.199 22.4676C40.3917 22.3226 40.554 22.1411 40.6766 21.9334C40.7991 21.7257 40.8796 21.4959 40.9134 21.2571C40.9471 21.0183 40.9335 20.7752 40.8733 20.5417C40.4557 18.9555 39.6273 17.5074 38.4717 16.3433C37.1887 15.0643 35.5554 14.1942 33.7783 13.8427C32.0011 13.4913 30.1596 13.6743 28.4863 14.3687C26.8131 15.0631 25.3831 16.2378 24.377 17.7443C23.3709 19.2508 22.8337 21.0217 22.8333 22.8333V26.5C21.3746 26.5 19.9757 27.0795 18.9442 28.1109C17.9128 29.1424 17.3333 30.5413 17.3333 32V44.8333C17.3333 46.292 17.9128 47.691 18.9442 48.7224C19.9757 49.7539 21.3746 50.3333 22.8333 50.3333H41.1667C42.6254 50.3333 44.0243 49.7539 45.0558 48.7224C46.0872 47.691 46.6667 46.292 46.6667 44.8333V32C46.6667 30.5413 46.0872 29.1424 45.0558 28.1109C44.0243 27.0795 42.6254 26.5 41.1667 26.5ZM43 44.8333C43 45.3196 42.8068 45.7859 42.463 46.1297C42.1192 46.4735 41.6529 46.6667 41.1667 46.6667H22.8333C22.3471 46.6667 21.8808 46.4735 21.537 46.1297C21.1931 45.7859 21 45.3196 21 44.8333V32C21 31.5138 21.1931 31.0474 21.537 30.7036C21.8808 30.3598 22.3471 30.1667 22.8333 30.1667H41.1667C41.6529 30.1667 42.1192 30.3598 42.463 30.7036C42.8068 31.0474 43 31.5138 43 32V44.8333Z" fill="#FE8B34"/>
</g>
<path d="M20.6089 21.459C20.6089 21.9648 20.4357 22.3545 20.0894 22.6279C19.7453 22.8991 19.252 23.0347 18.6094 23.0347H18.0215V25H17.4404V20.0029H18.7358C19.9845 20.0029 20.6089 20.4883 20.6089 21.459ZM18.0215 22.5356H18.5444C19.0594 22.5356 19.432 22.4525 19.6621 22.2861C19.8923 22.1198 20.0073 21.8532 20.0073 21.4863C20.0073 21.1559 19.8991 20.9098 19.6826 20.748C19.4661 20.5863 19.1289 20.5054 18.6709 20.5054H18.0215V22.5356ZM22.2393 22.9219V25H21.6582V20.0029H23.0288C23.6418 20.0029 24.0941 20.1203 24.3857 20.355C24.6797 20.5897 24.8267 20.9429 24.8267 21.4146C24.8267 22.0754 24.4917 22.522 23.8218 22.7544L25.1787 25H24.4917L23.2817 22.9219H22.2393ZM22.2393 22.4229H23.0356C23.4458 22.4229 23.7466 22.342 23.938 22.1802C24.1294 22.0161 24.2251 21.7712 24.2251 21.4453C24.2251 21.1149 24.1271 20.8768 23.9312 20.731C23.7375 20.5851 23.4253 20.5122 22.9946 20.5122H22.2393V22.4229ZM29.1265 25L28.5044 23.4106H26.5015L25.8862 25H25.2983L27.2739 19.9824H27.7627L29.728 25H29.1265ZM28.3232 22.8877L27.7422 21.3394C27.667 21.1434 27.5895 20.903 27.5098 20.6182C27.4596 20.8369 27.3879 21.0773 27.2944 21.3394L26.7065 22.8877H28.3232ZM27.0962 19.5176C27.2056 19.3763 27.3229 19.2054 27.4482 19.0049C27.5758 18.8044 27.6761 18.63 27.749 18.4819H28.4395V18.5537C28.3392 18.7018 28.1899 18.8841 27.9917 19.1006C27.7935 19.3171 27.6214 19.4845 27.4756 19.603H27.0962V19.5176ZM31.9531 25H31.3721V20.519H29.7896V20.0029H33.5356V20.519H31.9531V25ZM34.291 25V20.0029H34.8721V25H34.291ZM38.3857 20.4507C37.8366 20.4507 37.4025 20.6341 37.0835 21.001C36.7668 21.3656 36.6084 21.8657 36.6084 22.5015C36.6084 23.1554 36.7611 23.6613 37.0664 24.019C37.374 24.3745 37.8115 24.5522 38.3789 24.5522C38.7275 24.5522 39.1252 24.4896 39.5718 24.3643V24.8735C39.2254 25.0034 38.7982 25.0684 38.29 25.0684C37.554 25.0684 36.9855 24.8451 36.5845 24.3984C36.1857 23.9518 35.9863 23.3172 35.9863 22.4946C35.9863 21.9797 36.082 21.5285 36.2734 21.1411C36.4671 20.7537 36.7451 20.4552 37.1074 20.2456C37.472 20.036 37.9004 19.9312 38.3926 19.9312C38.9167 19.9312 39.3747 20.0269 39.7666 20.2183L39.5205 20.7173C39.1423 20.5396 38.764 20.4507 38.3857 20.4507ZM43.8032 25L43.1812 23.4106H41.1782L40.563 25H39.9751L41.9507 19.9824H42.4395L44.4048 25H43.8032ZM43 22.8877L42.4189 21.3394C42.3438 21.1434 42.2663 20.903 42.1865 20.6182C42.1364 20.8369 42.0646 21.0773 41.9712 21.3394L41.3833 22.8877H43ZM47.9116 23.6704C47.9116 24.1102 47.7521 24.4531 47.4331 24.6992C47.1141 24.9453 46.6812 25.0684 46.1343 25.0684C45.5418 25.0684 45.0861 24.992 44.7671 24.8394V24.2788C44.9722 24.3654 45.1955 24.4338 45.437 24.4839C45.6785 24.534 45.9178 24.5591 46.1548 24.5591C46.5422 24.5591 46.8338 24.4862 47.0298 24.3403C47.2257 24.1922 47.3237 23.9871 47.3237 23.7251C47.3237 23.5519 47.2884 23.4106 47.2178 23.3013C47.1494 23.1896 47.0332 23.0871 46.8691 22.9937C46.7074 22.9002 46.4601 22.7943 46.1274 22.6758C45.6626 22.5094 45.3299 22.3123 45.1294 22.0845C44.9312 21.8566 44.832 21.5592 44.832 21.1924C44.832 20.8073 44.9767 20.5008 45.2661 20.2729C45.5555 20.0451 45.9383 19.9312 46.4146 19.9312C46.9113 19.9312 47.3682 20.0223 47.7852 20.2046L47.604 20.7104C47.1916 20.5373 46.7905 20.4507 46.4009 20.4507C46.0933 20.4507 45.8529 20.5168 45.6797 20.6489C45.5065 20.7811 45.4199 20.9645 45.4199 21.1992C45.4199 21.3724 45.4518 21.5148 45.5156 21.6265C45.5794 21.7358 45.6865 21.8372 45.8369 21.9307C45.9896 22.0218 46.222 22.1232 46.5342 22.2349C47.0583 22.4217 47.4183 22.6222 47.6143 22.8364C47.8125 23.0506 47.9116 23.3286 47.9116 23.6704ZM17.7583 32.4536C17.7583 33.2785 17.5339 33.9097 17.085 34.3472C16.6383 34.7824 15.9946 35 15.1538 35H13.7695V30.0029H15.3008C16.0778 30.0029 16.6816 30.2183 17.1123 30.6489C17.543 31.0796 17.7583 31.6812 17.7583 32.4536ZM17.1431 32.4741C17.1431 31.8224 16.979 31.3314 16.6509 31.001C16.325 30.6706 15.8397 30.5054 15.1948 30.5054H14.3506V34.4976H15.0581C15.7508 34.4976 16.2715 34.3278 16.6201 33.9883C16.9688 33.6465 17.1431 33.1418 17.1431 32.4741ZM21.6616 35H18.876V30.0029H21.6616V30.519H19.457V32.1289H21.5283V32.6416H19.457V34.4805H21.6616V35ZM26.6553 30.813C26.2565 30.813 25.9478 30.9634 25.729 31.2642C25.5103 31.5627 25.4009 31.9797 25.4009 32.5151C25.4009 33.6294 25.819 34.1865 26.6553 34.1865C27.0062 34.1865 27.4312 34.0988 27.9302 33.9233V34.812C27.52 34.9829 27.062 35.0684 26.5562 35.0684C25.8293 35.0684 25.2733 34.8485 24.8882 34.4087C24.5031 33.9666 24.3105 33.3332 24.3105 32.5083C24.3105 31.9888 24.4051 31.5342 24.5942 31.1445C24.7834 30.7526 25.0545 30.453 25.4077 30.2456C25.7632 30.036 26.179 29.9312 26.6553 29.9312C27.1406 29.9312 27.6283 30.0485 28.1182 30.2832L27.7764 31.1445C27.5895 31.0557 27.4015 30.9782 27.2124 30.9121C27.0233 30.846 26.8376 30.813 26.6553 30.813ZM28.9966 35V30.0029H30.0562V35H28.9966ZM34.1919 35H31.314V30.0029H34.1919V30.8711H32.3735V31.9683H34.0654V32.8364H32.3735V34.125H34.1919V35ZM33.5596 29.603C33.2018 29.3911 32.9352 29.1906 32.7598 29.0015C32.582 29.186 32.3211 29.3866 31.9771 29.603H31.2832V29.5107C31.7139 29.0801 32.0055 28.7371 32.1582 28.4819H33.3784C33.4491 28.6004 33.571 28.7622 33.7441 28.9673C33.9196 29.1701 34.0894 29.3512 34.2534 29.5107V29.603H33.5596ZM39.6709 35H38.3242L36.1504 31.2197H36.1196C36.1629 31.8874 36.1846 32.3636 36.1846 32.6484V35H35.2378V30.0029H36.5742L38.7446 33.7456H38.7686C38.7344 33.0962 38.7173 32.637 38.7173 32.3682V30.0029H39.6709V35ZM43.0547 30.813C42.6559 30.813 42.3472 30.9634 42.1284 31.2642C41.9097 31.5627 41.8003 31.9797 41.8003 32.5151C41.8003 33.6294 42.2184 34.1865 43.0547 34.1865C43.4056 34.1865 43.8306 34.0988 44.3296 33.9233V34.812C43.9194 34.9829 43.4614 35.0684 42.9556 35.0684C42.2287 35.0684 41.6727 34.8485 41.2876 34.4087C40.9025 33.9666 40.71 33.3332 40.71 32.5083C40.71 31.9888 40.8045 31.5342 40.9937 31.1445C41.1828 30.7526 41.4539 30.453 41.8071 30.2456C42.1626 30.036 42.5785 29.9312 43.0547 29.9312C43.54 29.9312 44.0277 30.0485 44.5176 30.2832L44.1758 31.1445C43.9889 31.0557 43.8009 30.9782 43.6118 30.9121C43.4227 30.846 43.237 30.813 43.0547 30.813ZM45.396 35V30.0029H46.4556V35H45.396ZM50.7725 35L50.4102 33.8105H48.5884L48.2261 35H47.0845L48.8481 29.9824H50.1436L51.9141 35H50.7725ZM50.1572 32.9219C49.8223 31.8441 49.6331 31.2345 49.5898 31.0933C49.5488 30.952 49.5192 30.8403 49.501 30.7583C49.4258 31.05 49.2104 31.7712 48.855 32.9219H50.1572ZM22.7041 45L22.3418 43.8105H20.52L20.1577 45H19.0161L20.7798 39.9824H22.0752L23.8457 45H22.7041ZM22.0889 42.9219C21.7539 41.8441 21.5648 41.2345 21.5215 41.0933C21.4805 40.952 21.4508 40.8403 21.4326 40.7583C21.3574 41.05 21.1421 41.7712 20.7866 42.9219H22.0889ZM24.478 40.0029H26.0332C26.7419 40.0029 27.2557 40.1043 27.5747 40.3071C27.896 40.5076 28.0566 40.8278 28.0566 41.2676C28.0566 41.5661 27.986 41.811 27.8447 42.0024C27.7057 42.1938 27.52 42.3089 27.2876 42.3477V42.3818C27.6043 42.4525 27.8322 42.5846 27.9712 42.7783C28.1125 42.972 28.1831 43.2295 28.1831 43.5508C28.1831 44.0065 28.0179 44.362 27.6875 44.6172C27.3594 44.8724 26.9128 45 26.3477 45H24.478V40.0029ZM25.5376 41.9819H26.1528C26.4399 41.9819 26.6473 41.9375 26.7749 41.8486C26.9048 41.7598 26.9697 41.6128 26.9697 41.4077C26.9697 41.2163 26.8991 41.0796 26.7578 40.9976C26.6188 40.9132 26.3978 40.8711 26.0947 40.8711H25.5376V41.9819ZM25.5376 42.8228V44.125H26.228C26.5197 44.125 26.735 44.0692 26.874 43.9575C27.013 43.8459 27.0825 43.675 27.0825 43.4448C27.0825 43.0301 26.7863 42.8228 26.1938 42.8228H25.5376ZM32.0591 45H29.1812V40.0029H32.0591V40.8711H30.2407V41.9683H31.9326V42.8364H30.2407V44.125H32.0591V45ZM34.1646 42.2212H34.5063C34.8413 42.2212 35.0885 42.1654 35.248 42.0537C35.4076 41.9421 35.4873 41.7666 35.4873 41.5273C35.4873 41.2904 35.4053 41.1217 35.2412 41.0215C35.0794 40.9212 34.8276 40.8711 34.4858 40.8711H34.1646V42.2212ZM34.1646 43.0825V45H33.105V40.0029H34.561C35.2401 40.0029 35.7425 40.1271 36.0684 40.3755C36.3942 40.6216 36.5571 40.9964 36.5571 41.5C36.5571 41.7939 36.4762 42.056 36.3145 42.2861C36.1527 42.514 35.9237 42.6929 35.6274 42.8228C36.3794 43.9461 36.8693 44.6719 37.0972 45H35.9214L34.7285 43.0825H34.1646ZM39.6538 45H38.5942V40.8848H37.2373V40.0029H41.0107V40.8848H39.6538V45ZM44.8389 45L44.4766 43.8105H42.6548L42.2925 45H41.1509L42.9146 39.9824H44.21L45.9805 45H44.8389ZM44.2236 42.9219C43.8887 41.8441 43.6995 41.2345 43.6562 41.0933C43.6152 40.952 43.5856 40.8403 43.5674 40.7583C43.4922 41.05 43.2769 41.7712 42.9214 42.9219H44.2236Z" fill="#503F3F"/>
<defs>
<linearGradient id="paint0_linear_738_2085" x1="31.8532" y1="-12" x2="32" y2="35" gradientUnits="userSpaceOnUse">
<stop stop-color="white"/>
<stop offset="1" stop-color="white" stop-opacity="0"/>
</linearGradient>
</defs>
</svg>
