<svg width="64" height="64" viewBox="0 0 64 64" fill="none" xmlns="http://www.w3.org/2000/svg">
<path d="M34.5377 4.00287C34.1643 3.96736 33.8509 4.26627 33.7123 4.61475C33.4184 5.35358 32.6968 5.87585 31.8532 5.87585C31.0096 5.87585 30.2881 5.35359 29.9941 4.61476C29.8555 4.26628 29.5421 3.96736 29.1688 4.00287C28.7946 4.03846 28.5462 4.39211 28.4764 4.76142C28.3287 5.54255 27.7201 6.19268 26.8922 6.35361C26.0624 6.51489 25.2528 6.13806 24.824 5.46633C24.6221 5.15006 24.2579 4.91563 23.8981 5.02206C23.538 5.12857 23.3618 5.5233 23.3647 5.8988C23.3709 6.69565 22.8971 7.45255 22.1135 7.76918C21.4109 8.05302 20.6418 7.90933 20.0945 7.46051C19.7007 7.13762 19.153 6.90991 18.7036 7.14941C18.2549 7.38849 18.1397 7.96773 18.1872 8.47385C18.2535 9.17881 17.9426 9.89711 17.3142 10.3209C16.6153 10.7924 15.7256 10.7632 15.0689 10.3158C14.7585 10.1043 14.3317 10.0311 14.042 10.2702C13.7526 10.509 13.7435 10.9411 13.8918 11.2858C14.2058 12.0159 14.0647 12.8948 13.4685 13.491C12.8116 14.1479 11.8116 14.2523 11.0456 13.8044C10.8368 13.6823 10.5593 13.6919 10.4037 13.8771C10.248 14.0625 10.2866 14.3378 10.4432 14.5224C11.0173 15.199 11.088 16.202 10.5553 16.9628C10.0217 17.7249 9.05297 18.0011 8.22003 17.6909C7.99343 17.6065 7.7219 17.6637 7.6008 17.8729C7.4795 18.0826 7.56552 18.3472 7.7522 18.5015C8.43725 19.0678 8.68234 20.0448 8.28923 20.8878C8.00568 21.4959 7.45534 21.8944 6.84258 22.009C6.21127 22.127 5.49747 22.3776 5.2937 22.9866C5.09 23.5955 5.50758 24.23 5.94064 24.704C6.36115 25.1643 6.5609 25.8139 6.42139 26.4702C6.26409 27.2102 5.71627 27.767 5.03951 27.9705C4.55162 28.1172 4.05717 28.4407 4.00451 28.9475C3.95197 29.453 4.36687 29.8764 4.81265 30.1206C5.43275 30.4603 5.85321 31.119 5.85321 31.8759C5.85321 32.5455 5.52408 33.1383 5.01875 33.5013C4.49778 33.8755 3.95906 34.4108 4.03094 35.0482C4.103 35.6872 4.74908 36.0803 5.3422 36.3288C5.91559 36.5691 6.36904 37.0724 6.51957 37.7243C6.69018 38.4633 6.42727 39.2012 5.89734 39.6716C5.5168 40.0093 5.20632 40.5145 5.37196 40.9956C5.53762 41.4768 6.09231 41.6808 6.60016 41.7126C7.30728 41.757 7.96869 42.1766 8.2892 42.864C8.68231 43.707 8.43722 44.684 7.75217 45.2502C7.56552 45.4045 7.47952 45.6692 7.6008 45.8788C7.72189 46.088 7.99339 46.1452 8.21996 46.0608C9.05292 45.7506 10.0217 46.0268 10.5552 46.7888C11.088 47.5497 11.0173 48.5527 10.4432 49.2293C10.2865 49.4139 10.2479 49.6892 10.4037 49.8745C10.5593 50.0598 10.8367 50.0694 11.0455 49.9472C11.8115 49.4993 12.8116 49.6037 13.4684 50.2606C14.0646 50.8568 14.2057 51.7357 13.8918 52.4657C13.7435 52.8105 13.7526 53.2427 14.0421 53.4816C14.3318 53.7207 14.7586 53.6474 15.0691 53.4359C15.7258 52.9886 16.6153 52.9595 17.3142 53.4309C17.9426 53.8547 18.2535 54.573 18.1873 55.2779C18.1397 55.784 18.255 56.3633 18.7037 56.6023C19.1531 56.8418 19.7008 56.6142 20.0946 56.2913C20.6419 55.8426 21.411 55.6989 22.1134 55.9827C22.8971 56.2993 23.3708 57.0562 23.3647 57.8529C23.3618 58.2284 23.538 58.6232 23.8981 58.7297C24.2579 58.8361 24.6221 58.6017 24.8241 58.2854C25.2529 57.6137 26.0624 57.2369 26.8922 57.3982C27.72 57.5591 28.3286 58.2092 28.4763 58.9903C28.5462 59.3596 28.7946 59.7132 29.1687 59.7488C29.5421 59.7843 29.8555 59.4854 29.9942 59.1369C30.2881 58.3981 31.0096 57.8759 31.8532 57.8759C32.6968 57.8759 33.4184 58.3981 33.7123 59.1369C33.8509 59.4854 34.1643 59.7843 34.5377 59.7488C34.9118 59.7132 35.1602 59.3596 35.2301 58.9903C35.3778 58.2092 35.9864 57.5591 36.8142 57.3982C37.644 57.2369 38.4535 57.6137 38.8823 58.2854C39.0843 58.6017 39.4485 58.8361 39.8083 58.7297C40.1684 58.6231 40.3446 58.2284 40.3418 57.8529C40.3357 57.0561 40.8094 56.2993 41.593 55.9827C42.2955 55.6989 43.0645 55.8426 43.6119 56.2913C44.0057 56.6141 44.5534 56.8418 45.0028 56.6023C45.4514 56.3632 45.5667 55.784 45.5192 55.2779C45.453 54.5729 45.7639 53.8547 46.3922 53.4309C47.0911 52.9595 47.9807 52.9886 48.6374 53.4359C48.9479 53.6474 49.3746 53.7207 49.6644 53.4815C49.9538 53.2426 49.963 52.8105 49.8147 52.4657C49.5007 51.7357 49.6418 50.8568 50.238 50.2606C50.8949 49.6037 51.8949 49.4993 52.6609 49.9472C52.8697 50.0694 53.1472 50.0598 53.3028 49.8746C53.4585 49.6892 53.4199 49.4139 53.2633 49.2293C52.6891 48.5527 52.6184 47.5497 53.1512 46.7888C53.6847 46.0268 54.6535 45.7506 55.4865 46.0608C55.713 46.1452 55.9845 46.088 56.1056 45.8788C56.2269 45.6692 56.1409 45.4045 55.9543 45.2502C55.2692 44.684 55.0241 43.707 55.4172 42.864C55.7008 42.2559 56.2511 41.8574 56.8638 41.7428C57.4951 41.6248 58.2089 41.3742 58.4127 40.7651C58.6164 40.1562 58.1988 39.5217 57.7658 39.0477C57.3453 38.5874 57.1456 37.9379 57.2851 37.2816C57.4424 36.5416 57.9902 35.9849 58.6669 35.7813C59.1548 35.6346 59.6492 35.311 59.7019 34.8043C59.7545 34.2987 59.3395 33.8753 58.8937 33.6311C58.2737 33.2914 57.8532 32.6327 57.8532 31.8759C57.8532 31.2063 58.1823 30.6135 58.6875 30.2505C59.2085 29.8762 59.7474 29.3408 59.6755 28.7033C59.6034 28.0642 58.9572 27.6709 58.364 27.4223C57.7907 27.1821 57.3373 26.6788 57.1868 26.0269C57.0162 25.2878 57.2792 24.5499 57.8092 24.0796C58.1896 23.742 58.5 23.2368 58.3344 22.7559C58.1688 22.2749 57.6143 22.071 57.1065 22.0392C56.3993 21.9948 55.7378 21.5752 55.4172 20.8878C55.0241 20.0448 55.2692 19.0678 55.9542 18.5015C56.1409 18.3472 56.2269 18.0826 56.1056 17.8729C55.9845 17.6636 55.713 17.6065 55.4864 17.6909C54.6534 18.0011 53.6847 17.7249 53.1511 16.9628C52.6184 16.2019 52.6891 15.199 53.2632 14.5224C53.4199 14.3378 53.4585 14.0625 53.3027 13.8771C53.1471 13.6919 52.8697 13.6823 52.6609 13.8044C51.8949 14.2523 50.8948 14.1479 50.238 13.491C49.6418 12.8948 49.5007 12.0159 49.8147 11.2859C49.9629 10.9411 49.9538 10.5091 49.6644 10.2702C49.3747 10.0311 48.948 10.1043 48.6375 10.3158C47.9808 10.7632 47.0912 10.7924 46.3923 10.3209C45.7639 9.89711 45.4529 9.17882 45.5192 8.47387C45.5668 7.96774 45.4515 7.3885 45.0029 7.14942C44.5535 6.90992 44.0057 7.13763 43.612 7.46052C43.0646 7.90933 42.2955 8.05301 41.593 7.76918C40.8093 7.45255 40.3356 6.69568 40.3417 5.89884C40.3446 5.52333 40.1685 5.12857 39.8083 5.02206C39.4485 4.91563 39.0843 5.15007 38.8824 5.46635C38.4535 6.13807 37.644 6.51489 36.8142 6.35361C35.9863 6.19268 35.3777 5.54254 35.23 4.7614C35.1602 4.3921 34.9118 4.03846 34.5377 4.00287Z" fill="#EC5A29"/>
<g style="mix-blend-mode:overlay">
<path d="M47 21H17.2778L10.3333 30.7222L32 51L53.6667 30.7222L47 21Z" stroke="black" stroke-width="2.22222" stroke-linejoin="round"/>
<path d="M25.6111 21L23.1111 30.7222L32 50.7222" stroke="black" stroke-width="2.22222" stroke-linejoin="round"/>
<g style="mix-blend-mode:overlay">
<path d="M11 31H53.5" stroke="black" stroke-width="2.22" stroke-linejoin="bevel"/>
</g>
<path d="M38.3889 21L40.8889 30.7222L32.5556 49.8889" stroke="black" stroke-width="2.22222" stroke-linejoin="round"/>
</g>
<g style="mix-blend-mode:overlay" opacity="0.9">
<path d="M34.5377 4.00287C34.1643 3.96736 33.8509 4.26627 33.7123 4.61475C33.4184 5.35358 32.6968 5.87585 31.8532 5.87585C31.0096 5.87585 30.2881 5.35359 29.9941 4.61476C29.8555 4.26628 29.5421 3.96736 29.1688 4.00287C28.7946 4.03846 28.5462 4.39211 28.4764 4.76142C28.3287 5.54255 27.7201 6.19268 26.8922 6.35361C26.0624 6.51489 25.2528 6.13806 24.824 5.46633C24.6221 5.15006 24.2579 4.91563 23.8981 5.02206C23.538 5.12857 23.3618 5.5233 23.3647 5.8988C23.3709 6.69565 22.8971 7.45255 22.1135 7.76918C21.4109 8.05302 20.6418 7.90933 20.0945 7.46051C19.7007 7.13762 19.153 6.90991 18.7036 7.14941C18.2549 7.38849 18.1397 7.96773 18.1872 8.47385C18.2535 9.17881 17.9426 9.89711 17.3142 10.3209C16.6153 10.7924 15.7256 10.7632 15.0689 10.3158C14.7585 10.1043 14.3317 10.0311 14.042 10.2702C13.7526 10.509 13.7435 10.9411 13.8918 11.2858C14.2058 12.0159 14.0647 12.8948 13.4685 13.491C12.8116 14.1479 11.8116 14.2523 11.0456 13.8044C10.8368 13.6823 10.5593 13.6919 10.4037 13.8771C10.248 14.0625 10.2866 14.3378 10.4432 14.5224C11.0173 15.199 11.088 16.202 10.5553 16.9628C10.0217 17.7249 9.05297 18.0011 8.22003 17.6909C7.99343 17.6065 7.7219 17.6637 7.6008 17.8729C7.4795 18.0826 7.56552 18.3472 7.7522 18.5015C8.43725 19.0678 8.68234 20.0448 8.28923 20.8878C8.00568 21.4959 7.45534 21.8944 6.84258 22.009C6.21127 22.127 5.49747 22.3776 5.2937 22.9866C5.09 23.5955 5.50758 24.23 5.94064 24.704C6.36115 25.1643 6.5609 25.8139 6.42139 26.4702C6.26409 27.2102 5.71627 27.767 5.03951 27.9705C4.55162 28.1172 4.05717 28.4407 4.00451 28.9475C3.95197 29.453 4.36687 29.8764 4.81265 30.1206C5.43275 30.4603 5.85321 31.119 5.85321 31.8759C5.85321 32.5455 5.52408 33.1383 5.01875 33.5013C4.49778 33.8755 3.95906 34.4108 4.03094 35.0482C4.103 35.6872 4.74908 36.0803 5.3422 36.3288C5.91559 36.5691 6.36904 37.0724 6.51957 37.7243C6.69018 38.4633 6.42727 39.2012 5.89734 39.6716C5.5168 40.0093 5.20632 40.5145 5.37196 40.9956C5.53762 41.4768 6.09231 41.6808 6.60016 41.7126C7.30728 41.757 7.96869 42.1766 8.2892 42.864C8.68231 43.707 8.43722 44.684 7.75217 45.2502C7.56552 45.4045 7.47952 45.6692 7.6008 45.8788C7.72189 46.088 7.99339 46.1452 8.21996 46.0608C9.05292 45.7506 10.0217 46.0268 10.5552 46.7888C11.088 47.5497 11.0173 48.5527 10.4432 49.2293C10.2865 49.4139 10.2479 49.6892 10.4037 49.8745C10.5593 50.0598 10.8367 50.0694 11.0455 49.9472C11.8115 49.4993 12.8116 49.6037 13.4684 50.2606C14.0646 50.8568 14.2057 51.7357 13.8918 52.4657C13.7435 52.8105 13.7526 53.2427 14.0421 53.4816C14.3318 53.7207 14.7586 53.6474 15.0691 53.4359C15.7258 52.9886 16.6153 52.9595 17.3142 53.4309C17.9426 53.8547 18.2535 54.573 18.1873 55.2779C18.1397 55.784 18.255 56.3633 18.7037 56.6023C19.1531 56.8418 19.7008 56.6142 20.0946 56.2913C20.6419 55.8426 21.411 55.6989 22.1134 55.9827C22.8971 56.2993 23.3708 57.0562 23.3647 57.8529C23.3618 58.2284 23.538 58.6232 23.8981 58.7297C24.2579 58.8361 24.6221 58.6017 24.8241 58.2854C25.2529 57.6137 26.0624 57.2369 26.8922 57.3982C27.72 57.5591 28.3286 58.2092 28.4763 58.9903C28.5462 59.3596 28.7946 59.7132 29.1687 59.7488C29.5421 59.7843 29.8555 59.4854 29.9942 59.1369C30.2881 58.3981 31.0096 57.8759 31.8532 57.8759C32.6968 57.8759 33.4184 58.3981 33.7123 59.1369C33.8509 59.4854 34.1643 59.7843 34.5377 59.7488C34.9118 59.7132 35.1602 59.3596 35.2301 58.9903C35.3778 58.2092 35.9864 57.5591 36.8142 57.3982C37.644 57.2369 38.4535 57.6137 38.8823 58.2854C39.0843 58.6017 39.4485 58.8361 39.8083 58.7297C40.1684 58.6231 40.3446 58.2284 40.3418 57.8529C40.3357 57.0561 40.8094 56.2993 41.593 55.9827C42.2955 55.6989 43.0645 55.8426 43.6119 56.2913C44.0057 56.6141 44.5534 56.8418 45.0028 56.6023C45.4514 56.3632 45.5667 55.784 45.5192 55.2779C45.453 54.5729 45.7639 53.8547 46.3922 53.4309C47.0911 52.9595 47.9807 52.9886 48.6374 53.4359C48.9479 53.6474 49.3746 53.7207 49.6644 53.4815C49.9538 53.2426 49.963 52.8105 49.8147 52.4657C49.5007 51.7357 49.6418 50.8568 50.238 50.2606C50.8949 49.6037 51.8949 49.4993 52.6609 49.9472C52.8697 50.0694 53.1472 50.0598 53.3028 49.8746C53.4585 49.6892 53.4199 49.4139 53.2633 49.2293C52.6891 48.5527 52.6184 47.5497 53.1512 46.7888C53.6847 46.0268 54.6535 45.7506 55.4865 46.0608C55.713 46.1452 55.9845 46.088 56.1056 45.8788C56.2269 45.6692 56.1409 45.4045 55.9543 45.2502C55.2692 44.684 55.0241 43.707 55.4172 42.864C55.7008 42.2559 56.2511 41.8574 56.8638 41.7428C57.4951 41.6248 58.2089 41.3742 58.4127 40.7651C58.6164 40.1562 58.1988 39.5217 57.7658 39.0477C57.3453 38.5874 57.1456 37.9379 57.2851 37.2816C57.4424 36.5416 57.9902 35.9849 58.6669 35.7813C59.1548 35.6346 59.6492 35.311 59.7019 34.8043C59.7545 34.2987 59.3395 33.8753 58.8937 33.6311C58.2737 33.2914 57.8532 32.6327 57.8532 31.8759C57.8532 31.2063 58.1823 30.6135 58.6875 30.2505C59.2085 29.8762 59.7474 29.3408 59.6755 28.7033C59.6034 28.0642 58.9572 27.6709 58.364 27.4223C57.7907 27.1821 57.3373 26.6788 57.1868 26.0269C57.0162 25.2878 57.2792 24.5499 57.8092 24.0796C58.1896 23.742 58.5 23.2368 58.3344 22.7559C58.1688 22.2749 57.6143 22.071 57.1065 22.0392C56.3993 21.9948 55.7378 21.5752 55.4172 20.8878C55.0241 20.0448 55.2692 19.0678 55.9542 18.5015C56.1409 18.3472 56.2269 18.0826 56.1056 17.8729C55.9845 17.6636 55.713 17.6065 55.4864 17.6909C54.6534 18.0011 53.6847 17.7249 53.1511 16.9628C52.6184 16.2019 52.6891 15.199 53.2632 14.5224C53.4199 14.3378 53.4585 14.0625 53.3027 13.8771C53.1471 13.6919 52.8697 13.6823 52.6609 13.8044C51.8949 14.2523 50.8948 14.1479 50.238 13.491C49.6418 12.8948 49.5007 12.0159 49.8147 11.2859C49.9629 10.9411 49.9538 10.5091 49.6644 10.2702C49.3747 10.0311 48.948 10.1043 48.6375 10.3158C47.9808 10.7632 47.0912 10.7924 46.3923 10.3209C45.7639 9.89711 45.4529 9.17882 45.5192 8.47387C45.5668 7.96774 45.4515 7.3885 45.0029 7.14942C44.5535 6.90992 44.0057 7.13763 43.612 7.46052C43.0646 7.90933 42.2955 8.05301 41.593 7.76918C40.8093 7.45255 40.3356 6.69568 40.3417 5.89884C40.3446 5.52333 40.1685 5.12857 39.8083 5.02206C39.4485 4.91563 39.0843 5.15007 38.8824 5.46635C38.4535 6.13807 37.644 6.51489 36.8142 6.35361C35.9863 6.19268 35.3777 5.54254 35.23 4.7614C35.1602 4.3921 34.9118 4.03846 34.5377 4.00287Z" fill="url(#paint0_linear_1533_15)" fill-opacity="0.6"/>
</g>
<path d="M16.5836 27.625V30H15.9195V24.2891H17.4859C18.1864 24.2891 18.7034 24.4232 19.0367 24.6914C19.3726 24.9596 19.5406 25.3633 19.5406 25.9023C19.5406 26.6576 19.1578 27.168 18.3922 27.4336L19.9429 30H19.1578L17.775 27.625H16.5836ZM16.5836 27.0547H17.4937C17.9625 27.0547 18.3062 26.9622 18.525 26.7773C18.7437 26.5898 18.8531 26.3099 18.8531 25.9375C18.8531 25.5599 18.7411 25.2878 18.5172 25.1211C18.2958 24.9544 17.939 24.8711 17.4469 24.8711H16.5836V27.0547ZM24.6234 30H21.4398V24.2891H24.6234V24.8789H22.1039V26.7188H24.4711V27.3047H22.1039V29.4062H24.6234V30ZM29.7297 24.2891H30.4445L28.3859 30H27.7297L25.6828 24.2891H26.3859L27.6984 27.9844C27.8495 28.4089 27.9693 28.8216 28.0578 29.2227C28.1515 28.8008 28.2739 28.3802 28.425 27.9609L29.7297 24.2891ZM31.8086 30V24.2891H32.4726V30H31.8086ZM37.8406 28.4805C37.8406 28.9831 37.6583 29.375 37.2937 29.6562C36.9291 29.9375 36.4344 30.0781 35.8094 30.0781C35.1323 30.0781 34.6114 29.9909 34.2469 29.8164V29.1758C34.4812 29.2747 34.7364 29.3529 35.0125 29.4102C35.2885 29.4674 35.562 29.4961 35.8328 29.4961C36.2755 29.4961 36.6088 29.4128 36.8328 29.2461C37.0568 29.0768 37.1687 28.8424 37.1687 28.543C37.1687 28.3451 37.1284 28.1836 37.0476 28.0586C36.9695 27.931 36.8367 27.8138 36.6492 27.707C36.4643 27.6003 36.1818 27.4792 35.8015 27.3438C35.2703 27.1536 34.8901 26.9284 34.6609 26.668C34.4344 26.4076 34.3211 26.0677 34.3211 25.6484C34.3211 25.2083 34.4864 24.8581 34.8172 24.5977C35.1479 24.3372 35.5854 24.207 36.1297 24.207C36.6974 24.207 37.2195 24.3112 37.6961 24.5195L37.489 25.0977C37.0177 24.8997 36.5594 24.8008 36.114 24.8008C35.7625 24.8008 35.4877 24.8763 35.2898 25.0273C35.0919 25.1784 34.9929 25.388 34.9929 25.6562C34.9929 25.8542 35.0294 26.0169 35.1023 26.1445C35.1752 26.2695 35.2976 26.3854 35.4695 26.4922C35.644 26.5964 35.9096 26.7122 36.2664 26.8398C36.8653 27.0534 37.2768 27.2826 37.5008 27.5273C37.7273 27.7721 37.8406 28.0898 37.8406 28.4805ZM41.3414 30H40.6773V24.8789H38.8687V24.2891H43.15V24.8789H41.3414V30ZM48.1781 30L47.4672 28.1836H45.1781L44.475 30H43.8031L46.0609 24.2656H46.6195L48.8656 30H48.1781ZM47.2601 27.5859L46.5961 25.8164C46.5101 25.5924 46.4216 25.3177 46.3304 24.9922C46.2732 25.2422 46.1911 25.5169 46.0844 25.8164L45.4125 27.5859H47.2601ZM15.8749 37.0898C15.8749 38.0299 15.6067 38.75 15.0702 39.25C14.5363 39.75 13.7642 40 12.7538 40H11.1366V34.2891H12.9296C13.8619 34.2891 14.5858 34.5352 15.1014 35.0273C15.6171 35.5195 15.8749 36.207 15.8749 37.0898ZM14.6171 37.1211C14.6171 35.8945 14.0754 35.2812 12.9921 35.2812H12.3475V39H12.8671C14.0337 39 14.6171 38.3737 14.6171 37.1211ZM17.1121 40V34.2891H18.323V40H17.1121ZM23.3102 40L22.8961 38.6406H20.8141L20.4 40H19.0954L21.111 34.2656H22.5915L24.6149 40H23.3102ZM22.6071 37.625C22.2243 36.3932 22.0081 35.6966 21.9586 35.5352C21.9118 35.3737 21.8779 35.2461 21.8571 35.1523C21.7711 35.4857 21.525 36.3099 21.1188 37.625H22.6071ZM27.8091 40L26.4341 35.5195H26.399C26.4484 36.431 26.4732 37.0391 26.4732 37.3438V40H25.3911V34.2891H27.0396L28.3911 38.6562H28.4146L29.8482 34.2891H31.4966V40H30.3677V37.2969C30.3677 37.1693 30.369 37.0221 30.3716 36.8555C30.3768 36.6888 30.3951 36.2461 30.4263 35.5273H30.3911L28.9185 40H27.8091ZM36.4877 40L36.0737 38.6406H33.9916L33.5776 40H32.2729L34.2885 34.2656H35.769L37.7924 40H36.4877ZM35.7846 37.625C35.4018 36.3932 35.1856 35.6966 35.1362 35.5352C35.0893 35.3737 35.0554 35.2461 35.0346 35.1523C34.9487 35.4857 34.7026 36.3099 34.2963 37.625H35.7846ZM43.6351 40H42.096L39.6116 35.6797H39.5765C39.626 36.4427 39.6507 36.987 39.6507 37.3125V40H38.5687V34.2891H40.096L42.5765 38.5664H42.6038C42.5648 37.8242 42.5452 37.2995 42.5452 36.9922V34.2891H43.6351V40ZM47.3332 40H46.1223V35.2969H44.5715V34.2891H48.884V35.2969H47.3332V40ZM53.1055 40H49.8165V34.2891H53.1055V35.2812H51.0274V36.5352H52.961V37.5273H51.0274V39H53.1055V40Z" fill="white"/>
<defs>
<linearGradient id="paint0_linear_1533_15" x1="31.8532" y1="-12" x2="32" y2="35" gradientUnits="userSpaceOnUse">
<stop stop-color="white"/>
<stop offset="1" stop-color="white" stop-opacity="0"/>
</linearGradient>
</defs>
</svg>
