<svg width="112" height="112" viewBox="0 0 112 112" fill="none" xmlns="http://www.w3.org/2000/svg">
<path d="M60.4409 7.00503C59.7875 6.94288 59.2391 7.46597 58.9965 8.07581C58.4822 9.36877 57.2194 10.2827 55.7431 10.2827C54.2669 10.2827 53.0041 9.36878 52.4897 8.07583C52.2472 7.46598 51.6987 6.94288 51.0453 7.00503C50.3905 7.06731 49.9559 7.68619 49.8337 8.33248C49.5752 9.69946 48.5101 10.8372 47.0613 11.1188C45.6092 11.4011 44.1925 10.7416 43.442 9.56607C43.0887 9.01261 42.4513 8.60236 41.8216 8.7886C41.1915 8.97499 40.8832 9.66578 40.8883 10.3229C40.899 11.7174 40.07 13.042 38.6986 13.5961C37.4691 14.0928 36.1232 13.8413 35.1654 13.0559C34.4762 12.4908 33.5177 12.0923 32.7312 12.5115C31.9461 12.9299 31.7444 13.9435 31.8277 14.8292C31.9437 16.0629 31.3995 17.3199 30.2999 18.0616C29.0767 18.8867 27.5198 18.8356 26.3706 18.0527C25.8273 17.6825 25.0806 17.5544 24.5735 17.9728C24.0671 18.3908 24.0511 19.147 24.3106 19.7502C24.8601 21.0278 24.6132 22.566 23.5698 23.6093C22.4203 24.7588 20.6703 24.9416 19.3298 24.1577C18.9643 23.944 18.4788 23.9608 18.2065 24.285C17.9339 24.6094 18.0015 25.0912 18.2756 25.4143C19.2802 26.5983 19.4041 28.3534 18.4717 29.685C17.538 31.0185 15.8427 31.5019 14.385 30.959C13.9885 30.8113 13.5133 30.9114 13.3014 31.2777C13.0891 31.6445 13.2397 32.1077 13.5663 32.3777C14.7652 33.3686 15.1941 35.0784 14.5061 36.5537C14.0099 37.6178 13.0468 38.3152 11.9745 38.5157C10.8697 38.7223 9.62057 39.1607 9.26398 40.2266C8.9075 41.2922 9.63826 42.4025 10.3961 43.2321C11.132 44.0376 11.4816 45.1743 11.2374 46.3228C10.9622 47.6179 10.0035 48.5922 8.81914 48.9484C7.96534 49.2052 7.10005 49.7713 7.00789 50.6581C6.91595 51.5428 7.64203 52.2837 8.42215 52.711C9.50732 53.3054 10.2431 54.4582 10.2431 55.7827C10.2431 56.9547 9.66714 57.9921 8.78281 58.6273C7.87112 59.2822 6.92836 60.2188 7.05414 61.3343C7.18024 62.4526 8.31089 63.1406 9.34885 63.5755C10.3523 63.9959 11.1458 64.8766 11.4092 66.0176C11.7078 67.3108 11.2477 68.6021 10.3203 69.4252C9.6544 70.0163 9.11106 70.9005 9.40093 71.7423C9.69084 72.5843 10.6615 72.9413 11.5503 72.9971C12.7877 73.0748 13.9452 73.8091 14.5061 75.0119C15.194 76.4873 14.7651 78.197 13.5663 79.1879C13.2397 79.4579 13.0892 79.921 13.3014 80.2878C13.5133 80.6541 13.9884 80.7541 14.3849 80.6064C15.8426 80.0635 17.5379 80.5469 18.4717 81.8804C19.404 83.212 19.2802 84.9672 18.2755 86.1512C18.0014 86.4743 17.9339 86.956 18.2064 87.2805C18.4787 87.6046 18.9642 87.6214 19.3297 87.4077C20.6702 86.6238 22.4203 86.8065 23.5698 87.956C24.6131 88.9994 24.86 90.5375 24.3106 91.815C24.0511 92.4184 24.0671 93.1747 24.5736 93.5927C25.0807 94.0112 25.8275 93.883 26.3709 93.5129C27.5201 92.7301 29.0768 92.6791 30.2999 93.5041C31.3995 94.2457 31.9436 95.5027 31.8277 96.7363C31.7445 97.622 31.9463 98.6357 32.7314 99.0541C33.5178 99.4732 34.4764 99.0748 35.1655 98.5098C36.1234 97.7245 37.4692 97.4731 38.6985 97.9698C40.0699 98.5239 40.8989 99.8483 40.8882 101.243C40.8832 101.9 41.1915 102.591 41.8217 102.777C42.4513 102.963 43.0888 102.553 43.4421 101.999C44.1926 100.824 45.6093 100.165 47.0613 100.447C48.5101 100.729 49.5751 101.866 49.8336 103.233C49.9558 103.879 50.3905 104.498 51.0453 104.56C51.6987 104.623 52.2472 104.099 52.4898 103.49C53.0041 102.197 54.2669 101.283 55.7431 101.283C57.2194 101.283 58.4822 102.197 58.9965 103.49C59.2391 104.1 59.7875 104.623 60.4409 104.56C61.0957 104.498 61.5304 103.879 61.6526 103.233C61.9111 101.866 62.9761 100.729 64.4249 100.447C65.8769 100.165 67.2936 100.824 68.0441 101.999C68.3974 102.553 69.0349 102.963 69.6646 102.777C70.2948 102.591 70.6031 101.9 70.5981 101.243C70.5874 99.8482 71.4164 98.5238 72.7878 97.9698C74.0171 97.4731 75.3629 97.7245 76.3207 98.5098C77.0099 99.0748 77.9684 99.4732 78.7549 99.0541C79.54 98.6357 79.7418 97.622 79.6586 96.7362C79.5427 95.5027 80.0868 94.2457 81.1864 93.5041C82.4095 92.6791 83.9662 92.7301 85.1154 93.5129C85.6588 93.883 86.4056 94.0112 86.9127 93.5927C87.4192 93.1746 87.4352 92.4184 87.1757 91.815C86.6263 90.5375 86.8732 88.9994 87.9165 87.956C89.066 86.8065 90.8161 86.6238 92.1566 87.4077C92.5221 87.6214 93.0076 87.6046 93.2798 87.2805C93.5523 86.9561 93.4848 86.4743 93.2107 86.1512C92.206 84.9672 92.0821 83.212 93.0145 81.8804C93.9483 80.5469 95.6436 80.0635 97.1013 80.6065C97.4978 80.7542 97.9729 80.6541 98.1849 80.2878C98.3971 79.921 98.2466 79.4579 97.9199 79.1879C96.7211 78.197 96.2922 76.4873 96.9802 75.0119C97.4763 73.9479 98.4394 73.2505 99.5117 73.0499C100.617 72.8433 101.866 72.4049 102.222 71.339C102.579 70.2734 101.848 69.1631 101.09 68.3335C100.354 67.528 100.005 66.3913 100.249 65.2428C100.524 63.9478 101.483 62.9735 102.667 62.6173C103.521 62.3605 104.386 61.7943 104.478 60.9075C104.57 60.0227 103.844 59.2818 103.064 58.8544C101.979 58.26 101.243 57.1073 101.243 55.7827C101.243 54.611 101.819 53.5737 102.703 52.9384C103.615 52.2833 104.558 51.3465 104.432 50.2308C104.306 49.1123 103.175 48.4242 102.137 47.9891C101.134 47.5686 100.34 46.6879 100.077 45.5471C99.7783 44.2537 100.239 42.9623 101.166 42.1392C101.832 41.5484 102.375 40.6645 102.085 39.8228C101.795 38.9811 100.825 38.6242 99.9364 38.5685C98.6988 38.491 97.5411 37.7567 96.9801 36.5537C96.2922 35.0784 96.7211 33.3686 97.9199 32.3777C98.2466 32.1077 98.3971 31.6445 98.1849 31.2776C97.9729 30.9114 97.4977 30.8113 97.1012 30.959C95.6435 31.5019 93.9482 31.0185 93.0145 29.685C92.0821 28.3534 92.206 26.5982 93.2106 25.4142C93.4848 25.0912 93.5523 24.6094 93.2798 24.2849C93.0075 23.9608 92.522 23.944 92.1565 24.1577C90.816 24.9416 89.066 24.7588 87.9165 23.6093C86.8732 22.566 86.6262 21.0278 87.1757 19.7502C87.4352 19.147 87.4192 18.3908 86.9127 17.9728C86.4057 17.5544 85.659 17.6826 85.1157 18.0527C83.9664 18.8357 82.4096 18.8867 81.1864 18.0616C80.0868 17.3199 79.5427 16.0629 79.6586 14.8293C79.7419 13.9435 79.5402 12.9299 78.7551 12.5115C77.9686 12.0924 77.0101 12.4909 76.3209 13.0559C75.3631 13.8413 74.0171 14.0928 72.7877 13.5961C71.4163 13.042 70.5873 11.7174 70.598 10.323C70.6031 9.66582 70.2948 8.975 69.6646 8.7886C69.0349 8.60235 68.3975 9.01262 68.0441 9.56611C67.2937 10.7416 65.877 11.4011 64.4249 11.1188C62.976 10.8372 61.911 9.69944 61.6525 8.33245C61.5303 7.68617 61.0957 7.06731 60.4409 7.00503Z" fill="#E12229"/>
<g style="mix-blend-mode:overlay">
<path fill-rule="evenodd" clip-rule="evenodd" d="M51.193 27.5474C52.4814 26.822 53.9351 26.4409 55.4138 26.4409C56.8924 26.4409 58.3461 26.822 59.6346 27.5474C60.9231 28.2729 62.0028 29.3181 62.7697 30.5824L62.778 30.596L87.0683 71.1469L87.0916 71.1865C87.8428 72.4874 88.2403 73.9624 88.2445 75.4646C88.2487 76.9669 87.8595 78.444 87.1156 79.7492C86.3717 81.0543 85.299 82.1419 84.0042 82.9037C82.7095 83.6656 81.2378 84.0751 79.7357 84.0916L79.7041 84.092L31.0919 84.0918C29.5897 84.0753 28.1181 83.6656 26.8233 82.9037C25.5286 82.1419 24.4559 81.0543 23.712 79.7492C22.9681 78.444 22.5788 76.9669 22.583 75.4646C22.5872 73.9624 22.9847 72.4874 23.7359 71.1865L23.7592 71.1469L48.0496 30.596L50.5098 32.0697L48.0578 30.5824C48.8247 29.3181 49.9045 28.2729 51.193 27.5474ZM52.9653 33.5513L28.6935 74.0712C28.4492 74.5008 28.32 74.9863 28.3186 75.4807C28.3172 75.9814 28.447 76.4738 28.695 76.9089C28.9429 77.3439 29.3005 77.7064 29.7321 77.9604C30.1599 78.2121 30.6456 78.3485 31.1418 78.3562H79.6858C80.1819 78.3485 80.6677 78.2121 81.0955 77.9604C81.5271 77.7064 81.8846 77.3439 82.1326 76.9089C82.3806 76.4738 82.5103 75.9814 82.5089 75.4807C82.5075 74.9864 82.3784 74.5009 82.1342 74.0713L57.8658 33.557L57.8623 33.5513C57.6069 33.1325 57.2483 32.7861 56.8207 32.5454C56.3912 32.3036 55.9067 32.1765 55.4138 32.1765C54.9209 32.1765 54.4363 32.3036 54.0068 32.5454C53.5793 32.7861 53.2207 33.1325 52.9653 33.5513ZM55.4135 43.9423C56.9974 43.9423 58.2813 45.2262 58.2813 46.8101V58.2813C58.2813 59.8652 56.9974 61.1491 55.4135 61.1491C53.8297 61.1491 52.5457 59.8652 52.5457 58.2813V46.8101C52.5457 45.2262 53.8297 43.9423 55.4135 43.9423ZM55.4135 66.8845C53.8297 66.8845 52.5457 68.1685 52.5457 69.7523C52.5457 71.3362 53.8297 72.6201 55.4135 72.6201H55.4422C57.0261 72.6201 58.31 71.3362 58.31 69.7523C58.31 68.1685 57.0261 66.8845 55.4422 66.8845H55.4135Z" fill="black"/>
<path d="M51.193 27.5474L50.7637 26.785L50.7637 26.785L51.193 27.5474ZM59.6346 27.5474L59.2053 28.3099V28.3099L59.6346 27.5474ZM62.7697 30.5824L62.0216 31.0362L62.0217 31.0364L62.7697 30.5824ZM62.778 30.596L63.5286 30.1463L63.526 30.142L62.778 30.596ZM87.0683 71.1469L87.8226 70.7033L87.8189 70.6972L87.0683 71.1469ZM87.0916 71.1865L87.8494 70.7489L87.8458 70.7429L87.0916 71.1865ZM88.2445 75.4646L87.3695 75.4671V75.4671L88.2445 75.4646ZM87.1156 79.7492L87.8758 80.1825L87.1156 79.7492ZM84.0042 82.9037L84.448 83.6579V83.6579L84.0042 82.9037ZM79.7357 84.0916L79.726 83.2167H79.7259L79.7357 84.0916ZM79.7041 84.092L79.7041 84.967L79.7139 84.9669L79.7041 84.092ZM31.0919 84.0918L31.0823 84.9668H31.0919L31.0919 84.0918ZM26.8233 82.9037L26.3796 83.6579H26.3796L26.8233 82.9037ZM23.712 79.7492L24.4722 79.3159H24.4722L23.712 79.7492ZM22.583 75.4646L21.708 75.4622L22.583 75.4646ZM23.7359 71.1865L22.9817 70.7429L22.9782 70.7489L23.7359 71.1865ZM23.7592 71.1469L23.0086 70.6972L23.005 70.7033L23.7592 71.1469ZM48.0496 30.596L48.4993 29.8454C48.0847 29.5971 47.5473 29.7318 47.299 30.1464L48.0496 30.596ZM50.5098 32.0697L50.0601 32.8203C50.4739 33.0681 51.0102 32.9344 51.2591 32.5214C51.5081 32.1083 51.3759 31.5717 50.9636 31.3215L50.5098 32.0697ZM48.0578 30.5824L47.3097 30.1286C47.0591 30.5418 47.1909 31.0799 47.604 31.3305L48.0578 30.5824ZM28.6935 74.0712L27.9428 73.6215C27.9394 73.6272 27.9361 73.6329 27.9328 73.6387L28.6935 74.0712ZM52.9653 33.5513L52.2182 33.0958L52.2146 33.1017L52.9653 33.5513ZM28.3186 75.4807L29.1936 75.4831L28.3186 75.4807ZM28.695 76.9089L29.4551 76.4756L29.4551 76.4756L28.695 76.9089ZM29.7321 77.9604L30.1758 77.2063L30.1758 77.2063L29.7321 77.9604ZM31.1418 78.3562L31.1281 79.2312H31.1418V78.3562ZM79.6858 78.3562V79.2313L79.6994 79.2311L79.6858 78.3562ZM81.0955 77.9604L80.6517 77.2063L80.6517 77.2063L81.0955 77.9604ZM82.1326 76.9089L81.3724 76.4756V76.4756L82.1326 76.9089ZM82.5089 75.4807L83.3839 75.4782V75.4782L82.5089 75.4807ZM82.1342 74.0713L82.8948 73.6389C82.8916 73.6331 82.8882 73.6274 82.8848 73.6217L82.1342 74.0713ZM57.8658 33.557L58.6164 33.1074L58.6133 33.1023L57.8658 33.557ZM57.8623 33.5513L58.6098 33.0966L58.6094 33.0958L57.8623 33.5513ZM56.8207 32.5454L56.3914 33.3078V33.3078L56.8207 32.5454ZM54.0068 32.5454L54.4361 33.3078L54.4361 33.3078L54.0068 32.5454ZM55.4138 25.5659C53.7847 25.5659 52.1832 25.9858 50.7637 26.785L51.6222 28.3099C52.7797 27.6583 54.0855 27.3159 55.4138 27.3159V25.5659ZM60.0639 26.785C58.6444 25.9858 57.0428 25.5659 55.4138 25.5659V27.3159C56.7421 27.3159 58.0479 27.6583 59.2053 28.3099L60.0639 26.785ZM63.5178 30.1286C62.673 28.7357 61.4834 27.5842 60.0639 26.785L59.2053 28.3099C60.3628 28.9615 61.3327 29.9005 62.0216 31.0362L63.5178 30.1286ZM63.526 30.142L63.5177 30.1284L62.0217 31.0364L62.03 31.05L63.526 30.142ZM87.8189 70.6972L63.5286 30.1464L62.0273 31.0456L86.3177 71.5965L87.8189 70.6972ZM87.8458 70.7429L87.8226 70.7033L86.3141 71.5904L86.3374 71.63L87.8458 70.7429ZM89.1195 75.4622C89.1149 73.8072 88.677 72.1822 87.8493 70.7489L86.3339 71.624C87.0087 72.7927 87.3657 74.1176 87.3695 75.4671L89.1195 75.4622ZM87.8758 80.1825C88.6953 78.7446 89.1242 77.1172 89.1195 75.4622L87.3695 75.4671C87.3733 76.8165 87.0237 78.1435 86.3554 79.3159L87.8758 80.1825ZM84.448 83.6579C85.8744 82.8185 87.0562 81.6203 87.8758 80.1825L86.3554 79.3159C85.6871 80.4883 84.7235 81.4652 83.5605 82.1496L84.448 83.6579ZM79.7453 84.9666C81.4002 84.9484 83.0216 84.4972 84.448 83.6579L83.5605 82.1496C82.3974 82.834 81.0754 83.2019 79.726 83.2167L79.7453 84.9666ZM79.7139 84.9669L79.7454 84.9666L79.7259 83.2167L79.6944 83.217L79.7139 84.9669ZM31.0919 84.9668L79.7041 84.967L79.7042 83.217L31.0919 83.2168L31.0919 84.9668ZM26.3796 83.6579C27.8059 84.4972 29.4273 84.9486 31.0823 84.9668L31.1015 83.2169C29.7522 83.202 28.4302 82.834 27.2671 82.1496L26.3796 83.6579ZM22.9518 80.1825C23.7714 81.6203 24.9532 82.8185 26.3796 83.6579L27.2671 82.1496C26.104 81.4652 25.1404 80.4883 24.4722 79.3159L22.9518 80.1825ZM21.708 75.4622C21.7034 77.1172 22.1322 78.7446 22.9518 80.1825L24.4722 79.3159C23.8039 78.1435 23.4543 76.8165 23.458 75.4671L21.708 75.4622ZM22.9782 70.7489C22.1506 72.1822 21.7127 73.8071 21.708 75.4622L23.458 75.4671C23.4618 74.1176 23.8189 72.7927 24.4937 71.624L22.9782 70.7489ZM23.005 70.7033L22.9817 70.7429L24.4902 71.6301L24.5135 71.5905L23.005 70.7033ZM47.299 30.1464L23.0086 70.6972L24.5099 71.5965L48.8003 31.0457L47.299 30.1464ZM50.9594 31.319L48.4993 29.8454L47.6 31.3466L50.0601 32.8203L50.9594 31.319ZM47.604 31.3305L50.056 32.8178L50.9636 31.3215L48.5116 29.8342L47.604 31.3305ZM50.7637 26.785C49.3442 27.5842 48.1546 28.7357 47.3097 30.1286L48.806 31.0362C49.4948 29.9005 50.4648 28.9615 51.6222 28.3099L50.7637 26.785ZM29.4441 74.5208L53.7159 34.001L52.2146 33.1017L27.9428 73.6215L29.4441 74.5208ZM29.1936 75.4831C29.1946 75.1396 29.2844 74.8022 29.4541 74.5037L27.9328 73.6387C27.614 74.1993 27.4455 74.833 27.4436 75.4782L29.1936 75.4831ZM29.4551 76.4756C29.2828 76.1733 29.1927 75.8311 29.1936 75.4831L27.4436 75.4782C27.4418 76.1318 27.6111 76.7744 27.9348 77.3422L29.4551 76.4756ZM30.1758 77.2063C29.8759 77.0298 29.6274 76.7779 29.4551 76.4756L27.9348 77.3422C28.2584 77.91 28.7251 78.3831 29.2883 78.7145L30.1758 77.2063ZM31.1554 77.4813C30.8106 77.4759 30.4731 77.3812 30.1758 77.2063L29.2883 78.7145C29.8467 79.0431 30.4806 79.221 31.1281 79.2311L31.1554 77.4813ZM79.6858 77.4812H31.1418V79.2312H79.6858V77.4812ZM80.6517 77.2063C80.3545 77.3812 80.0169 77.4759 79.6722 77.4813L79.6994 79.2311C80.347 79.221 80.9809 79.0431 81.5392 78.7145L80.6517 77.2063ZM81.3724 76.4756C81.2001 76.7779 80.9516 77.0298 80.6517 77.2063L81.5392 78.7145C82.1025 78.3831 82.5691 77.9099 82.8928 77.3422L81.3724 76.4756ZM81.6339 75.4831C81.6349 75.8311 81.5447 76.1733 81.3724 76.4756L82.8928 77.3422C83.2164 76.7744 83.3857 76.1318 83.3839 75.4782L81.6339 75.4831ZM81.3735 74.5038C81.5432 74.8023 81.633 75.1396 81.6339 75.4831L83.3839 75.4782C83.3821 74.8331 83.2136 74.1995 82.8948 73.6389L81.3735 74.5038ZM57.1151 34.0067L81.3835 74.521L82.8848 73.6217L58.6164 33.1074L57.1151 34.0067ZM57.1147 34.0061L57.1182 34.0118L58.6133 33.1023L58.6098 33.0966L57.1147 34.0061ZM56.3914 33.3078C56.6886 33.4751 56.9377 33.7158 57.1152 34.0069L58.6094 33.0958C58.276 32.5491 57.808 32.0971 57.25 31.7829L56.3914 33.3078ZM55.4138 33.0515C55.7563 33.0515 56.093 33.1398 56.3914 33.3078L57.25 31.7829C56.6895 31.4673 56.057 31.3015 55.4138 31.3015V33.0515ZM54.4361 33.3078C54.7346 33.1398 55.0713 33.0515 55.4138 33.0515V31.3015C54.7705 31.3015 54.1381 31.4673 53.5776 31.7829L54.4361 33.3078ZM53.7123 34.0069C53.8898 33.7158 54.139 33.4751 54.4361 33.3078L53.5776 31.7829C53.0196 32.0971 52.5515 32.5491 52.2182 33.0958L53.7123 34.0069ZM59.1563 46.8101C59.1563 44.743 57.4806 43.0673 55.4135 43.0673V44.8173C56.5141 44.8173 57.4063 45.7095 57.4063 46.8101H59.1563ZM59.1563 58.2813V46.8101H57.4063V58.2813H59.1563ZM55.4135 62.0241C57.4806 62.0241 59.1563 60.3484 59.1563 58.2813H57.4063C57.4063 59.3819 56.5141 60.2741 55.4135 60.2741V62.0241ZM51.6707 58.2813C51.6707 60.3484 53.3464 62.0241 55.4135 62.0241V60.2741C54.3129 60.2741 53.4207 59.3819 53.4207 58.2813H51.6707ZM51.6707 46.8101V58.2813H53.4207V46.8101H51.6707ZM55.4135 43.0673C53.3464 43.0673 51.6707 44.743 51.6707 46.8101H53.4207C53.4207 45.7095 54.3129 44.8173 55.4135 44.8173V43.0673ZM53.4207 69.7523C53.4207 68.6517 54.3129 67.7595 55.4135 67.7595V66.0095C53.3464 66.0095 51.6707 67.6852 51.6707 69.7523H53.4207ZM55.4135 71.7451C54.3129 71.7451 53.4207 70.8529 53.4207 69.7523H51.6707C51.6707 71.8194 53.3464 73.4951 55.4135 73.4951V71.7451ZM55.4422 71.7451H55.4135V73.4951H55.4422V71.7451ZM57.435 69.7523C57.435 70.8529 56.5428 71.7451 55.4422 71.7451V73.4951C57.5093 73.4951 59.185 71.8194 59.185 69.7523H57.435ZM55.4422 67.7595C56.5428 67.7595 57.435 68.6517 57.435 69.7523H59.185C59.185 67.6852 57.5093 66.0095 55.4422 66.0095V67.7595ZM55.4135 67.7595H55.4422V66.0095H55.4135V67.7595Z" fill="black"/>
</g>
<path d="M32.7737 45.8247V39.3598H34.1445V45.8247H32.7737ZM42.5134 45.8247H40.7711L37.9587 40.934H37.9189C37.9749 41.7977 38.0029 42.4139 38.0029 42.7824V45.8247H36.778V39.3598H38.507L41.315 44.2018H41.346C41.3017 43.3617 41.2796 42.7676 41.2796 42.4198V39.3598H42.5134V45.8247ZM50.5152 42.5303C50.5152 43.5945 50.2116 44.4097 49.6043 44.9757C48.9999 45.5417 48.1259 45.8247 46.982 45.8247H45.1513V39.3598H47.181C48.2364 39.3598 49.056 39.6383 49.6397 40.1955C50.2234 40.7527 50.5152 41.531 50.5152 42.5303ZM49.0913 42.5657C49.0913 41.1772 48.4782 40.4829 47.2518 40.4829H46.5222V44.6927H47.1103C48.431 44.6927 49.0913 43.9837 49.0913 42.5657ZM52.8613 45.8247V39.3598H54.2321V45.8247H52.8613ZM52.7862 38.8424V38.723C53.2932 38.1334 53.6396 37.6897 53.8253 37.392H55.3376V37.4848C55.1844 37.6381 54.922 37.8666 54.5505 38.1702C54.182 38.4709 53.8931 38.695 53.6838 38.8424H52.7862ZM59.6117 40.4078C59.0958 40.4078 58.6964 40.6023 58.4134 40.9915C58.1304 41.3777 57.9889 41.9171 57.9889 42.6099C57.9889 44.0515 58.5298 44.7723 59.6117 44.7723C60.0657 44.7723 60.6155 44.6588 61.2612 44.4318V45.5815C60.7305 45.8026 60.138 45.9131 59.4835 45.9131C58.5431 45.9131 57.8238 45.6287 57.3256 45.0597C56.8274 44.4878 56.5783 43.6682 56.5783 42.6011C56.5783 41.9289 56.7006 41.3408 56.9453 40.8367C57.19 40.3296 57.5408 39.942 57.9977 39.6737C58.4576 39.4025 58.9956 39.2669 59.6117 39.2669C60.2397 39.2669 60.8705 39.4187 61.5044 39.7224L61.0622 40.8367C60.8204 40.7217 60.5772 40.6215 60.3325 40.536C60.0879 40.4505 59.8476 40.4078 59.6117 40.4078ZM63.6471 45.8247V39.3598H65.0179V45.8247H63.6471ZM73.5194 42.5834C73.5194 43.6535 73.2541 44.476 72.7234 45.0509C72.1928 45.6257 71.4322 45.9131 70.4417 45.9131C69.4512 45.9131 68.6906 45.6257 68.16 45.0509C67.6293 44.476 67.364 43.6506 67.364 42.5745C67.364 41.4985 67.6293 40.6775 68.16 40.1115C68.6935 39.5425 69.4571 39.258 70.4505 39.258C71.444 39.258 72.2031 39.544 72.7279 40.1159C73.2556 40.6878 73.5194 41.5103 73.5194 42.5834ZM68.8011 42.5834C68.8011 43.3056 68.9382 43.8495 69.2124 44.2151C69.4866 44.5807 69.8963 44.7634 70.4417 44.7634C71.5354 44.7634 72.0823 44.0367 72.0823 42.5834C72.0823 41.1271 71.5384 40.3989 70.4505 40.3989C69.9052 40.3989 69.4939 40.5832 69.2168 40.9517C68.9397 41.3172 68.8011 41.8611 68.8011 42.5834ZM79.6817 44.0294C79.6817 44.6131 79.4709 45.073 79.0494 45.409C78.6307 45.7451 78.047 45.9131 77.2982 45.9131C76.6084 45.9131 75.9982 45.7834 75.4675 45.524V44.2505C75.9038 44.445 76.2723 44.5821 76.573 44.6617C76.8767 44.7413 77.1538 44.7811 77.4044 44.7811C77.7051 44.7811 77.935 44.7236 78.0942 44.6087C78.2563 44.4937 78.3374 44.3227 78.3374 44.0957C78.3374 43.9689 78.302 43.8569 78.2313 43.7596C78.1605 43.6594 78.0559 43.5636 77.9173 43.4722C77.7817 43.3808 77.5031 43.2349 77.0816 43.0344C76.6865 42.8487 76.3903 42.6704 76.1927 42.4994C75.9952 42.3284 75.8375 42.1294 75.7196 41.9024C75.6017 41.6754 75.5427 41.4101 75.5427 41.1064C75.5427 40.5345 75.7358 40.085 76.122 39.7577C76.5111 39.4305 77.0477 39.2669 77.7316 39.2669C78.0677 39.2669 78.3875 39.3067 78.6912 39.3863C78.9978 39.4659 79.3176 39.5779 79.6507 39.7224L79.2085 40.7881C78.8636 40.6466 78.5777 40.5478 78.3507 40.4918C78.1266 40.4358 77.9055 40.4078 77.6874 40.4078C77.428 40.4078 77.229 40.4682 77.0904 40.5891C76.9519 40.7099 76.8826 40.8677 76.8826 41.0622C76.8826 41.1831 76.9106 41.2892 76.9666 41.3806C77.0226 41.469 77.111 41.556 77.2319 41.6415C77.3557 41.724 77.6461 41.8744 78.103 42.0925C78.7074 42.3814 79.1216 42.6718 79.3456 42.9637C79.5697 43.2526 79.6817 43.6078 79.6817 44.0294ZM35.3915 56.8964C35.3915 57.845 35.1334 58.5708 34.6172 59.074C34.1036 59.5745 33.3633 59.8247 32.3963 59.8247H30.8044V54.0781H32.5654C33.4589 54.0781 34.1533 54.3257 34.6486 54.821C35.1439 55.3162 35.3915 56.008 35.3915 56.8964ZM34.684 56.9199C34.684 56.1705 34.4953 55.6058 34.118 55.2258C33.7432 54.8459 33.1851 54.6559 32.4435 54.6559H31.4726V59.2469H32.2863C33.0829 59.2469 33.6817 59.0517 34.0826 58.6612C34.4835 58.2682 34.684 57.6877 34.684 56.9199ZM40.8866 59.8247H37.6831V54.0781H40.8866V54.6716H38.3513V56.523H40.7333V57.1126H38.3513V59.2272H40.8866V59.8247ZM46.9359 57.4349V59.8247H46.2676V54.0781H47.8438C48.5487 54.0781 49.0689 54.213 49.4043 54.4829C49.7423 54.7528 49.9114 55.159 49.9114 55.7014C49.9114 56.4614 49.5262 56.975 48.7558 57.2423L50.3162 59.8247H49.5262L48.1347 57.4349H46.9359ZM46.9359 56.861H47.8517C48.3234 56.861 48.6693 56.768 48.8894 56.5819C49.1095 56.3932 49.2196 56.1115 49.2196 55.7368C49.2196 55.3569 49.1069 55.083 48.8815 54.9153C48.6588 54.7476 48.2998 54.6637 47.8045 54.6637H46.9359V56.861ZM55.4536 59.8247H52.2501V54.0781H55.4536V54.6716H52.9183V56.523H55.3003V57.1126H52.9183V59.2272H55.4536V59.8247ZM61.0194 54.0781H61.7387L59.6673 59.8247H59.0069L56.9473 54.0781H57.6548L58.9755 57.7965C59.1275 58.2236 59.248 58.639 59.3371 59.0425C59.4314 58.618 59.5546 58.1948 59.7066 57.7729L61.0194 54.0781ZM63.539 59.8247V54.0781H64.2072V59.8247H63.539ZM70.0364 58.2957C70.0364 58.8014 69.8529 59.1958 69.4861 59.4788C69.1192 59.7618 68.6213 59.9033 67.9924 59.9033C67.3111 59.9033 66.787 59.8155 66.4201 59.64V58.9953C66.656 59.0949 66.9128 59.1735 67.1906 59.2312C67.4683 59.2888 67.7435 59.3177 68.016 59.3177C68.4615 59.3177 68.7969 59.2338 69.0222 59.0661C69.2476 58.8958 69.3603 58.6599 69.3603 58.3586C69.3603 58.1594 69.3197 57.9969 69.2384 57.8712C69.1598 57.7428 69.0262 57.6248 68.8375 57.5174C68.6514 57.41 68.3671 57.2881 67.9845 57.1519C67.45 56.9606 67.0674 56.7339 66.8368 56.4719C66.6088 56.2098 66.4948 55.8678 66.4948 55.446C66.4948 55.0031 66.6612 54.6506 66.994 54.3886C67.3268 54.1266 67.7671 53.9955 68.3147 53.9955C68.886 53.9955 69.4114 54.1004 69.8909 54.31L69.6826 54.8917C69.2083 54.6926 68.7471 54.593 68.299 54.593C67.9452 54.593 67.6688 54.669 67.4696 54.821C67.2705 54.973 67.1709 55.1839 67.1709 55.4538C67.1709 55.653 67.2076 55.8167 67.281 55.9451C67.3543 56.0709 67.4775 56.1875 67.6504 56.295C67.826 56.3998 68.0933 56.5164 68.4523 56.6448C69.055 56.8597 69.469 57.0903 69.6944 57.3366C69.9224 57.5829 70.0364 57.9026 70.0364 58.2957ZM73.9867 59.8247H73.3185V54.6716H71.4986V54.0781H75.8066V54.6716H73.9867V59.8247ZM81.2938 59.8247L80.5784 57.9969H78.275L77.5675 59.8247H76.8914L79.1633 54.0545H79.7254L81.9856 59.8247H81.2938ZM80.3701 57.3956L79.7018 55.615C79.6154 55.3896 79.5263 55.1132 79.4346 54.7856C79.3769 55.0372 79.2944 55.3136 79.1869 55.615L78.5109 57.3956H80.3701ZM24.9664 70.4021H25.4175C25.839 70.4021 26.1545 70.3195 26.3638 70.1545C26.5731 69.9864 26.6777 69.7432 26.6777 69.4248C26.6777 69.1035 26.5893 68.8662 26.4124 68.7129C26.2385 68.5596 25.9643 68.4829 25.5899 68.4829H24.9664V70.4021ZM28.0618 69.3762C28.0618 70.0719 27.8437 70.604 27.4073 70.9725C26.974 71.341 26.3564 71.5253 25.5545 71.5253H24.9664V73.8247H23.5956V67.3598H25.6607C26.4448 67.3598 27.0403 67.5293 27.4471 67.8683C27.8569 68.2044 28.0618 68.707 28.0618 69.3762ZM31.6593 70.2296H32.1015C32.5349 70.2296 32.8548 70.1574 33.0611 70.0129C33.2675 69.8685 33.3707 69.6415 33.3707 69.332C33.3707 69.0254 33.2645 68.8072 33.0523 68.6775C32.843 68.5478 32.5172 68.4829 32.075 68.4829H31.6593V70.2296ZM31.6593 71.344V73.8247H30.2885V67.3598H32.1723C33.0508 67.3598 33.7008 67.5204 34.1224 67.8417C34.544 68.1601 34.7547 68.6451 34.7547 69.2966C34.7547 69.6769 34.6501 70.0159 34.4408 70.3136C34.2315 70.6084 33.9352 70.8399 33.552 71.0079C34.5248 72.4613 35.1586 73.4002 35.4534 73.8247H33.9322L32.389 71.344H31.6593ZM40.9966 73.8247H37.2733V67.3598H40.9966V68.4829H38.6441V69.9024H40.833V71.0256H38.6441V72.6927H40.9966V73.8247ZM48.7199 70.5303C48.7199 71.5945 48.4162 72.4097 47.809 72.9757C47.2046 73.5417 46.3305 73.8247 45.1867 73.8247H43.356V67.3598H45.3857C46.4411 67.3598 47.2606 67.6383 47.8443 68.1955C48.428 68.7527 48.7199 69.531 48.7199 70.5303ZM47.296 70.5657C47.296 69.1772 46.6828 68.4829 45.4565 68.4829H44.7268V72.6927H45.315C46.6357 72.6927 47.296 71.9837 47.296 70.5657ZM55.0237 73.8247L54.5549 72.2859H52.198L51.7293 73.8247H50.2523L52.5341 67.3332H54.21L56.5006 73.8247H55.0237ZM54.2277 71.1361C53.7944 69.7417 53.5497 68.9531 53.4937 68.7704C53.4406 68.5876 53.4023 68.4431 53.3787 68.337C53.2814 68.7144 53.0028 69.6474 52.5429 71.1361H54.2277ZM60.819 73.8247H59.4481V68.5006H57.6926V67.3598H62.5745V68.5006H60.819V73.8247ZM70.4437 70.5834C70.4437 71.6535 70.1783 72.476 69.6477 73.0509C69.1171 73.6257 68.3565 73.9131 67.366 73.9131C66.3754 73.9131 65.6148 73.6257 65.0842 73.0509C64.5536 72.476 64.2882 71.6506 64.2882 70.5745C64.2882 69.4985 64.5536 68.6775 65.0842 68.1115C65.6178 67.5425 66.3813 67.258 67.3748 67.258C68.3683 67.258 69.1274 67.544 69.6521 68.1159C70.1798 68.6878 70.4437 69.5103 70.4437 70.5834ZM65.7254 70.5834C65.7254 71.3056 65.8625 71.8495 66.1366 72.2151C66.4108 72.5807 66.8206 72.7634 67.366 72.7634C68.4597 72.7634 69.0065 72.0367 69.0065 70.5834C69.0065 69.1271 68.4626 68.3989 67.3748 68.3989C66.8294 68.3989 66.4182 68.5832 66.1411 68.9517C65.864 69.3172 65.7254 69.8611 65.7254 70.5834ZM66.6717 66.8424V66.723C67.1788 66.1334 67.5251 65.6897 67.7109 65.392H69.2232V65.4848C69.0699 65.6381 68.8075 65.8666 68.4361 66.1702C68.0676 66.4709 67.7787 66.695 67.5694 66.8424H66.6717ZM74.1606 70.2296H74.6028C75.0362 70.2296 75.356 70.1574 75.5624 70.0129C75.7687 69.8685 75.8719 69.6415 75.8719 69.332C75.8719 69.0254 75.7658 68.8072 75.5535 68.6775C75.3442 68.5478 75.0185 68.4829 74.5763 68.4829H74.1606V70.2296ZM74.1606 71.344V73.8247H72.7898V67.3598H74.6735C75.5521 67.3598 76.2021 67.5204 76.6236 67.8417C77.0452 68.1601 77.256 68.6451 77.256 69.2966C77.256 69.6769 77.1513 70.0159 76.942 70.3136C76.7327 70.6084 76.4364 70.8399 76.0532 71.0079C77.026 72.4613 77.6599 73.4002 77.9547 73.8247H76.4335L74.8902 71.344H74.1606ZM79.7746 73.8247V67.3598H81.1454V73.8247H79.7746ZM87.7366 73.8247L87.2679 72.2859H84.911L84.4422 73.8247H82.9653L85.247 67.3332H86.923L89.2136 73.8247H87.7366ZM86.9407 71.1361C86.5073 69.7417 86.2626 68.9531 86.2066 68.7704C86.1535 68.5876 86.1152 68.4431 86.0916 68.337C85.9943 68.7144 85.7158 69.6474 85.2559 71.1361H86.9407Z" fill="white"/>
<path d="M19.7751 62.0378L92.2251 62.0378" stroke="white" stroke-width="0.754687" stroke-linecap="round" stroke-dasharray="1.51 1.51"/>
<path d="M19.7751 51.4722L92.2251 51.4722" stroke="white" stroke-width="0.754687" stroke-linecap="round" stroke-dasharray="1.51 1.51"/>
</svg>
