<svg width="64" height="64" viewBox="0 0 64 64" fill="none" xmlns="http://www.w3.org/2000/svg">
<path d="M34.5377 4.00287C34.1643 3.96736 33.8509 4.26627 33.7123 4.61475C33.4184 5.35358 32.6968 5.87585 31.8532 5.87585C31.0096 5.87585 30.2881 5.35359 29.9941 4.61476C29.8555 4.26628 29.5421 3.96736 29.1688 4.00287C28.7946 4.03846 28.5462 4.39211 28.4764 4.76142C28.3287 5.54255 27.7201 6.19268 26.8922 6.35361C26.0624 6.51489 25.2528 6.13806 24.824 5.46633C24.6221 5.15006 24.2579 4.91563 23.8981 5.02206C23.538 5.12857 23.3618 5.5233 23.3647 5.8988C23.3709 6.69565 22.8972 7.45255 22.1135 7.76918C21.4109 8.05302 20.6418 7.90933 20.0945 7.46051C19.7007 7.13762 19.153 6.90991 18.7036 7.14941C18.2549 7.38849 18.1397 7.96773 18.1872 8.47385C18.2535 9.17881 17.9426 9.89711 17.3142 10.3209C16.6153 10.7924 15.7256 10.7632 15.0689 10.3158C14.7585 10.1043 14.3317 10.0311 14.042 10.2702C13.7526 10.509 13.7435 10.9411 13.8918 11.2858C14.2058 12.0159 14.0647 12.8948 13.4685 13.491C12.8116 14.1479 11.8116 14.2523 11.0456 13.8044C10.8368 13.6823 10.5593 13.6919 10.4037 13.8771C10.248 14.0625 10.2866 14.3378 10.4432 14.5224C11.0173 15.199 11.088 16.202 10.5553 16.9628C10.0217 17.7249 9.05297 18.0011 8.22003 17.6909C7.99343 17.6065 7.7219 17.6637 7.6008 17.8729C7.4795 18.0826 7.56552 18.3472 7.7522 18.5015C8.43725 19.0678 8.68234 20.0448 8.28923 20.8878C8.00568 21.4959 7.45534 21.8944 6.84258 22.009C6.21127 22.127 5.49747 22.3776 5.2937 22.9866C5.09 23.5955 5.50758 24.23 5.94064 24.704C6.36115 25.1643 6.5609 25.8139 6.42139 26.4702C6.26409 27.2102 5.71627 27.767 5.03951 27.9705C4.55162 28.1172 4.05717 28.4407 4.00451 28.9475C3.95197 29.453 4.36687 29.8764 4.81265 30.1206C5.43275 30.4603 5.85321 31.1189 5.85321 31.8759C5.85321 32.5455 5.52408 33.1383 5.01875 33.5013C4.49778 33.8755 3.95906 34.4108 4.03094 35.0482C4.103 35.6872 4.74908 36.0803 5.3422 36.3288C5.91559 36.5691 6.36904 37.0724 6.51957 37.7243C6.69018 38.4633 6.42727 39.2012 5.89734 39.6716C5.5168 40.0093 5.20632 40.5145 5.37196 40.9956C5.53762 41.4768 6.09231 41.6808 6.60016 41.7126C7.30728 41.757 7.96869 42.1766 8.2892 42.864C8.68231 43.707 8.43722 44.684 7.75217 45.2502C7.56552 45.4045 7.47952 45.6692 7.6008 45.8788C7.72189 46.088 7.99339 46.1452 8.21996 46.0608C9.05292 45.7506 10.0217 46.0268 10.5552 46.7888C11.088 47.5497 11.0173 48.5527 10.4432 49.2293C10.2865 49.4139 10.2479 49.6892 10.4037 49.8745C10.5593 50.0598 10.8367 50.0694 11.0455 49.9472C11.8115 49.4993 12.8116 49.6037 13.4684 50.2606C14.0646 50.8568 14.2057 51.7357 13.8918 52.4657C13.7435 52.8105 13.7526 53.2427 14.0421 53.4816C14.3318 53.7207 14.7586 53.6474 15.0691 53.4359C15.7258 52.9886 16.6153 52.9595 17.3142 53.4309C17.9426 53.8547 18.2535 54.573 18.1873 55.2779C18.1397 55.784 18.255 56.3633 18.7037 56.6023C19.1531 56.8418 19.7008 56.6142 20.0946 56.2913C20.6419 55.8426 21.411 55.6989 22.1134 55.9827C22.8971 56.2993 23.3708 57.0562 23.3647 57.8529C23.3618 58.2284 23.538 58.6232 23.8981 58.7297C24.2579 58.8361 24.6221 58.6017 24.8241 58.2854C25.2529 57.6137 26.0624 57.2369 26.8922 57.3982C27.72 57.5591 28.3286 58.2092 28.4763 58.9903C28.5462 59.3596 28.7946 59.7132 29.1687 59.7488C29.5421 59.7843 29.8555 59.4854 29.9942 59.1369C30.2881 58.3981 31.0096 57.8759 31.8532 57.8759C32.6968 57.8759 33.4184 58.3981 33.7123 59.1369C33.8509 59.4854 34.1643 59.7843 34.5377 59.7488C34.9118 59.7132 35.1602 59.3596 35.2301 58.9903C35.3778 58.2092 35.9864 57.5591 36.8142 57.3982C37.644 57.2369 38.4535 57.6137 38.8823 58.2854C39.0843 58.6017 39.4485 58.8361 39.8083 58.7297C40.1684 58.6231 40.3446 58.2284 40.3418 57.8529C40.3357 57.0561 40.8094 56.2993 41.593 55.9827C42.2955 55.6989 43.0645 55.8426 43.6119 56.2913C44.0057 56.6141 44.5534 56.8418 45.0028 56.6023C45.4514 56.3632 45.5667 55.784 45.5192 55.2779C45.453 54.5729 45.7639 53.8547 46.3922 53.4309C47.0911 52.9595 47.9807 52.9886 48.6374 53.4359C48.9479 53.6474 49.3746 53.7207 49.6644 53.4815C49.9538 53.2426 49.963 52.8105 49.8147 52.4657C49.5007 51.7357 49.6418 50.8568 50.238 50.2606C50.8949 49.6037 51.8949 49.4993 52.6609 49.9472C52.8697 50.0694 53.1472 50.0598 53.3028 49.8746C53.4585 49.6892 53.4199 49.4139 53.2633 49.2293C52.6891 48.5527 52.6184 47.5497 53.1512 46.7888C53.6847 46.0268 54.6535 45.7506 55.4865 46.0608C55.713 46.1452 55.9845 46.088 56.1056 45.8788C56.2269 45.6692 56.1409 45.4045 55.9543 45.2502C55.2692 44.684 55.0241 43.707 55.4172 42.864C55.7008 42.2559 56.2511 41.8574 56.8638 41.7428C57.4952 41.6248 58.2089 41.3742 58.4127 40.7651C58.6164 40.1562 58.1988 39.5217 57.7658 39.0477C57.3453 38.5874 57.1456 37.9379 57.2851 37.2816C57.4424 36.5416 57.9902 35.9849 58.6669 35.7813C59.1548 35.6346 59.6493 35.311 59.7019 34.8043C59.7545 34.2987 59.3395 33.8753 58.8937 33.6311C58.2737 33.2914 57.8532 32.6327 57.8532 31.8759C57.8532 31.2063 58.1823 30.6135 58.6875 30.2505C59.2085 29.8762 59.7474 29.3408 59.6755 28.7033C59.6034 28.0642 58.9572 27.6709 58.364 27.4223C57.7907 27.1821 57.3373 26.6788 57.1868 26.0269C57.0162 25.2878 57.2792 24.5499 57.8092 24.0796C58.1896 23.742 58.5 23.2369 58.3344 22.7559C58.1688 22.2749 57.6143 22.071 57.1065 22.0392C56.3993 21.9948 55.7378 21.5752 55.4172 20.8878C55.0241 20.0448 55.2692 19.0678 55.9542 18.5015C56.1409 18.3472 56.2269 18.0826 56.1056 17.8729C55.9845 17.6636 55.713 17.6065 55.4864 17.6909C54.6534 18.0011 53.6847 17.7249 53.1511 16.9628C52.6184 16.2019 52.6891 15.199 53.2632 14.5224C53.4199 14.3378 53.4585 14.0625 53.3027 13.8771C53.1471 13.6919 52.8697 13.6823 52.6609 13.8044C51.8949 14.2523 50.8948 14.1479 50.238 13.491C49.6418 12.8948 49.5007 12.0159 49.8147 11.2859C49.9629 10.9411 49.9538 10.5091 49.6644 10.2702C49.3747 10.0311 48.948 10.1043 48.6375 10.3158C47.9808 10.7632 47.0912 10.7924 46.3923 10.3209C45.7639 9.89711 45.4529 9.17882 45.5192 8.47387C45.5668 7.96774 45.4515 7.3885 45.0029 7.14942C44.5535 6.90992 44.0057 7.13763 43.612 7.46052C43.0646 7.90933 42.2955 8.05301 41.593 7.76918C40.8093 7.45255 40.3356 6.69568 40.3417 5.89884C40.3446 5.52333 40.1685 5.12857 39.8083 5.02206C39.4485 4.91563 39.0843 5.15007 38.8824 5.46635C38.4535 6.13807 37.644 6.51489 36.8142 6.35361C35.9863 6.19268 35.3777 5.54254 35.23 4.7614C35.1602 4.3921 34.9118 4.03846 34.5377 4.00287Z" fill="#E12229"/>
<g style="mix-blend-mode:overlay" opacity="0.9">
<path d="M34.5377 4.00287C34.1643 3.96736 33.8509 4.26627 33.7123 4.61475C33.4184 5.35358 32.6968 5.87585 31.8532 5.87585C31.0096 5.87585 30.2881 5.35359 29.9941 4.61476C29.8555 4.26628 29.5421 3.96736 29.1688 4.00287C28.7946 4.03846 28.5462 4.39211 28.4764 4.76142C28.3287 5.54255 27.7201 6.19268 26.8922 6.35361C26.0624 6.51489 25.2528 6.13806 24.824 5.46633C24.6221 5.15006 24.2579 4.91563 23.8981 5.02206C23.538 5.12857 23.3618 5.5233 23.3647 5.8988C23.3709 6.69565 22.8971 7.45255 22.1135 7.76918C21.4109 8.05302 20.6418 7.90933 20.0945 7.46051C19.7007 7.13762 19.153 6.90991 18.7036 7.14941C18.2549 7.38849 18.1397 7.96773 18.1872 8.47385C18.2535 9.17881 17.9426 9.89711 17.3142 10.3209C16.6153 10.7924 15.7256 10.7632 15.0689 10.3158C14.7585 10.1043 14.3317 10.0311 14.042 10.2702C13.7526 10.509 13.7435 10.9411 13.8918 11.2858C14.2058 12.0159 14.0647 12.8948 13.4685 13.491C12.8116 14.1479 11.8116 14.2523 11.0456 13.8044C10.8368 13.6823 10.5593 13.6919 10.4037 13.8771C10.248 14.0625 10.2866 14.3378 10.4432 14.5224C11.0173 15.199 11.088 16.202 10.5553 16.9628C10.0217 17.7249 9.05297 18.0011 8.22003 17.6909C7.99343 17.6065 7.7219 17.6637 7.6008 17.8729C7.4795 18.0826 7.56552 18.3472 7.7522 18.5015C8.43725 19.0678 8.68234 20.0448 8.28923 20.8878C8.00568 21.4959 7.45534 21.8944 6.84258 22.009C6.21127 22.127 5.49747 22.3776 5.2937 22.9866C5.09 23.5955 5.50758 24.23 5.94064 24.704C6.36115 25.1643 6.5609 25.8139 6.42139 26.4702C6.26409 27.2102 5.71627 27.767 5.03951 27.9705C4.55162 28.1172 4.05717 28.4407 4.00451 28.9475C3.95197 29.453 4.36687 29.8764 4.81265 30.1206C5.43275 30.4603 5.85321 31.119 5.85321 31.8759C5.85321 32.5455 5.52408 33.1383 5.01875 33.5013C4.49778 33.8755 3.95906 34.4108 4.03094 35.0482C4.103 35.6872 4.74908 36.0803 5.3422 36.3288C5.91559 36.5691 6.36904 37.0724 6.51957 37.7243C6.69018 38.4633 6.42727 39.2012 5.89734 39.6716C5.5168 40.0093 5.20632 40.5145 5.37196 40.9956C5.53762 41.4768 6.09231 41.6808 6.60016 41.7126C7.30728 41.757 7.96869 42.1766 8.2892 42.864C8.68231 43.707 8.43722 44.684 7.75217 45.2502C7.56552 45.4045 7.47952 45.6692 7.6008 45.8788C7.72189 46.088 7.99339 46.1452 8.21996 46.0608C9.05292 45.7506 10.0217 46.0268 10.5552 46.7888C11.088 47.5497 11.0173 48.5527 10.4432 49.2293C10.2865 49.4139 10.2479 49.6892 10.4037 49.8745C10.5593 50.0598 10.8367 50.0694 11.0455 49.9472C11.8115 49.4993 12.8116 49.6037 13.4684 50.2606C14.0646 50.8568 14.2057 51.7357 13.8918 52.4657C13.7435 52.8105 13.7526 53.2427 14.0421 53.4816C14.3318 53.7207 14.7586 53.6474 15.0691 53.4359C15.7258 52.9886 16.6153 52.9595 17.3142 53.4309C17.9426 53.8547 18.2535 54.573 18.1873 55.2779C18.1397 55.784 18.255 56.3633 18.7037 56.6023C19.1531 56.8418 19.7008 56.6142 20.0946 56.2913C20.6419 55.8426 21.411 55.6989 22.1134 55.9827C22.8971 56.2993 23.3708 57.0562 23.3647 57.8529C23.3618 58.2284 23.538 58.6232 23.8981 58.7297C24.2579 58.8361 24.6221 58.6017 24.8241 58.2854C25.2529 57.6137 26.0624 57.2369 26.8922 57.3982C27.72 57.5591 28.3286 58.2092 28.4763 58.9903C28.5462 59.3596 28.7946 59.7132 29.1687 59.7488C29.5421 59.7843 29.8555 59.4854 29.9942 59.1369C30.2881 58.3981 31.0096 57.8759 31.8532 57.8759C32.6968 57.8759 33.4184 58.3981 33.7123 59.1369C33.8509 59.4854 34.1643 59.7843 34.5377 59.7488C34.9118 59.7132 35.1602 59.3596 35.2301 58.9903C35.3778 58.2092 35.9864 57.5591 36.8142 57.3982C37.644 57.2369 38.4535 57.6137 38.8823 58.2854C39.0843 58.6017 39.4485 58.8361 39.8083 58.7297C40.1684 58.6231 40.3446 58.2284 40.3418 57.8529C40.3357 57.0561 40.8094 56.2993 41.593 55.9827C42.2955 55.6989 43.0645 55.8426 43.6119 56.2913C44.0057 56.6141 44.5534 56.8418 45.0028 56.6023C45.4514 56.3632 45.5667 55.784 45.5192 55.2779C45.453 54.5729 45.7639 53.8547 46.3922 53.4309C47.0911 52.9595 47.9807 52.9886 48.6374 53.4359C48.9479 53.6474 49.3746 53.7207 49.6644 53.4815C49.9538 53.2426 49.963 52.8105 49.8147 52.4657C49.5007 51.7357 49.6418 50.8568 50.238 50.2606C50.8949 49.6037 51.8949 49.4993 52.6609 49.9472C52.8697 50.0694 53.1472 50.0598 53.3028 49.8746C53.4585 49.6892 53.4199 49.4139 53.2633 49.2293C52.6891 48.5527 52.6184 47.5497 53.1512 46.7888C53.6847 46.0268 54.6535 45.7506 55.4865 46.0608C55.713 46.1452 55.9845 46.088 56.1056 45.8788C56.2269 45.6692 56.1409 45.4045 55.9543 45.2502C55.2692 44.684 55.0241 43.707 55.4172 42.864C55.7008 42.2559 56.2511 41.8574 56.8638 41.7428C57.4951 41.6248 58.2089 41.3742 58.4127 40.7651C58.6164 40.1562 58.1988 39.5217 57.7658 39.0477C57.3453 38.5874 57.1456 37.9379 57.2851 37.2816C57.4424 36.5416 57.9902 35.9849 58.6669 35.7813C59.1548 35.6346 59.6492 35.311 59.7019 34.8043C59.7545 34.2987 59.3395 33.8753 58.8937 33.6311C58.2737 33.2914 57.8532 32.6327 57.8532 31.8759C57.8532 31.2063 58.1823 30.6135 58.6875 30.2505C59.2085 29.8762 59.7474 29.3408 59.6755 28.7033C59.6034 28.0642 58.9572 27.6709 58.364 27.4223C57.7907 27.1821 57.3373 26.6788 57.1868 26.0269C57.0162 25.2878 57.2792 24.5499 57.8092 24.0796C58.1896 23.742 58.5 23.2368 58.3344 22.7559C58.1688 22.2749 57.6143 22.071 57.1065 22.0392C56.3993 21.9948 55.7378 21.5752 55.4172 20.8878C55.0241 20.0448 55.2692 19.0678 55.9542 18.5015C56.1409 18.3472 56.2269 18.0826 56.1056 17.8729C55.9845 17.6636 55.713 17.6065 55.4864 17.6909C54.6534 18.0011 53.6847 17.7249 53.1511 16.9628C52.6184 16.2019 52.6891 15.199 53.2632 14.5224C53.4199 14.3378 53.4585 14.0625 53.3027 13.8771C53.1471 13.6919 52.8697 13.6823 52.6609 13.8044C51.8949 14.2523 50.8948 14.1479 50.238 13.491C49.6418 12.8948 49.5007 12.0159 49.8147 11.2859C49.9629 10.9411 49.9538 10.5091 49.6644 10.2702C49.3747 10.0311 48.948 10.1043 48.6375 10.3158C47.9808 10.7632 47.0912 10.7924 46.3923 10.3209C45.7639 9.89711 45.4529 9.17882 45.5192 8.47387C45.5668 7.96774 45.4515 7.3885 45.0029 7.14942C44.5535 6.90992 44.0057 7.13763 43.612 7.46052C43.0646 7.90933 42.2955 8.05301 41.593 7.76918C40.8093 7.45255 40.3356 6.69568 40.3417 5.89884C40.3446 5.52333 40.1685 5.12857 39.8083 5.02206C39.4485 4.91563 39.0843 5.15007 38.8824 5.46635C38.4535 6.13807 37.644 6.51489 36.8142 6.35361C35.9863 6.19268 35.3777 5.54254 35.23 4.7614C35.1602 4.3921 34.9118 4.03846 34.5377 4.00287Z" fill="url(#paint0_linear_738_2064)" fill-opacity="0.6"/>
</g>
<g style="mix-blend-mode:overlay">
<path fill-rule="evenodd" clip-rule="evenodd" d="M29.8803 16.6142C30.5955 16.2115 31.4024 16 32.2232 16C33.0439 16 33.8508 16.2115 34.566 16.6142C35.2812 17.0168 35.8805 17.597 36.3062 18.2988L36.3108 18.3063L49.7934 40.8146L49.8064 40.8366C50.2233 41.5587 50.444 42.3774 50.4463 43.2113C50.4486 44.0451 50.2326 44.865 49.8197 45.5895C49.4067 46.3139 48.8113 46.9176 48.0927 47.3404C47.374 47.7633 46.5571 47.9906 45.7233 47.9998L45.7058 48L18.723 47.9999C17.8892 47.9907 17.0723 47.7633 16.3536 47.3404C15.635 46.9176 15.0396 46.3139 14.6266 45.5895C14.2137 44.865 13.9977 44.0451 14 43.2113C14.0024 42.3774 14.223 41.5587 14.64 40.8366L14.6529 40.8146L28.1356 18.3063L29.5011 19.1243L28.1401 18.2988C28.5658 17.597 29.1651 17.0168 29.8803 16.6142ZM30.8641 19.9467L17.3917 42.4378C17.2561 42.6763 17.1844 42.9458 17.1836 43.2202C17.1829 43.4981 17.2549 43.7714 17.3925 44.0129C17.5302 44.2544 17.7286 44.4556 17.9682 44.5966C18.2056 44.7363 18.4753 44.812 18.7506 44.8163H45.6957C45.9711 44.812 46.2407 44.7363 46.4781 44.5966C46.7177 44.4556 46.9161 44.2544 47.0538 44.0129C47.1914 43.7714 47.2634 43.4981 47.2627 43.2202C47.2619 42.9458 47.1902 42.6763 47.0547 42.4379L33.5842 19.9499L33.5822 19.9467C33.4405 19.7142 33.2414 19.522 33.0041 19.3884C32.7657 19.2541 32.4967 19.1836 32.2232 19.1836C31.9496 19.1836 31.6806 19.2541 31.4422 19.3884C31.2049 19.522 31.0058 19.7142 30.8641 19.9467ZM32.2231 25.7144C33.1023 25.7144 33.8149 26.4271 33.8149 27.3063V33.6735C33.8149 34.5527 33.1023 35.2653 32.2231 35.2653C31.344 35.2653 30.6313 34.5527 30.6313 33.6735V27.3063C30.6313 26.4271 31.344 25.7144 32.2231 25.7144ZM32.2231 38.4488C31.344 38.4488 30.6313 39.1615 30.6313 40.0407C30.6313 40.9198 31.344 41.6325 32.2231 41.6325H32.239C33.1182 41.6325 33.8309 40.9198 33.8309 40.0407C33.8309 39.1615 33.1182 38.4488 32.239 38.4488H32.2231Z" fill="black"/>
<path d="M29.8803 16.6142L29.6421 16.191L29.6421 16.191L29.8803 16.6142ZM34.566 16.6142L34.8043 16.191L34.8043 16.191L34.566 16.6142ZM36.3062 18.2988L35.8909 18.5507L35.8909 18.5507L36.3062 18.2988ZM36.3108 18.3063L36.7274 18.0567L36.726 18.0544L36.3108 18.3063ZM49.7934 40.8146L50.2121 40.5684L50.2101 40.5651L49.7934 40.8146ZM49.8064 40.8366L50.227 40.5937L50.225 40.5904L49.8064 40.8366ZM49.8197 45.5895L50.2416 45.83L50.2416 45.83L49.8197 45.5895ZM48.0927 47.3404L48.339 47.759L48.339 47.759L48.0927 47.3404ZM45.7233 47.9998L45.718 47.5142L45.7179 47.5142L45.7233 47.9998ZM45.7058 48L45.7058 48.4857L45.7113 48.4856L45.7058 48ZM18.723 47.9999L18.7176 48.4856L18.723 48.4856L18.723 47.9999ZM16.3536 47.3404L16.1073 47.759L16.1073 47.759L16.3536 47.3404ZM14.6266 45.5895L15.0486 45.3489L15.0486 45.3489L14.6266 45.5895ZM14 43.2113L13.5143 43.2099L13.5143 43.2099L14 43.2113ZM14.64 40.8366L14.2213 40.5904L14.2194 40.5938L14.64 40.8366ZM14.6529 40.8146L14.2362 40.5651L14.2343 40.5684L14.6529 40.8146ZM28.1356 18.3063L28.3852 17.8897C28.2747 17.8235 28.1424 17.8039 28.0174 17.8352C27.8925 17.8666 27.7851 17.9463 27.7189 18.0568L28.1356 18.3063ZM29.5011 19.1243L29.2515 19.541C29.4812 19.6785 29.7789 19.6043 29.9171 19.375C30.0553 19.1458 29.9819 18.8479 29.753 18.7091L29.5011 19.1243ZM28.1401 18.2988L27.7249 18.0469C27.5858 18.2762 27.6589 18.5749 27.8883 18.714L28.1401 18.2988ZM17.3917 42.4378L16.9749 42.1882L16.9695 42.1977L17.3917 42.4378ZM30.8641 19.9467L30.4494 19.6939L30.4474 19.6971L30.8641 19.9467ZM17.1836 43.2202L16.698 43.2188L16.698 43.2188L17.1836 43.2202ZM17.3925 44.0129L17.8145 43.7724L17.8145 43.7724L17.3925 44.0129ZM17.9682 44.5966L18.2145 44.178L18.2145 44.178L17.9682 44.5966ZM18.7506 44.8163L18.7431 45.3019H18.7506V44.8163ZM45.6957 44.8163L45.6957 45.302L45.7032 45.3019L45.6957 44.8163ZM46.4781 44.5966L46.2318 44.178L46.2318 44.178L46.4781 44.5966ZM47.0538 44.0129L46.6318 43.7724L46.6318 43.7724L47.0538 44.0129ZM47.2627 43.2202L47.7483 43.2188L47.7483 43.2188L47.2627 43.2202ZM47.0547 42.4379L47.477 42.1978L47.4713 42.1883L47.0547 42.4379ZM33.5842 19.9499L34.0008 19.7003L33.9991 19.6975L33.5842 19.9499ZM33.5822 19.9467L33.9972 19.6944L33.9969 19.6939L33.5822 19.9467ZM33.0041 19.3884L32.7658 19.8116L32.7658 19.8116L33.0041 19.3884ZM31.4422 19.3884L31.6805 19.8116L31.6805 19.8116L31.4422 19.3884ZM32.2232 15.5143C31.3189 15.5143 30.43 15.7474 29.6421 16.191L30.1186 17.0374C30.7611 16.6757 31.4859 16.4857 32.2232 16.4857V15.5143ZM34.8043 16.191C34.0163 15.7474 33.1274 15.5143 32.2232 15.5143V16.4857C32.9604 16.4857 33.6853 16.6757 34.3277 17.0374L34.8043 16.191ZM36.7214 18.0469C36.2525 17.2738 35.5922 16.6346 34.8043 16.191L34.3277 17.0374C34.9702 17.3991 35.5085 17.9203 35.8909 18.5507L36.7214 18.0469ZM36.726 18.0544L36.7214 18.0468L35.8909 18.5507L35.8955 18.5583L36.726 18.0544ZM50.2101 40.5651L36.7274 18.0568L35.8941 18.5559L49.3768 41.0642L50.2101 40.5651ZM50.225 40.5904L50.212 40.5684L49.3748 41.0609L49.3877 41.0829L50.225 40.5904ZM50.932 43.2099C50.9294 42.2913 50.6863 41.3893 50.2269 40.5938L49.3858 41.0795C49.7603 41.7282 49.9585 42.4636 49.9606 43.2126L50.932 43.2099ZM50.2416 45.83C50.6965 45.0319 50.9345 44.1286 50.932 43.2099L49.9606 43.2126C49.9627 43.9617 49.7686 44.6982 49.3977 45.3489L50.2416 45.83ZM48.339 47.759C49.1307 47.2931 49.7867 46.6281 50.2416 45.83L49.3977 45.3489C49.0268 45.9997 48.4919 46.542 47.8464 46.9218L48.339 47.759ZM45.7287 48.4855C46.6473 48.4754 47.5472 48.2249 48.339 47.759L47.8464 46.9218C47.2008 47.3017 46.467 47.5059 45.718 47.5142L45.7287 48.4855ZM45.7113 48.4856L45.7288 48.4855L45.7179 47.5142L45.7004 47.5144L45.7113 48.4856ZM18.723 48.4856L45.7058 48.4857L45.7058 47.5143L18.723 47.5142L18.723 48.4856ZM16.1073 47.759C16.8991 48.2249 17.799 48.4755 18.7176 48.4855L18.7283 47.5142C17.9793 47.506 17.2456 47.3017 16.6 46.9218L16.1073 47.759ZM14.2047 45.83C14.6596 46.6281 15.3156 47.2931 16.1073 47.759L16.6 46.9218C15.9544 46.542 15.4195 45.9997 15.0486 45.3489L14.2047 45.83ZM13.5143 43.2099C13.5118 44.1286 13.7498 45.0319 14.2047 45.83L15.0486 45.3489C14.6777 44.6982 14.4836 43.9617 14.4857 43.2126L13.5143 43.2099ZM14.2194 40.5938C13.76 41.3893 13.5169 42.2913 13.5143 43.2099L14.4857 43.2126C14.4878 42.4636 14.686 41.7282 15.0606 41.0795L14.2194 40.5938ZM14.2343 40.5684L14.2213 40.5904L15.0586 41.0829L15.0715 41.0609L14.2343 40.5684ZM27.7189 18.0568L14.2362 40.5651L15.0695 41.0642L28.5522 18.5559L27.7189 18.0568ZM29.7507 18.7077L28.3852 17.8897L27.886 18.723L29.2515 19.541L29.7507 18.7077ZM27.8883 18.714L29.2492 19.5396L29.753 18.7091L28.392 17.8835L27.8883 18.714ZM29.6421 16.191C28.8541 16.6346 28.1938 17.2738 27.7249 18.0469L28.5554 18.5507C28.9378 17.9203 29.4762 17.3991 30.1186 17.0374L29.6421 16.191ZM17.8083 42.6874L31.2807 20.1963L30.4474 19.6971L16.975 42.1882L17.8083 42.6874ZM17.6693 43.2215C17.6699 43.0309 17.7197 42.8436 17.8139 42.6779L16.9695 42.1977C16.7925 42.5089 16.699 42.8607 16.698 43.2188L17.6693 43.2215ZM17.8145 43.7724C17.7188 43.6046 17.6688 43.4147 17.6693 43.2215L16.698 43.2188C16.6969 43.5816 16.7909 43.9383 16.9706 44.2534L17.8145 43.7724ZM18.2145 44.178C18.048 44.08 17.9101 43.9402 17.8145 43.7724L16.9706 44.2534C17.1502 44.5686 17.4092 44.8312 17.7219 45.0152L18.2145 44.178ZM18.7582 44.3306C18.5669 44.3277 18.3795 44.2751 18.2145 44.178L17.7219 45.0152C18.0318 45.1975 18.3837 45.2963 18.7431 45.3019L18.7582 44.3306ZM45.6957 44.3306H18.7506V45.3019H45.6957V44.3306ZM46.2318 44.178C46.0668 44.2751 45.8795 44.3277 45.6881 44.3306L45.7032 45.3019C46.0626 45.2963 46.4145 45.1975 46.7244 45.0152L46.2318 44.178ZM46.6318 43.7724C46.5362 43.9402 46.3983 44.08 46.2318 44.178L46.7244 45.0152C47.0371 44.8312 47.2961 44.5686 47.4757 44.2534L46.6318 43.7724ZM46.777 43.2215C46.7775 43.4147 46.7275 43.6046 46.6318 43.7724L47.4757 44.2534C47.6554 43.9383 47.7494 43.5816 47.7483 43.2188L46.777 43.2215ZM46.6325 42.6779C46.7266 42.8436 46.7765 43.0309 46.777 43.2215L47.7483 43.2188C47.7473 42.8607 47.6538 42.509 47.4769 42.1979L46.6325 42.6779ZM33.1675 20.1995L46.638 42.6875L47.4713 42.1883L34.0008 19.7003L33.1675 20.1995ZM33.1673 20.1991L33.1692 20.2023L33.9991 19.6975L33.9972 19.6944L33.1673 20.1991ZM32.7658 19.8116C32.9307 19.9044 33.0691 20.038 33.1676 20.1996L33.9969 19.6939C33.8119 19.3904 33.5521 19.1395 33.2424 18.9651L32.7658 19.8116ZM32.2232 19.6693C32.4133 19.6693 32.6002 19.7183 32.7658 19.8116L33.2424 18.9651C32.9312 18.79 32.5802 18.698 32.2232 18.698V19.6693ZM31.6805 19.8116C31.8461 19.7183 32.033 19.6693 32.2232 19.6693V18.698C31.8661 18.698 31.5151 18.79 31.2039 18.9651L31.6805 19.8116ZM31.2787 20.1996C31.3773 20.038 31.5156 19.9044 31.6805 19.8116L31.2039 18.9651C30.8942 19.1395 30.6344 19.3904 30.4494 19.6939L31.2787 20.1996ZM34.3006 27.3063C34.3006 26.1589 33.3705 25.2288 32.2231 25.2288V26.2001C32.834 26.2001 33.3293 26.6953 33.3293 27.3063H34.3006ZM34.3006 33.6735V27.3063H33.3293V33.6735H34.3006ZM32.2231 35.751C33.3705 35.751 34.3006 34.8209 34.3006 33.6735H33.3293C33.3293 34.2844 32.834 34.7797 32.2231 34.7797V35.751ZM30.1456 33.6735C30.1456 34.8209 31.0758 35.751 32.2231 35.751V34.7797C31.6122 34.7797 31.117 34.2844 31.117 33.6735H30.1456ZM30.1456 27.3063V33.6735H31.117V27.3063H30.1456ZM32.2231 25.2288C31.0758 25.2288 30.1456 26.1589 30.1456 27.3063H31.117C31.117 26.6953 31.6122 26.2001 32.2231 26.2001V25.2288ZM31.117 40.0407C31.117 39.4298 31.6122 38.9345 32.2231 38.9345V37.9632C31.0758 37.9632 30.1456 38.8933 30.1456 40.0407H31.117ZM32.2231 41.1468C31.6122 41.1468 31.117 40.6516 31.117 40.0407H30.1456C30.1456 41.188 31.0758 42.1182 32.2231 42.1182V41.1468ZM32.239 41.1468H32.2231V42.1182H32.239V41.1468ZM33.3452 40.0407C33.3452 40.6516 32.85 41.1468 32.239 41.1468V42.1182C33.3864 42.1182 34.3165 41.188 34.3165 40.0407H33.3452ZM32.239 38.9345C32.85 38.9345 33.3452 39.4298 33.3452 40.0407H34.3165C34.3165 38.8933 33.3864 37.9632 32.239 37.9632V38.9345ZM32.2231 38.9345H32.239V37.9632H32.2231V38.9345Z" fill="black"/>
</g>
<path d="M18.7279 25.9V22.2058H19.5112V25.9H18.7279ZM24.2934 25.9H23.2978L21.6907 23.1053H21.668C21.6747 23.2216 21.6806 23.3386 21.6857 23.4566C21.6907 23.5745 21.6958 23.6924 21.7008 23.8103C21.7059 23.9266 21.7109 24.0436 21.716 24.1615V25.9H21.0161V22.2058H22.0041L23.6086 24.9727H23.6263C23.6229 24.8581 23.6187 24.7444 23.6137 24.6315C23.6086 24.5187 23.6036 24.4058 23.5985 24.2929C23.5951 24.1801 23.5918 24.0672 23.5884 23.9543V22.2058H24.2934V25.9ZM28.8659 24.0175C28.8659 24.4336 28.7859 24.7815 28.6258 25.0611C28.4675 25.3391 28.2375 25.5488 27.936 25.6903C27.6344 25.8301 27.2714 25.9 26.8469 25.9H25.8008V22.2058H26.9606C27.3481 22.2058 27.6841 22.2748 27.9688 22.413C28.2535 22.5494 28.4742 22.7524 28.6309 23.0219C28.7875 23.2898 28.8659 23.6216 28.8659 24.0175ZM28.0522 24.0377C28.0522 23.7648 28.0118 23.5408 27.9309 23.3656C27.8518 23.1887 27.7338 23.0582 27.5772 22.9739C27.4222 22.8897 27.2302 22.8476 27.0011 22.8476H26.5841V25.2531H26.9202C27.3026 25.2531 27.5864 25.1512 27.7717 24.9474C27.9587 24.7436 28.0522 24.4403 28.0522 24.0377ZM30.2065 25.9V22.2058H30.9898V25.9H30.2065ZM31.6898 21.0662V21.1192C31.6409 21.1664 31.5769 21.2245 31.4977 21.2936C31.4186 21.3626 31.3335 21.4351 31.2425 21.5109C31.1515 21.585 31.0623 21.6566 30.9747 21.7257C30.8871 21.793 30.8104 21.8495 30.7447 21.895H30.2318V21.8267C30.2874 21.7627 30.3514 21.6869 30.4238 21.5993C30.4979 21.51 30.5712 21.4182 30.6437 21.3239C30.7161 21.2296 30.7767 21.1436 30.8256 21.0662H31.6898ZM34.0639 22.8046C33.914 22.8046 33.7809 22.8341 33.6646 22.8931C33.5501 22.9503 33.4532 23.0337 33.3741 23.1432C33.2966 23.2527 33.2376 23.385 33.1972 23.5399C33.1567 23.6949 33.1365 23.8693 33.1365 24.063C33.1365 24.3241 33.1685 24.5473 33.2326 24.7326C33.2983 24.9162 33.3993 25.0569 33.5358 25.1546C33.6722 25.2506 33.8483 25.2986 34.0639 25.2986C34.2138 25.2986 34.3637 25.2818 34.5137 25.2481C34.6653 25.2144 34.8295 25.1664 35.0064 25.1041V25.761C34.843 25.8284 34.6821 25.8764 34.5238 25.9051C34.3654 25.9354 34.1877 25.9506 33.9906 25.9506C33.6099 25.9506 33.2966 25.8722 33.0506 25.7156C32.8064 25.5572 32.6253 25.3365 32.5073 25.0535C32.3894 24.7688 32.3305 24.437 32.3305 24.0579C32.3305 23.7783 32.3684 23.5223 32.4442 23.2898C32.52 23.0573 32.6312 22.856 32.7777 22.6859C32.9243 22.5157 33.1054 22.3843 33.321 22.2917C33.5366 22.199 33.7842 22.1527 34.0639 22.1527C34.2475 22.1527 34.4311 22.1763 34.6147 22.2235C34.8 22.2689 34.9769 22.3321 35.1454 22.413L34.8927 23.0497C34.7546 22.984 34.6156 22.9268 34.4758 22.8779C34.3359 22.8291 34.1987 22.8046 34.0639 22.8046ZM36.3698 25.9V22.2058H37.1531V25.9H36.3698ZM42.0111 24.0478C42.0111 24.3325 41.9757 24.592 41.905 24.8261C41.8342 25.0586 41.7264 25.259 41.5816 25.4275C41.4384 25.596 41.2564 25.7257 41.0358 25.8166C40.8151 25.9059 40.554 25.9506 40.2524 25.9506C39.9509 25.9506 39.6898 25.9059 39.4691 25.8166C39.2484 25.7257 39.0657 25.596 38.9208 25.4275C38.7776 25.259 38.6706 25.0577 38.5999 24.8236C38.5291 24.5894 38.4937 24.3292 38.4937 24.0428C38.4937 23.6604 38.5561 23.3277 38.6807 23.0447C38.8071 22.76 39.0008 22.5393 39.2619 22.3826C39.523 22.226 39.8549 22.1476 40.2575 22.1476C40.6584 22.1476 40.9877 22.226 41.2455 22.3826C41.5049 22.5393 41.697 22.76 41.8216 23.0447C41.948 23.3294 42.0111 23.6638 42.0111 24.0478ZM39.315 24.0478C39.315 24.3056 39.347 24.5279 39.411 24.7149C39.4767 24.9002 39.5786 25.0434 39.7167 25.1445C39.8549 25.2439 40.0334 25.2936 40.2524 25.2936C40.4748 25.2936 40.655 25.2439 40.7932 25.1445C40.9313 25.0434 41.0315 24.9002 41.0939 24.7149C41.1579 24.5279 41.1899 24.3056 41.1899 24.0478C41.1899 23.6604 41.1175 23.3555 40.9726 23.1331C40.8277 22.9108 40.5893 22.7996 40.2575 22.7996C40.0368 22.7996 39.8566 22.8501 39.7167 22.9512C39.5786 23.0506 39.4767 23.1938 39.411 23.3808C39.347 23.5661 39.315 23.7884 39.315 24.0478ZM45.5324 24.8741C45.5324 25.0931 45.4794 25.2835 45.3732 25.4452C45.2671 25.6069 45.1121 25.7316 44.9083 25.8192C44.7062 25.9068 44.4602 25.9506 44.1705 25.9506C44.0424 25.9506 43.9169 25.9421 43.794 25.9253C43.6727 25.9084 43.5556 25.884 43.4427 25.852C43.3315 25.8183 43.2254 25.7771 43.1243 25.7282V25.0005C43.2995 25.078 43.4815 25.1479 43.6701 25.2102C43.8588 25.2725 44.0458 25.3037 44.2311 25.3037C44.3591 25.3037 44.4619 25.2868 44.5394 25.2531C44.6186 25.2195 44.6758 25.1731 44.7112 25.1142C44.7466 25.0552 44.7643 24.9878 44.7643 24.912C44.7643 24.8194 44.7331 24.7402 44.6708 24.6745C44.6084 24.6088 44.5225 24.5473 44.413 24.49C44.3052 24.4328 44.1831 24.3713 44.0466 24.3056C43.9607 24.2652 43.8672 24.2163 43.7662 24.159C43.6651 24.1001 43.5691 24.0285 43.4781 23.9442C43.3871 23.86 43.3122 23.7581 43.2532 23.6385C43.1959 23.5172 43.1673 23.3723 43.1673 23.2039C43.1673 22.9832 43.2178 22.7945 43.3189 22.6379C43.42 22.4812 43.564 22.3616 43.751 22.279C43.9397 22.1948 44.162 22.1527 44.4181 22.1527C44.6101 22.1527 44.7929 22.1754 44.9664 22.2209C45.1416 22.2647 45.3244 22.3287 45.5147 22.413L45.2621 23.0219C45.0919 22.9529 44.9395 22.8998 44.8047 22.8627C44.6699 22.824 44.5326 22.8046 44.3928 22.8046C44.2951 22.8046 44.2117 22.8206 44.1427 22.8526C44.0736 22.883 44.0214 22.9268 43.986 22.984C43.9506 23.0396 43.9329 23.1045 43.9329 23.1786C43.9329 23.2662 43.9582 23.3403 44.0087 23.401C44.061 23.4599 44.1385 23.5172 44.2412 23.5728C44.3457 23.6284 44.4754 23.6932 44.6303 23.7674C44.819 23.8566 44.9799 23.9501 45.113 24.0478C45.2477 24.1439 45.3513 24.2576 45.4238 24.389C45.4962 24.5187 45.5324 24.6804 45.5324 24.8741ZM20.2282 32.2267C20.2282 32.5965 20.1609 32.9058 20.0261 33.1543C19.8913 33.4014 19.6959 33.5878 19.4399 33.7136C19.1853 33.8379 18.8761 33.9 18.5122 33.9H17.6205V30.6162H18.6111C18.945 30.6162 19.2325 30.6776 19.4736 30.8004C19.7146 30.9217 19.9003 31.1021 20.0306 31.3417C20.1624 31.5798 20.2282 31.8748 20.2282 32.2267ZM19.8262 32.2402C19.8262 31.9452 19.7768 31.7018 19.6779 31.5102C19.5806 31.3185 19.4369 31.1763 19.2467 31.0834C19.058 30.9891 18.8267 30.9419 18.5527 30.9419H18.0024V33.5721H18.4673C18.9195 33.5721 19.2587 33.4605 19.4848 33.2374C19.7124 33.0143 19.8262 32.6819 19.8262 32.2402ZM23.3615 33.9H21.5332V30.6162H23.3615V30.9532H21.9151V32.0156H23.2784V32.348H21.9151V33.5631H23.3615V33.9ZM27.3214 30.6162C27.5909 30.6162 27.8133 30.6499 27.9885 30.7173C28.1652 30.7832 28.297 30.8843 28.3838 31.0205C28.4706 31.1568 28.5141 31.3305 28.5141 31.5416C28.5141 31.7153 28.4826 31.8606 28.4197 31.9774C28.3568 32.0927 28.2745 32.1863 28.1727 32.2581C28.0708 32.33 27.9623 32.3854 27.847 32.4243L28.7477 33.9H28.3029L27.4988 32.5299H26.816V33.9H26.4342V30.6162H27.3214ZM27.2989 30.9464H26.816V32.2065H27.3371C27.6052 32.2065 27.8021 32.1518 27.9278 32.0425C28.0551 31.9332 28.1188 31.7722 28.1188 31.5596C28.1188 31.3365 28.0514 31.1785 27.9166 31.0857C27.7833 30.9928 27.5775 30.9464 27.2989 30.9464ZM31.6766 33.9H29.8483V30.6162H31.6766V30.9532H30.2301V32.0156H31.5935V32.348H30.2301V33.5631H31.6766V33.9ZM35.2726 30.6162L34.0934 33.9H33.7093L32.5301 30.6162H32.9299L33.6981 32.7792C33.7295 32.8661 33.7572 32.9492 33.7812 33.0285C33.8066 33.1079 33.8291 33.1843 33.8485 33.2576C33.868 33.331 33.8852 33.4021 33.9002 33.471C33.9152 33.4021 33.9324 33.331 33.9519 33.2576C33.9713 33.1828 33.9938 33.1057 34.0192 33.0263C34.0447 32.9454 34.0732 32.8608 34.1046 32.7725L34.8683 30.6162H35.2726ZM36.299 33.9V30.6162H36.6809V33.9H36.299ZM40.0118 33.0263C40.0118 33.221 39.9632 33.3872 39.8658 33.5249C39.77 33.6612 39.6352 33.7653 39.4615 33.8371C39.2878 33.909 39.0834 33.9449 38.8483 33.9449C38.7241 33.9449 38.6065 33.939 38.4957 33.927C38.3849 33.915 38.2831 33.8978 38.1902 33.8753C38.0974 33.8529 38.0158 33.8252 37.9454 33.7922V33.4261C38.0577 33.4725 38.1947 33.5159 38.3565 33.5564C38.5182 33.5953 38.6874 33.6148 38.8641 33.6148C39.0288 33.6148 39.168 33.5931 39.2818 33.5496C39.3956 33.5047 39.4817 33.4411 39.5401 33.3587C39.6 33.2749 39.63 33.1745 39.63 33.0577C39.63 32.9454 39.6053 32.8518 39.5559 32.777C39.5064 32.7006 39.4241 32.6317 39.3088 32.5703C39.195 32.5074 39.0393 32.4408 38.8416 32.3704C38.7023 32.321 38.5796 32.2671 38.4732 32.2087C38.3669 32.1488 38.2778 32.0814 38.206 32.0066C38.1341 31.9317 38.0794 31.8449 38.042 31.746C38.0061 31.6472 37.9881 31.5341 37.9881 31.4069C37.9881 31.2317 38.0323 31.0819 38.1206 30.9576C38.2105 30.8319 38.334 30.736 38.4912 30.6701C38.6499 30.6028 38.8319 30.5691 39.037 30.5691C39.2122 30.5691 39.3739 30.5855 39.5222 30.6185C39.6719 30.6514 39.8089 30.6956 39.9332 30.751L39.8142 31.0789C39.6959 31.0295 39.5701 30.9883 39.4368 30.9554C39.305 30.9225 39.1688 30.906 39.028 30.906C38.8873 30.906 38.7682 30.9269 38.6709 30.9689C38.5751 31.0093 38.5017 31.067 38.4508 31.1418C38.3999 31.2167 38.3744 31.3058 38.3744 31.4091C38.3744 31.5244 38.3984 31.6202 38.4463 31.6966C38.4957 31.773 38.5736 31.8411 38.6799 31.901C38.7877 31.9594 38.93 32.0208 39.1066 32.0852C39.2998 32.1556 39.4638 32.2304 39.5985 32.3098C39.7333 32.3877 39.8359 32.4835 39.9063 32.5973C39.9766 32.7096 40.0118 32.8526 40.0118 33.0263ZM42.2669 33.9H41.8828V30.9532H40.8496V30.6162H43.2956V30.9532H42.2669V33.9ZM46.4267 33.9L46.0224 32.8578H44.7062L44.3041 33.9H43.9178L45.2025 30.6028H45.5462L46.822 33.9H46.4267ZM45.9078 32.5187L45.5237 31.4832C45.5147 31.4563 45.4998 31.4121 45.4788 31.3507C45.4593 31.2893 45.4391 31.2257 45.4182 31.1598C45.3972 31.0939 45.38 31.0407 45.3665 31.0003C45.3515 31.0617 45.3351 31.1231 45.3171 31.1845C45.3006 31.2444 45.2841 31.3005 45.2677 31.353C45.2512 31.4039 45.237 31.4473 45.225 31.4832L44.8342 32.5187H45.9078ZM14.6633 38.2058C15.14 38.2058 15.4879 38.3085 15.7069 38.514C15.9259 38.7179 16.0353 38.9992 16.0353 39.358C16.0353 39.5197 16.0109 39.6747 15.9621 39.823C15.9132 39.9695 15.8332 40.1001 15.722 40.2146C15.6125 40.3292 15.466 40.4201 15.2823 40.4875C15.0987 40.5532 14.8722 40.5861 14.6026 40.5861H14.2666V41.9H13.4832V38.2058H14.6633ZM14.6228 38.8476H14.2666V39.9442H14.5243C14.6708 39.9442 14.798 39.9249 14.9058 39.8861C15.0137 39.8474 15.097 39.7867 15.156 39.7042C15.215 39.6216 15.2444 39.5155 15.2444 39.3858C15.2444 39.2039 15.1939 39.0691 15.0928 38.9815C14.9918 38.8922 14.8351 38.8476 14.6228 38.8476ZM18.3842 38.2058C18.7194 38.2058 18.9957 38.2462 19.213 38.3271C19.432 38.4079 19.5946 38.53 19.7007 38.6934C19.8068 38.8569 19.8599 39.0632 19.8599 39.3125C19.8599 39.481 19.8279 39.6284 19.7639 39.7547C19.6998 39.8811 19.6156 39.988 19.5112 40.0756C19.4067 40.1632 19.2939 40.2348 19.1726 40.2904L20.2591 41.9H19.3899L18.508 40.4825H18.0911V41.9H17.3078V38.2058H18.3842ZM18.3286 38.8476H18.0911V39.8457H18.3438C18.6032 39.8457 18.7885 39.8027 18.8997 39.7168C19.0125 39.6292 19.069 39.5012 19.069 39.3327C19.069 39.1575 19.0083 39.0329 18.887 38.9588C18.7674 38.8846 18.5813 38.8476 18.3286 38.8476ZM23.4267 41.9H21.2991V38.2058H23.4267V38.8476H22.0824V39.6587H23.3332V40.3005H22.0824V41.2531H23.4267V41.9ZM27.84 40.0175C27.84 40.4336 27.7599 40.7815 27.5999 41.0611C27.4416 41.3391 27.2116 41.5488 26.9101 41.6903C26.6085 41.8301 26.2455 41.9 25.821 41.9H24.7749V38.2058H25.9347C26.3222 38.2058 26.6582 38.2748 26.9429 38.413C27.2276 38.5494 27.4483 38.7524 27.605 39.0219C27.7616 39.2898 27.84 39.6216 27.84 40.0175ZM27.0263 40.0377C27.0263 39.7648 26.9859 39.5408 26.905 39.3656C26.8259 39.1887 26.7079 39.0582 26.5513 38.9739C26.3963 38.8897 26.2042 38.8476 25.9751 38.8476H25.5582V41.2531H25.8943C26.2767 41.2531 26.5605 41.1512 26.7458 40.9474C26.9328 40.7436 27.0263 40.4403 27.0263 40.0377ZM31.4421 41.9L31.1743 41.0207H29.8275L29.5596 41.9H28.7157L30.0195 38.1906H30.9772L32.2861 41.9H31.4421ZM30.9873 40.3637L30.7195 39.5046C30.7026 39.4473 30.6799 39.374 30.6512 39.2847C30.6243 39.1938 30.5965 39.102 30.5678 39.0093C30.5409 38.915 30.519 38.8333 30.5021 38.7642C30.4853 38.8333 30.4617 38.9192 30.4314 39.0219C30.4028 39.123 30.375 39.219 30.348 39.31C30.3211 39.401 30.3017 39.4658 30.2899 39.5046L30.0246 40.3637H30.9873ZM34.7537 41.9H33.9704V38.8577H32.9672V38.2058H35.7569V38.8577H34.7537V41.9ZM40.2536 40.0478C40.2536 40.3325 40.2182 40.592 40.1474 40.8261C40.0767 41.0586 39.9689 41.259 39.824 41.4275C39.6808 41.596 39.4989 41.7257 39.2782 41.8166C39.0575 41.9059 38.7964 41.9506 38.4949 41.9506C38.1933 41.9506 37.9322 41.9059 37.7115 41.8166C37.4909 41.7257 37.3081 41.596 37.1632 41.4275C37.02 41.259 36.9131 41.0577 36.8423 40.8236C36.7716 40.5894 36.7362 40.3292 36.7362 40.0428C36.7362 39.6604 36.7985 39.3277 36.9232 39.0447C37.0495 38.76 37.2432 38.5393 37.5043 38.3826C37.7654 38.226 38.0973 38.1476 38.4999 38.1476C38.9008 38.1476 39.2302 38.226 39.4879 38.3826C39.7473 38.5393 39.9394 38.76 40.064 39.0447C40.1904 39.3294 40.2536 39.6638 40.2536 40.0478ZM37.5574 40.0478C37.5574 40.3056 37.5894 40.5279 37.6534 40.7149C37.7191 40.9002 37.821 41.0434 37.9592 41.1445C38.0973 41.2439 38.2759 41.2936 38.4949 41.2936C38.7172 41.2936 38.8975 41.2439 39.0356 41.1445C39.1737 41.0434 39.274 40.9002 39.3363 40.7149C39.4003 40.5279 39.4323 40.3056 39.4323 40.0478C39.4323 39.6604 39.3599 39.3555 39.215 39.1331C39.0701 38.9108 38.8318 38.7996 38.4999 38.7996C38.2792 38.7996 38.099 38.8501 37.9592 38.9512C37.821 39.0506 37.7191 39.1938 37.6534 39.3808C37.5894 39.5661 37.5574 39.7884 37.5574 40.0478ZM39.4879 37.0662V37.1192C39.4391 37.1664 39.3751 37.2245 39.2959 37.2936C39.2167 37.3626 39.1316 37.4351 39.0407 37.5109C38.9497 37.585 38.8604 37.6566 38.7728 37.7257C38.6852 37.793 38.6086 37.8495 38.5429 37.895H38.0299V37.8267C38.0855 37.7627 38.1495 37.6869 38.222 37.5993C38.2961 37.51 38.3694 37.4182 38.4418 37.3239C38.5142 37.2296 38.5749 37.1436 38.6237 37.0662H39.4879ZM42.6706 38.2058C43.0059 38.2058 43.2821 38.2462 43.4994 38.3271C43.7184 38.4079 43.881 38.53 43.9871 38.6934C44.0932 38.8569 44.1463 39.0632 44.1463 39.3125C44.1463 39.481 44.1143 39.6284 44.0503 39.7547C43.9863 39.8811 43.9021 39.988 43.7976 40.0756C43.6932 40.1632 43.5803 40.2348 43.459 40.2904L44.5456 41.9H43.6763L42.7944 40.4825H42.3775V41.9H41.5942V38.2058H42.6706ZM42.615 38.8476H42.3775V39.8457H42.6302C42.8896 39.8457 43.0749 39.8027 43.1861 39.7168C43.299 39.6292 43.3554 39.5012 43.3554 39.3327C43.3554 39.1575 43.2948 39.0329 43.1735 38.9588C43.0539 38.8846 42.8677 38.8476 42.615 38.8476ZM45.5855 41.9V38.2058H46.3688V41.9H45.5855ZM50.1352 41.9L49.8674 41.0207H48.5206L48.2527 41.9H47.4088L48.7126 38.1906H49.6703L50.9792 41.9H50.1352ZM49.6804 40.3637L49.4126 39.5046C49.3957 39.4473 49.373 39.374 49.3443 39.2847C49.3174 39.1938 49.2896 39.102 49.2609 39.0093C49.234 38.915 49.2121 38.8333 49.1952 38.7642C49.1784 38.8333 49.1548 38.9192 49.1245 39.0219C49.0959 39.123 49.0681 39.219 49.0411 39.31C49.0142 39.401 48.9948 39.4658 48.983 39.5046L48.7177 40.3637H49.6804Z" fill="white"/>
<path d="M11.3 35.45L52.7 35.45" stroke="white" stroke-width="0.43125" stroke-linecap="round" stroke-dasharray="0.86 0.86"/>
<path d="M11.3 29.4125L52.7 29.4125" stroke="white" stroke-width="0.43125" stroke-linecap="round" stroke-dasharray="0.86 0.86"/>
<defs>
<linearGradient id="paint0_linear_738_2064" x1="31.8532" y1="-12" x2="32" y2="35" gradientUnits="userSpaceOnUse">
<stop stop-color="white"/>
<stop offset="1" stop-color="white" stop-opacity="0"/>
</linearGradient>
</defs>
</svg>
