<svg width="624" height="104" viewBox="0 0 624 104" fill="none" xmlns="http://www.w3.org/2000/svg">
<path d="M444.579 33.5214V21.8964L439.413 30.9381H438.517L433.35 21.8964V33.5214H431.934V19.2506H433.371L438.954 29.0214L444.559 19.2506H445.996V33.5214H444.579Z" fill="#2C2B2C"/>
<path d="M453.551 33.5214V19.2506H454.967V33.5214H453.551Z" fill="#2C2B2C"/>
<path d="M463.924 21.8339V33.5214H462.508V19.2506H463.674L473.029 31.1464V19.2714H474.445V33.5214H473.154L463.924 21.8339Z" fill="#2C2B2C"/>
<path d="M482.016 33.5214V19.2506H483.432V33.5214H482.016Z" fill="#2C2B2C"/>
<path d="M499.311 21.9173C498.895 21.459 498.342 21.0944 497.665 20.8132C496.999 20.5371 496.249 20.3965 495.415 20.3965C494.191 20.3965 493.28 20.6257 492.686 21.084C492.087 21.5423 491.79 22.1986 491.79 23.0423C491.79 23.3757 491.842 23.6777 491.957 23.9382C492.066 24.1882 492.212 24.4069 492.395 24.584C492.572 24.7507 492.837 24.9121 493.186 25.0632C493.546 25.2038 493.915 25.3288 494.29 25.4382C494.665 25.5371 495.155 25.6569 495.77 25.7923C496.311 25.9069 496.78 26.0215 497.186 26.1465C497.587 26.2611 497.983 26.3913 498.374 26.5423C498.775 26.6986 499.108 26.8757 499.374 27.084C499.634 27.2819 499.874 27.5111 500.082 27.7715C500.301 28.0215 500.462 28.3132 500.561 28.6465C500.655 28.9798 500.707 29.3548 500.707 29.7715C500.707 30.6361 500.483 31.3652 500.04 31.959C499.592 32.5423 498.988 32.9746 498.228 33.2507C497.462 33.5163 496.572 33.6465 495.561 33.6465C493.353 33.6465 491.441 32.9538 489.832 31.5632L490.54 30.4382C491.066 31.0111 491.78 31.4798 492.686 31.8548C493.587 32.2194 494.561 32.3965 495.603 32.3965C496.754 32.3965 497.645 32.1882 498.27 31.7715C498.905 31.3548 499.228 30.7402 499.228 29.9173C499.228 29.5736 499.165 29.2663 499.04 29.0007C498.915 28.7402 498.738 28.5111 498.52 28.3132C498.311 28.1204 498.02 27.9486 497.645 27.7923C497.27 27.6257 496.874 27.4902 496.457 27.3757C496.051 27.2507 495.54 27.1152 494.915 26.959C494.275 26.8079 493.733 26.6673 493.29 26.5423C492.842 26.4069 492.421 26.2402 492.02 26.0423C491.629 25.834 491.316 25.6048 491.082 25.3548C490.858 25.1048 490.676 24.8079 490.54 24.459C490.415 24.1152 490.353 23.709 490.353 23.2507C490.353 21.9486 490.816 20.9382 491.749 20.2298C492.676 19.5111 493.905 19.1465 495.436 19.1465C497.228 19.1465 498.749 19.6986 499.999 20.7923L499.311 21.9173Z" fill="#2C2B2C"/>
<path d="M517.29 20.5006H512.207V33.5214H510.811V20.5006H505.707V19.2506H517.29V20.5006Z" fill="#2C2B2C"/>
<path d="M528.848 17.2923L527.952 16.959L529.139 15.084H530.577L528.848 17.2923ZM532.993 32.2715V33.5215H523.41V19.2507H532.827V20.5007H524.827V25.6465H531.785V26.834H524.827V32.2715H532.993Z" fill="#2C2B2C"/>
<path d="M539.637 33.5214V19.2506H545.678C546.454 19.2506 547.168 19.4746 547.824 19.9173C548.491 20.3496 548.996 20.9121 549.345 21.6048C549.704 22.2871 549.887 22.9954 549.887 23.7298C549.887 24.7871 549.585 25.7194 548.991 26.5214C548.408 27.3287 547.642 27.8287 546.699 28.0214L550.22 33.5214H548.616L545.262 28.2506H541.053V33.5214H539.637ZM541.053 27.0006H545.699C546.251 27.0006 546.741 26.8496 547.158 26.5423C547.585 26.2246 547.913 25.8235 548.137 25.3339C548.355 24.8339 548.47 24.3027 548.47 23.7298C548.47 22.8704 548.184 22.1204 547.616 21.4798C547.043 20.8287 546.366 20.5006 545.574 20.5006H541.053V27.0006Z" fill="#2C2B2C"/>
<path d="M556.746 33.5214V19.2506H558.163V33.5214H556.746Z" fill="#2C2B2C"/>
<path d="M564.77 26.3757C564.77 25.4486 564.936 24.5423 565.27 23.6673C565.613 22.7819 566.082 22.0111 566.665 21.3548C567.259 20.6882 567.978 20.1569 568.811 19.7507C569.655 19.3496 570.546 19.1465 571.478 19.1465C572.238 19.1465 572.978 19.2871 573.686 19.5632C574.395 19.8288 575.009 20.1986 575.54 20.6673C576.082 21.1413 576.546 21.6882 576.936 22.3132C577.337 22.9277 577.634 23.584 577.832 24.2923C578.04 24.9902 578.145 25.6882 578.145 26.3965C578.145 27.3444 577.967 28.2611 577.624 29.1465C577.29 30.0215 576.822 30.7923 576.228 31.459C575.645 32.1152 574.936 32.6413 574.103 33.0423C573.27 33.4329 572.384 33.6257 571.457 33.6257C570.483 33.6257 569.572 33.4173 568.728 33.0007C567.879 32.584 567.171 32.0423 566.603 31.3757C566.03 30.6986 565.582 29.9277 565.249 29.0632C564.926 28.1882 564.77 27.2923 564.77 26.3757ZM571.457 32.3548C572.233 32.3548 572.957 32.1829 573.624 31.834C574.301 31.4902 574.863 31.0371 575.311 30.4798C575.77 29.9121 576.124 29.2715 576.374 28.5632C576.624 27.8548 576.749 27.1257 576.749 26.3757C576.749 25.3496 576.525 24.3861 576.082 23.4798C575.634 22.5788 575.004 21.8496 574.186 21.2923C573.363 20.7246 572.457 20.4382 571.457 20.4382C570.665 20.4382 569.926 20.6152 569.249 20.959C568.582 21.2923 568.025 21.7454 567.582 22.3132C567.134 22.8704 566.79 23.5007 566.54 24.209C566.29 24.9173 566.165 25.6413 566.165 26.3757C566.165 27.1569 566.296 27.9069 566.561 28.6257C566.822 29.3496 567.176 29.9902 567.624 30.5423C568.082 31.084 568.645 31.5215 569.311 31.8548C569.978 32.1882 570.691 32.3548 571.457 32.3548Z" fill="#2C2B2C"/>
<path d="M593.898 33.5214V19.2506H598.753C599.638 19.2506 600.451 19.3756 601.19 19.6256C601.94 19.8652 602.576 20.1985 603.107 20.6256C603.648 21.0579 604.107 21.5735 604.482 22.1673C604.857 22.7506 605.128 23.3964 605.294 24.1048C605.471 24.8131 605.565 25.5735 605.565 26.3756C605.565 28.5319 604.945 30.261 603.711 31.5631C602.471 32.8704 600.82 33.5214 598.753 33.5214H593.898ZM598.753 20.5006H595.315V32.2714H598.753C599.888 32.2714 600.878 32.0162 601.711 31.5006C602.544 30.9746 603.159 30.2714 603.565 29.3964C603.966 28.511 604.169 27.5006 604.169 26.3756C604.169 24.6256 603.69 23.2089 602.732 22.1256C601.773 21.0423 600.445 20.5006 598.753 20.5006Z" fill="#2C2B2C"/>
<path d="M616.673 19.2506H617.861L623.798 33.5214H622.298L620.465 29.0631H614.048L612.215 33.5214H610.715L616.673 19.2506ZM620.132 27.9589L617.257 20.8964L614.34 27.9589H620.132Z" fill="#2C2B2C"/>
<path d="M340.964 47.1674C342.224 47.1674 343.344 47.4538 344.318 48.0215C345.302 48.5788 346.031 49.3288 346.505 50.2715L344.38 51.7507C344.141 51.2403 343.823 50.8236 343.422 50.5007C343.016 50.1674 342.609 49.9382 342.193 49.8132C341.776 49.6882 341.339 49.6257 340.88 49.6257C340.214 49.6257 339.609 49.7663 339.068 50.0424C338.526 50.3236 338.089 50.6882 337.755 51.1465C337.422 51.6049 337.161 52.1153 336.984 52.6674C336.818 53.2247 336.734 53.7924 336.734 54.3757C336.734 55.209 336.906 55.9955 337.255 56.7299C337.599 57.4694 338.094 58.0632 338.734 58.5215C339.385 58.9694 340.115 59.1882 340.922 59.1882C341.38 59.1882 341.823 59.1205 342.255 58.9799C342.698 58.8444 343.12 58.6049 343.526 58.2715C343.927 57.9278 344.234 57.5111 344.443 57.0215L346.714 58.3132C346.422 58.9955 345.953 59.5944 345.318 60.1049C344.677 60.6205 343.969 61.0111 343.193 61.2715C342.411 61.5215 341.63 61.6465 340.839 61.6465C340.047 61.6465 339.281 61.5111 338.547 61.2299C337.823 60.9538 337.182 60.5788 336.63 60.1049C336.089 59.6205 335.609 59.0736 335.193 58.459C334.776 57.834 334.453 57.1674 334.234 56.459C334.026 55.7403 333.922 55.0163 333.922 54.2924C333.922 53.4174 334.078 52.558 334.401 51.709C334.719 50.8653 335.172 50.1049 335.755 49.4382C336.339 48.7611 337.078 48.209 337.984 47.7924C338.885 47.3757 339.88 47.1674 340.964 47.1674Z" fill="#2C2B2C"/>
<path d="M352.566 61.5214V47.2506H355.316V61.5214H352.566Z" fill="#2C2B2C"/>
<path d="M364.23 45.1673L366.355 43.1256H368.314L370.439 45.1673L369.064 45.7923L367.355 44.5214L365.647 45.7923L364.23 45.1673ZM372.189 59.0839V61.5214H362.293V47.2506H372.022V49.6881H365.043V53.1256H371.064V55.3756H365.043V59.0839H372.189Z" fill="#2C2B2C"/>
<path d="M381.102 52.3548V61.5214H378.352V47.2506H380.56L387.935 56.6464V47.2714H390.706V61.5214H388.393L381.102 52.3548Z" fill="#2C2B2C"/>
<path d="M403.839 47.1674C405.099 47.1674 406.219 47.4538 407.193 48.0215C408.177 48.5788 408.906 49.3288 409.38 50.2715L407.255 51.7507C407.016 51.2403 406.698 50.8236 406.297 50.5007C405.891 50.1674 405.484 49.9382 405.068 49.8132C404.651 49.6882 404.214 49.6257 403.755 49.6257C403.089 49.6257 402.484 49.7663 401.943 50.0424C401.401 50.3236 400.964 50.6882 400.63 51.1465C400.297 51.6049 400.036 52.1153 399.859 52.6674C399.693 53.2247 399.609 53.7924 399.609 54.3757C399.609 55.209 399.781 55.9955 400.13 56.7299C400.474 57.4694 400.969 58.0632 401.609 58.5215C402.26 58.9694 402.99 59.1882 403.797 59.1882C404.255 59.1882 404.698 59.1205 405.13 58.9799C405.573 58.8444 405.995 58.6049 406.401 58.2715C406.802 57.9278 407.109 57.5111 407.318 57.0215L409.589 58.3132C409.297 58.9955 408.828 59.5944 408.193 60.1049C407.552 60.6205 406.844 61.0111 406.068 61.2715C405.286 61.5215 404.505 61.6465 403.714 61.6465C402.922 61.6465 402.156 61.5111 401.422 61.2299C400.698 60.9538 400.057 60.5788 399.505 60.1049C398.964 59.6205 398.484 59.0736 398.068 58.459C397.651 57.834 397.328 57.1674 397.109 56.459C396.901 55.7403 396.797 55.0163 396.797 54.2924C396.797 53.4174 396.953 52.558 397.276 51.709C397.594 50.8653 398.047 50.1049 398.63 49.4382C399.214 48.7611 399.953 48.209 400.859 47.7924C401.76 47.3757 402.755 47.1674 403.839 47.1674Z" fill="#2C2B2C"/>
<path d="M415.438 61.5214V47.2506H418.188V61.5214H415.438Z" fill="#2C2B2C"/>
<path d="M429.04 47.2506H431.853L437.103 61.5214H434.228L432.915 57.9589H427.915L426.624 61.5214H423.77L429.04 47.2506ZM432.415 56.0214L430.436 50.1256L428.395 56.0214H432.415Z" fill="#2C2B2C"/>
<path d="M442.637 63.8339L443.178 61.4381H442.324V58.6256H444.658V61.4381L443.824 63.8339H442.637Z" fill="#2C2B2C"/>
<path d="M470.773 49.6881H466.211V61.5214H463.461V49.6881H458.898V47.2506H470.773V49.6881Z" fill="#2C2B2C"/>
<path d="M486.427 59.0839V61.5214H476.531V47.2506H486.26V49.6881H479.281V53.1256H485.302V55.3756H479.281V59.0839H486.427Z" fill="#2C2B2C"/>
<path d="M498.757 47.1674C500.017 47.1674 501.137 47.4538 502.111 48.0215C503.095 48.5788 503.824 49.3288 504.298 50.2715L502.173 51.7507C501.934 51.2403 501.616 50.8236 501.215 50.5007C500.809 50.1674 500.402 49.9382 499.986 49.8132C499.569 49.6882 499.132 49.6257 498.673 49.6257C498.007 49.6257 497.402 49.7663 496.861 50.0424C496.319 50.3236 495.882 50.6882 495.548 51.1465C495.215 51.6049 494.954 52.1153 494.777 52.6674C494.611 53.2247 494.527 53.7924 494.527 54.3757C494.527 55.209 494.699 55.9955 495.048 56.7299C495.392 57.4694 495.887 58.0632 496.527 58.5215C497.178 58.9694 497.908 59.1882 498.715 59.1882C499.173 59.1882 499.616 59.1205 500.048 58.9799C500.491 58.8444 500.913 58.6049 501.319 58.2715C501.72 57.9278 502.027 57.5111 502.236 57.0215L504.507 58.3132C504.215 58.9955 503.746 59.5944 503.111 60.1049C502.47 60.6205 501.762 61.0111 500.986 61.2715C500.204 61.5215 499.423 61.6465 498.632 61.6465C497.84 61.6465 497.074 61.5111 496.34 61.2299C495.616 60.9538 494.975 60.5788 494.423 60.1049C493.882 59.6205 493.402 59.0736 492.986 58.459C492.569 57.834 492.246 57.1674 492.027 56.459C491.819 55.7403 491.715 55.0163 491.715 54.2924C491.715 53.4174 491.871 52.558 492.194 51.709C492.512 50.8653 492.965 50.1049 493.548 49.4382C494.132 48.7611 494.871 48.209 495.777 47.7924C496.678 47.3757 497.673 47.1674 498.757 47.1674Z" fill="#2C2B2C"/>
<path d="M513.109 52.3548V61.5214H510.359V47.2506H512.568L519.943 56.6464V47.2714H522.714V61.5214H520.401L513.109 52.3548Z" fill="#2C2B2C"/>
<path d="M528.805 54.3757C528.805 53.4486 528.977 52.5423 529.326 51.6673C529.685 50.7819 530.169 50.0111 530.784 49.3548C531.393 48.6882 532.138 48.1569 533.013 47.7507C533.888 47.3496 534.826 47.1465 535.826 47.1465C536.628 47.1465 537.393 47.2871 538.117 47.5632C538.852 47.8288 539.492 48.2038 540.034 48.6882C540.586 49.1621 541.065 49.7038 541.471 50.3132C541.888 50.9277 542.201 51.584 542.409 52.2923C542.628 52.9902 542.742 53.6986 542.742 54.4173C542.742 55.3652 542.56 56.2715 542.201 57.1465C541.852 58.0215 541.372 58.7923 540.763 59.459C540.164 60.1152 539.43 60.6413 538.555 61.0423C537.68 61.4329 536.747 61.6257 535.763 61.6257C534.94 61.6257 534.164 61.4954 533.43 61.2298C532.706 60.9694 532.065 60.6048 531.513 60.1465C530.956 59.6777 530.471 59.1361 530.055 58.5215C529.638 57.9121 529.326 57.2507 529.117 56.5423C528.909 55.834 528.805 55.1152 528.805 54.3757ZM535.784 59.1673C536.419 59.1673 537.013 59.0319 537.555 58.7507C538.096 58.4746 538.534 58.1152 538.867 57.6673C539.211 57.209 539.477 56.6986 539.659 56.1257C539.836 55.5579 539.93 54.9746 539.93 54.3757C539.93 53.5423 539.763 52.7715 539.43 52.0632C539.107 51.3444 538.622 50.7611 537.971 50.3132C537.331 49.8548 536.602 49.6257 535.784 49.6257C535.128 49.6257 534.534 49.7663 533.992 50.0423C533.461 50.3079 533.023 50.6673 532.68 51.1257C532.346 51.584 532.081 52.0996 531.888 52.6673C531.706 53.2246 531.617 53.7923 531.617 54.3757C531.617 55.2246 531.773 56.0111 532.096 56.7298C532.414 57.4382 532.893 58.0215 533.534 58.4798C534.185 58.9382 534.935 59.1673 535.784 59.1673Z" fill="#2C2B2C"/>
<path d="M548.859 61.5214V47.2506H551.609V59.0839H558.901V61.5214H548.859Z" fill="#2C2B2C"/>
<path d="M563.711 54.3757C563.711 53.4486 563.883 52.5423 564.232 51.6673C564.591 50.7819 565.076 50.0111 565.69 49.3548C566.299 48.6882 567.044 48.1569 567.919 47.7507C568.794 47.3496 569.732 47.1465 570.732 47.1465C571.534 47.1465 572.299 47.2871 573.023 47.5632C573.758 47.8288 574.398 48.2038 574.94 48.6882C575.492 49.1621 575.971 49.7038 576.378 50.3132C576.794 50.9277 577.107 51.584 577.315 52.2923C577.534 52.9902 577.648 53.6986 577.648 54.4173C577.648 55.3652 577.466 56.2715 577.107 57.1465C576.758 58.0215 576.279 58.7923 575.669 59.459C575.07 60.1152 574.336 60.6413 573.461 61.0423C572.586 61.4329 571.654 61.6257 570.669 61.6257C569.846 61.6257 569.07 61.4954 568.336 61.2298C567.612 60.9694 566.971 60.6048 566.419 60.1465C565.862 59.6777 565.378 59.1361 564.961 58.5215C564.544 57.9121 564.232 57.2507 564.023 56.5423C563.815 55.834 563.711 55.1152 563.711 54.3757ZM570.69 59.1673C571.326 59.1673 571.919 59.0319 572.461 58.7507C573.003 58.4746 573.44 58.1152 573.773 57.6673C574.117 57.209 574.383 56.6986 574.565 56.1257C574.742 55.5579 574.836 54.9746 574.836 54.3757C574.836 53.5423 574.669 52.7715 574.336 52.0632C574.013 51.3444 573.529 50.7611 572.878 50.3132C572.237 49.8548 571.508 49.6257 570.69 49.6257C570.034 49.6257 569.44 49.7663 568.898 50.0423C568.367 50.3079 567.93 50.6673 567.586 51.1257C567.253 51.584 566.987 52.0996 566.794 52.6673C566.612 53.2246 566.523 53.7923 566.523 54.3757C566.523 55.2246 566.68 56.0111 567.003 56.7298C567.32 57.4382 567.799 58.0215 568.44 58.4798C569.091 58.9382 569.841 59.1673 570.69 59.1673Z" fill="#2C2B2C"/>
<path d="M590.789 54.1882H595.956V61.5215H593.664V59.8965C592.508 61.0527 591.185 61.6257 589.685 61.6257C588.445 61.6257 587.31 61.3079 586.268 60.6673C585.237 60.0163 584.419 59.1361 583.81 58.0215C583.211 56.8965 582.914 55.6621 582.914 54.3132C582.914 53.3444 583.086 52.4173 583.435 51.5423C583.794 50.6673 584.279 49.9121 584.893 49.2715C585.518 48.6204 586.258 48.1048 587.122 47.7298C587.982 47.3444 588.898 47.1465 589.872 47.1465C591.174 47.1465 592.315 47.4277 593.289 47.9798C594.258 48.5371 594.987 49.3027 595.477 50.2715L593.414 51.7923C593.049 51.0996 592.544 50.5632 591.893 50.1882C591.253 49.8027 590.544 49.6048 589.768 49.6048C588.977 49.6048 588.268 49.8288 587.643 50.2715C587.018 50.7038 586.539 51.2871 586.206 52.0215C585.872 52.7454 585.706 53.5319 585.706 54.3757C585.706 55.7402 586.102 56.8757 586.893 57.7923C587.695 58.709 588.711 59.1673 589.935 59.1673C591.31 59.1673 592.549 58.5163 593.664 57.209V56.209H590.789V54.1882Z" fill="#2C2B2C"/>
<path d="M602.32 61.5214V47.2506H605.07V61.5214H602.32Z" fill="#2C2B2C"/>
<path d="M615.923 47.2506H618.736L623.986 61.5214H621.111L619.798 57.9589H614.798L613.507 61.5214H610.652L615.923 47.2506ZM619.298 56.0214L617.319 50.1256L615.277 56.0214H619.298Z" fill="#2C2B2C"/>
<path d="M476.833 87.0839V89.5214H466.938V75.2506H476.667V77.6881H469.688V81.1256H475.708V83.3756H469.688V87.0839H476.833Z" fill="#2C2B2C"/>
<path d="M491.801 89.5214V75.2506H494.551V89.5214H491.801Z" fill="#2C2B2C"/>
<path d="M504.277 80.3548V89.5214H501.527V75.2506H503.736L511.111 84.6464V75.2714H513.882V89.5214H511.569L504.277 80.3548Z" fill="#2C2B2C"/>
<path d="M519.973 82.3757C519.973 81.4486 520.145 80.5423 520.493 79.6673C520.853 78.7819 521.337 78.0111 521.952 77.3548C522.561 76.6882 523.306 76.1569 524.181 75.7507C525.056 75.3496 525.993 75.1465 526.993 75.1465C527.796 75.1465 528.561 75.2871 529.285 75.5632C530.02 75.8288 530.66 76.2038 531.202 76.6882C531.754 77.1621 532.233 77.7038 532.639 78.3132C533.056 78.9277 533.368 79.584 533.577 80.2923C533.796 80.9902 533.91 81.6986 533.91 82.4173C533.91 83.3652 533.728 84.2715 533.368 85.1465C533.02 86.0215 532.54 86.7923 531.931 87.459C531.332 88.1152 530.598 88.6413 529.723 89.0423C528.848 89.4329 527.915 89.6257 526.931 89.6257C526.108 89.6257 525.332 89.4954 524.598 89.2298C523.874 88.9694 523.233 88.6048 522.681 88.1465C522.124 87.6777 521.639 87.1361 521.223 86.5215C520.806 85.9121 520.493 85.2507 520.285 84.5423C520.077 83.834 519.973 83.1152 519.973 82.3757ZM526.952 87.1673C527.587 87.1673 528.181 87.0319 528.723 86.7507C529.264 86.4746 529.702 86.1152 530.035 85.6673C530.379 85.209 530.645 84.6986 530.827 84.1257C531.004 83.5579 531.098 82.9746 531.098 82.3757C531.098 81.5423 530.931 80.7715 530.598 80.0632C530.275 79.3444 529.79 78.7611 529.139 78.3132C528.499 77.8548 527.77 77.6257 526.952 77.6257C526.296 77.6257 525.702 77.7663 525.16 78.0423C524.629 78.3079 524.191 78.6673 523.848 79.1257C523.514 79.584 523.249 80.0996 523.056 80.6673C522.874 81.2246 522.785 81.7923 522.785 82.3757C522.785 83.2246 522.941 84.0111 523.264 84.7298C523.582 85.4382 524.061 86.0215 524.702 86.4798C525.353 86.9382 526.103 87.1673 526.952 87.1673Z" fill="#2C2B2C"/>
<path d="M541.487 75.2506L545.341 86.2298L549.154 75.2506H552.07L546.674 89.5214H543.987L538.57 75.2506H541.487Z" fill="#2C2B2C"/>
<path d="M561.474 75.2506H564.286L569.536 89.5214H566.661L565.349 85.9589H560.349L559.057 89.5214H556.203L561.474 75.2506ZM564.849 84.0214L562.87 78.1256L560.828 84.0214H564.849Z" fill="#2C2B2C"/>
<path d="M587.01 86.3132C586.635 87.1882 585.995 87.9122 585.094 88.4799C584.187 89.0528 583.203 89.4122 582.135 89.5632C582.812 90.1569 583.156 90.8236 583.156 91.5632C583.156 92.1569 582.953 92.6361 582.552 93.0007C582.161 93.3757 581.604 93.5632 580.885 93.5632C580.104 93.5632 579.307 93.3601 578.49 92.959L579.156 91.5424C579.599 91.8184 580.021 91.959 580.427 91.959C580.771 91.959 581.042 91.8757 581.24 91.709C581.432 91.5528 581.531 91.3392 581.531 91.0632C581.531 90.5476 581.203 90.0684 580.552 89.6257C579.646 89.5424 578.792 89.2715 577.99 88.8132C577.182 88.3549 576.51 87.7924 575.969 87.1257C575.427 86.4486 574.995 85.683 574.677 84.834C574.37 83.9903 574.219 83.1413 574.219 82.2924C574.219 81.4174 574.375 80.558 574.698 79.709C575.016 78.8653 575.469 78.1049 576.052 77.4382C576.635 76.7611 577.375 76.209 578.281 75.7924C579.182 75.3757 580.177 75.1674 581.26 75.1674C582.521 75.1674 583.641 75.4538 584.615 76.0215C585.599 76.5788 586.328 77.3288 586.802 78.2715L584.677 79.7507C584.437 79.2403 584.12 78.8236 583.719 78.5007C583.312 78.1674 582.906 77.9382 582.49 77.8132C582.073 77.6882 581.635 77.6257 581.177 77.6257C580.51 77.6257 579.906 77.7663 579.365 78.0424C578.823 78.3236 578.385 78.6882 578.052 79.1465C577.719 79.6049 577.458 80.1153 577.281 80.6674C577.115 81.2247 577.031 81.7924 577.031 82.3757C577.031 83.209 577.203 83.9955 577.552 84.7299C577.896 85.4694 578.391 86.0632 579.031 86.5215C579.682 86.9694 580.411 87.1882 581.219 87.1882C581.677 87.1882 582.12 87.1205 582.552 86.9799C582.995 86.8444 583.417 86.6049 583.823 86.2715C584.224 85.9278 584.531 85.5111 584.74 85.0215L587.01 86.3132Z" fill="#2C2B2C"/>
<path d="M596.819 72.7923C596.637 72.7923 596.486 72.8287 596.361 72.8964C596.236 72.9694 596.137 73.0423 596.069 73.1256C596.012 73.1985 595.965 73.2871 595.923 73.3964C595.882 73.4954 595.85 73.5735 595.84 73.6256C595.84 73.6829 595.84 73.7246 595.84 73.7506H594.361C594.361 73.6412 594.382 73.4902 594.423 73.2923C594.475 73.0996 594.559 72.886 594.673 72.6464C594.798 72.3964 594.944 72.1673 595.111 71.9589C595.277 71.7402 595.496 71.5579 595.777 71.4173C596.069 71.2662 596.382 71.1881 596.715 71.1881C596.991 71.1881 597.257 71.2402 597.507 71.3339C597.757 71.4329 597.965 71.5423 598.132 71.6673C598.298 71.7819 598.491 71.886 598.715 71.9798C598.934 72.0787 599.152 72.1256 599.361 72.1256C599.538 72.1256 599.699 72.0996 599.84 72.0423C599.975 71.9746 600.079 71.8964 600.152 71.8131C600.22 71.7194 600.277 71.6204 600.319 71.5214C600.371 71.4121 600.402 71.3287 600.402 71.2714C600.413 71.2037 600.423 71.1569 600.423 71.1256H601.923C601.923 71.2246 601.892 71.3652 601.84 71.5423C601.783 71.7246 601.694 71.9381 601.569 72.1881C601.444 72.4381 601.288 72.6777 601.111 72.8964C600.944 73.1204 600.704 73.3079 600.402 73.4589C600.111 73.6152 599.788 73.6881 599.444 73.6881C599.095 73.6881 598.762 73.6204 598.444 73.4798C598.137 73.3287 597.845 73.1777 597.569 73.0214C597.303 72.8704 597.053 72.7923 596.819 72.7923ZM596.736 75.2506H599.548L604.798 89.5214H601.923L600.611 85.9589H595.611L594.319 89.5214H591.465L596.736 75.2506ZM600.111 84.0214L598.132 78.1256L596.09 84.0214H600.111Z" fill="#2C2B2C"/>
<path d="M609.48 82.3757C609.48 81.4486 609.652 80.5423 610.001 79.6673C610.361 78.7819 610.845 78.0111 611.46 77.3548C612.069 76.6882 612.814 76.1569 613.689 75.7507C614.564 75.3496 615.501 75.1465 616.501 75.1465C617.303 75.1465 618.069 75.2871 618.793 75.5632C619.527 75.8288 620.168 76.2038 620.71 76.6882C621.262 77.1621 621.741 77.7038 622.147 78.3132C622.564 78.9277 622.876 79.584 623.085 80.2923C623.303 80.9902 623.418 81.6986 623.418 82.4173C623.418 83.3652 623.236 84.2715 622.876 85.1465C622.527 86.0215 622.048 86.7923 621.439 87.459C620.84 88.1152 620.105 88.6413 619.23 89.0423C618.355 89.4329 617.423 89.6257 616.439 89.6257C615.616 89.6257 614.84 89.4954 614.105 89.2298C613.382 88.9694 612.741 88.6048 612.189 88.1465C611.632 87.6777 611.147 87.1361 610.73 86.5215C610.314 85.9121 610.001 85.2507 609.793 84.5423C609.585 83.834 609.48 83.1152 609.48 82.3757ZM616.46 87.1673C617.095 87.1673 617.689 87.0319 618.23 86.7507C618.772 86.4746 619.21 86.1152 619.543 85.6673C619.887 85.209 620.152 84.6986 620.335 84.1257C620.512 83.5579 620.605 82.9746 620.605 82.3757C620.605 81.5423 620.439 80.7715 620.105 80.0632C619.783 79.3444 619.298 78.7611 618.647 78.3132C618.007 77.8548 617.277 77.6257 616.46 77.6257C615.803 77.6257 615.21 77.7663 614.668 78.0423C614.137 78.3079 613.699 78.6673 613.355 79.1257C613.022 79.584 612.757 80.0996 612.564 80.6673C612.382 81.2246 612.293 81.7923 612.293 82.3757C612.293 83.2246 612.449 84.0111 612.772 84.7298C613.09 85.4382 613.569 86.0215 614.21 86.4798C614.861 86.9382 615.611 87.1673 616.46 87.1673Z" fill="#2C2B2C"/>
<path d="M101.592 82.3481V70.4783H99.3789V82.3481H101.592Z" fill="#2E406B"/>
<path d="M107.134 73.3896C106.176 73.3896 105.426 73.8167 104.941 74.6969L104.889 73.5771H102.957V82.348H105.046V76.7646C105.051 75.5771 105.697 75.1553 106.353 75.1553C107.014 75.1553 107.332 75.5563 107.332 76.3376V82.348H109.421V75.8896C109.421 74.3167 108.655 73.3896 107.134 73.3896Z" fill="#2E406B"/>
<path d="M113.43 82.5511C115.326 82.5511 116.523 81.7334 116.523 79.9366C116.523 78.4574 115.706 77.7647 114.299 77.2699L113.471 76.947C112.695 76.598 112.315 76.3116 112.315 75.6345C112.315 75.0772 112.664 74.7647 113.336 74.7647C114.07 74.7647 114.424 75.1032 114.492 76.0043L116.367 75.9574C116.216 74.1241 115.18 73.3793 113.378 73.3793C111.461 73.3793 110.414 74.2439 110.414 75.8272C110.414 77.2282 111.18 77.9939 112.503 78.4261L113.352 78.7647C114.242 79.1449 114.576 79.4314 114.576 80.1449C114.576 80.7178 114.258 81.1293 113.451 81.1293C112.654 81.1293 112.268 80.7959 112.19 79.7074L110.305 79.7647C110.451 81.7647 111.419 82.5511 113.43 82.5511Z" fill="#2E406B"/>
<path d="M121.32 75.1293V73.5772L119.982 73.6136V71.1136H117.893V73.6084L116.867 73.5772V75.1293L117.893 75.1032V80.2959C117.893 81.7959 118.461 82.348 119.971 82.348H121.315V80.6814H120.664C120.154 80.6814 119.982 80.4574 119.982 79.9001V75.098L121.32 75.1293Z" fill="#2E406B"/>
<path d="M124.276 72.3532V70.4261H122.188V72.3532H124.276ZM124.276 82.348V73.5772H122.188V82.348H124.276Z" fill="#2E406B"/>
<path d="M129.465 75.1293V73.5772L128.126 73.6136V71.1136H126.038V73.6084L125.012 73.5772V75.1293L126.038 75.1032V80.2959C126.038 81.7959 126.605 82.348 128.116 82.348H129.46V80.6814H128.809C128.298 80.6814 128.126 80.4574 128.126 79.9001V75.098L129.465 75.1293Z" fill="#2E406B"/>
<path d="M134.707 79.1657C134.702 80.348 134.066 80.7751 133.405 80.7751C132.743 80.7751 132.421 80.374 132.421 79.5824V73.5771H130.332V80.0407C130.332 81.6188 131.113 82.5407 132.624 82.5407C133.582 82.5407 134.327 82.1084 134.811 81.2386L134.863 82.348H136.796V73.5771H134.707V79.1657Z" fill="#2E406B"/>
<path d="M141.977 75.1293V73.5772L140.638 73.6136V71.1136H138.549V73.6084L137.523 73.5772V75.1293L138.549 75.1032V80.2959C138.549 81.7959 139.117 82.348 140.628 82.348H141.971V80.6814H141.32C140.81 80.6814 140.638 80.4574 140.638 79.9001V75.098L141.977 75.1293Z" fill="#2E406B"/>
<path d="M145.948 82.5511C148.115 82.5511 149.417 81.2074 149.417 77.9574C149.417 74.7126 148.115 73.3793 145.948 73.3793C143.797 73.3793 142.484 74.7074 142.484 77.9574C142.484 81.2022 143.766 82.5511 145.948 82.5511ZM145.948 80.9834C145.047 80.9834 144.594 80.2803 144.594 77.9574C144.594 75.6241 145.052 74.947 145.948 74.947C146.859 74.947 147.307 75.6501 147.307 77.9574C147.307 80.2751 146.865 80.9834 145.948 80.9834Z" fill="#2E406B"/>
<path d="M159.706 76.0356C160.773 75.6189 161.247 74.671 161.247 73.4522C161.247 71.7647 160.232 70.4783 158.034 70.4783H153.805V82.3481H158.055C160.404 82.3481 161.591 81.0043 161.591 78.9366C161.591 77.5408 160.982 76.4574 159.706 76.0356ZM159.076 73.8272C159.076 74.8741 158.643 75.3949 157.669 75.3949H155.997V72.3272H157.711C158.654 72.3272 159.076 72.8116 159.076 73.8272ZM155.997 80.4783V77.0772H157.862C158.872 77.0772 159.409 77.5929 159.409 78.8012C159.409 79.9991 158.857 80.4783 157.852 80.4783H155.997Z" fill="#2E406B"/>
<path d="M166.651 73.4105C165.651 73.4105 165.026 74.0251 164.672 75.0355L164.63 73.5772H162.703V82.348H164.792V77.5147C164.818 76.0564 165.484 75.4886 166.599 75.4886C166.734 75.4886 166.885 75.4939 167.047 75.4991V73.4418C166.922 73.4209 166.792 73.4105 166.651 73.4105Z" fill="#2E406B"/>
<path d="M174.095 82.348C173.882 81.473 173.819 80.9053 173.819 80.2282V76.1761C173.819 74.2646 172.949 73.374 170.798 73.374C168.611 73.374 167.762 74.2751 167.652 76.2334L169.611 76.2646C169.663 75.1709 170.017 74.8896 170.72 74.8896C171.501 74.8896 171.777 75.2855 171.777 76.0042V76.9209C171.678 77.0094 171.548 77.0615 171.371 77.1032L169.663 77.3896C167.975 77.7178 167.402 78.5824 167.402 79.973C167.402 81.7751 168.335 82.499 169.751 82.499C170.72 82.499 171.449 82.1032 171.887 81.3376C171.939 81.7126 172.007 82.0199 172.074 82.348H174.095ZM170.428 81.0459C169.835 81.0459 169.46 80.7438 169.46 79.8167C169.46 79.1032 169.72 78.7074 170.428 78.5042L171.803 78.1917V79.5199C171.803 80.5094 171.199 81.0459 170.428 81.0459Z" fill="#2E406B"/>
<path d="M177.883 82.5511C179.779 82.5511 180.977 81.7334 180.977 79.9366C180.977 78.4574 180.159 77.7647 178.753 77.2699L177.924 76.947C177.148 76.598 176.768 76.3116 176.768 75.6345C176.768 75.0772 177.117 74.7647 177.789 74.7647C178.523 74.7647 178.878 75.1032 178.945 76.0043L180.82 75.9574C180.669 74.1241 179.633 73.3793 177.831 73.3793C175.914 73.3793 174.867 74.2439 174.867 75.8272C174.867 77.2282 175.633 77.9939 176.956 78.4261L177.805 78.7647C178.695 79.1449 179.029 79.4314 179.029 80.1449C179.029 80.7178 178.711 81.1293 177.904 81.1293C177.107 81.1293 176.721 80.7959 176.643 79.7074L174.758 79.7647C174.904 81.7647 175.872 82.5511 177.883 82.5511Z" fill="#2E406B"/>
<path d="M183.924 72.3532V70.4261H181.836V72.3532H183.924ZM183.924 82.348V73.5772H181.836V82.348H183.924Z" fill="#2E406B"/>
<path d="M187.264 82.3481V70.4783H185.176V82.3481H187.264Z" fill="#2E406B"/>
<path d="M194.983 77.9418C194.983 74.8116 193.848 73.3845 191.618 73.3845C189.441 73.3845 188.207 74.7283 188.207 77.9574C188.207 81.1918 189.421 82.546 191.629 82.546C193.447 82.546 194.525 81.6449 194.895 79.6449L192.947 79.5512C192.749 80.6449 192.337 80.9887 191.65 80.9887C190.754 80.9887 190.29 80.3168 190.254 78.4574H194.983V77.9418ZM191.629 74.9418C192.441 74.9418 192.879 75.4783 192.952 77.1449H190.264C190.332 75.5408 190.806 74.9418 191.629 74.9418Z" fill="#2E406B"/>
<path d="M198.014 72.3532V70.4261H195.926V72.3532H198.014ZM198.014 82.348V73.5772H195.926V82.348H198.014Z" fill="#2E406B"/>
<path d="M203.214 73.4105C202.214 73.4105 201.589 74.0251 201.234 75.0355L201.193 73.5772H199.266V82.348H201.354V77.5147C201.38 76.0564 202.047 75.4886 203.161 75.4886C203.297 75.4886 203.448 75.4939 203.609 75.4991V73.4418C203.484 73.4209 203.354 73.4105 203.214 73.4105Z" fill="#2E406B"/>
<path d="M207.436 82.5511C209.603 82.5511 210.905 81.2074 210.905 77.9574C210.905 74.7126 209.603 73.3793 207.436 73.3793C205.285 73.3793 203.973 74.7074 203.973 77.9574C203.973 81.2022 205.254 82.5511 207.436 82.5511ZM207.436 80.9834C206.535 80.9834 206.082 80.2803 206.082 77.9574C206.082 75.6241 206.54 74.947 207.436 74.947C208.348 74.947 208.796 75.6501 208.796 77.9574C208.796 80.2751 208.353 80.9834 207.436 80.9834Z" fill="#2E406B"/>
<path d="M219.641 74.4522C219.182 73.7387 218.521 73.3897 217.677 73.3897C215.984 73.3897 214.875 74.6658 214.875 77.9366C214.875 81.1918 215.922 82.546 217.693 82.546C218.625 82.546 219.323 82.1189 219.776 81.2595L219.818 82.3481H221.729V70.4783H219.641V74.4522ZM218.297 80.8585C217.453 80.8585 216.984 80.171 216.984 77.9262C216.984 75.6918 217.464 75.046 218.307 75.046C219.167 75.046 219.688 75.7595 219.688 77.9262C219.688 80.0876 219.156 80.8585 218.297 80.8585Z" fill="#2E406B"/>
<path d="M229.444 77.9418C229.444 74.8116 228.309 73.3845 226.079 73.3845C223.902 73.3845 222.668 74.7283 222.668 77.9574C222.668 81.1918 223.882 82.546 226.09 82.546C227.908 82.546 228.986 81.6449 229.355 79.6449L227.408 79.5512C227.21 80.6449 226.798 80.9887 226.111 80.9887C225.215 80.9887 224.751 80.3168 224.715 78.4574H229.444V77.9418ZM226.09 74.9418C226.902 74.9418 227.34 75.4783 227.413 77.1449H224.725C224.793 75.5408 225.267 74.9418 226.09 74.9418Z" fill="#2E406B"/>
<path d="M236.049 82.3481V70.4783H233.836V82.3481H236.049Z" fill="#2E406B"/>
<path d="M241.587 73.3896C240.629 73.3896 239.879 73.8167 239.395 74.6969L239.342 73.5771H237.41V82.348H239.499V76.7646C239.504 75.5771 240.15 75.1553 240.806 75.1553C241.467 75.1553 241.785 75.5563 241.785 76.3376V82.348H243.874V75.8896C243.874 74.3167 243.108 73.3896 241.587 73.3896Z" fill="#2E406B"/>
<path d="M248.388 72.0512H249.008V70.4783H248.049C246.138 70.4783 245.534 71.4106 245.534 72.9106V73.6085L244.508 73.5772V75.1293L245.534 75.1033V82.3481H247.622V75.1033L248.992 75.1293V73.5772L247.622 73.6085V72.8324C247.622 72.3064 247.794 72.0512 248.388 72.0512Z" fill="#2E406B"/>
<path d="M252.757 82.5511C254.923 82.5511 256.225 81.2074 256.225 77.9574C256.225 74.7126 254.923 73.3793 252.757 73.3793C250.605 73.3793 249.293 74.7074 249.293 77.9574C249.293 81.2022 250.574 82.5511 252.757 82.5511ZM252.757 80.9834C251.855 80.9834 251.402 80.2803 251.402 77.9574C251.402 75.6241 251.861 74.947 252.757 74.947C253.668 74.947 254.116 75.6501 254.116 77.9574C254.116 80.2751 253.673 80.9834 252.757 80.9834Z" fill="#2E406B"/>
<path d="M261.112 73.4105C260.112 73.4105 259.487 74.0251 259.133 75.0355L259.091 73.5772H257.164V82.348H259.253V77.5147C259.279 76.0564 259.945 75.4886 261.06 75.4886C261.195 75.4886 261.346 75.4939 261.508 75.4991V73.4418C261.383 73.4209 261.253 73.4105 261.112 73.4105Z" fill="#2E406B"/>
<path d="M270.503 73.3793C269.555 73.3793 268.82 73.7803 268.32 74.6501C267.997 73.8272 267.315 73.3793 266.331 73.3793C265.404 73.3793 264.706 73.8064 264.242 74.6657L264.19 73.5772H262.258V82.348H264.346V76.6918C264.352 75.5303 264.945 75.1241 265.544 75.1241C266.133 75.1241 266.461 75.4991 266.461 76.2439V82.348H268.549V76.6657C268.555 75.5095 269.143 75.1241 269.753 75.1241C270.336 75.1241 270.669 75.4991 270.669 76.2439V82.348H272.753V75.9209C272.753 74.2439 271.951 73.3793 270.503 73.3793Z" fill="#2E406B"/>
<path d="M280.423 82.348C280.21 81.473 280.147 80.9053 280.147 80.2282V76.1761C280.147 74.2646 279.277 73.374 277.126 73.374C274.939 73.374 274.09 74.2751 273.98 76.2334L275.939 76.2646C275.991 75.1709 276.345 74.8896 277.048 74.8896C277.829 74.8896 278.105 75.2855 278.105 76.0042V76.9209C278.007 77.0094 277.876 77.0615 277.699 77.1032L275.991 77.3896C274.303 77.7178 273.73 78.5824 273.73 79.973C273.73 81.7751 274.663 82.499 276.079 82.499C277.048 82.499 277.777 82.1032 278.215 81.3376C278.267 81.7126 278.335 82.0199 278.402 82.348H280.423ZM276.757 81.0459C276.163 81.0459 275.788 80.7438 275.788 79.8167C275.788 79.1032 276.048 78.7074 276.757 78.5042L278.132 78.1917V79.5199C278.132 80.5094 277.527 81.0459 276.757 81.0459Z" fill="#2E406B"/>
<path d="M285.695 79.1032C285.596 80.5564 285.253 80.9834 284.529 80.9834C283.638 80.9834 283.195 80.2959 283.195 77.9626C283.195 75.6345 283.612 74.947 284.534 74.947C285.211 74.947 285.576 75.3324 285.685 76.6501L287.674 76.6241C287.466 74.3011 286.357 73.3793 284.539 73.3793C282.341 73.3793 281.086 74.6814 281.086 77.9782C281.086 80.9418 282.086 82.2647 283.841 82.5095L283.268 83.4418V84.1866C283.461 84.1814 283.695 84.1814 283.878 84.1814C284.341 84.1814 284.549 84.3168 284.549 84.697C284.549 85.0824 284.326 85.3011 283.638 85.3011H283.195V86.2386H283.945C285.466 86.2386 286.195 85.6605 286.195 84.6866C286.195 83.7751 285.695 83.2751 284.622 83.2751H284.419L284.872 82.5407C286.565 82.4053 287.508 81.3689 287.68 79.1293L285.695 79.1032Z" fill="#2E406B"/>
<path d="M290.813 71.4418C291.385 71.4418 291.667 72.3845 292.76 72.3845C293.724 72.3845 294.313 71.7074 294.313 70.0668H293.036C293.026 70.697 292.875 70.973 292.563 70.973C292 70.973 291.714 70.0355 290.609 70.0355C289.651 70.0355 289.063 70.7022 289.063 72.3532H290.328C290.339 71.7386 290.495 71.4418 290.813 71.4418ZM295.021 82.348C294.807 81.473 294.745 80.9053 294.745 80.2282V76.1761C294.745 74.2647 293.875 73.3741 291.724 73.3741C289.536 73.3741 288.688 74.2751 288.578 76.2334L290.536 76.2647C290.589 75.1709 290.943 74.8897 291.646 74.8897C292.427 74.8897 292.703 75.2855 292.703 76.0043V76.9209C292.604 77.0095 292.474 77.0616 292.297 77.1032L290.589 77.3897C288.901 77.7178 288.328 78.5824 288.328 79.973C288.328 81.7751 289.26 82.4991 290.677 82.4991C291.646 82.4991 292.375 82.1032 292.813 81.3376C292.865 81.7126 292.932 82.0199 293 82.348H295.021ZM291.354 81.0459C290.76 81.0459 290.385 80.7439 290.385 79.8168C290.385 79.1032 290.646 78.7074 291.354 78.5043L292.729 78.1918V79.5199C292.729 80.5095 292.125 81.0459 291.354 81.0459Z" fill="#2E406B"/>
<path d="M299.143 82.5511C301.31 82.5511 302.612 81.2074 302.612 77.9574C302.612 74.7126 301.31 73.3793 299.143 73.3793C296.992 73.3793 295.68 74.7074 295.68 77.9574C295.68 81.2022 296.961 82.5511 299.143 82.5511ZM299.143 80.9834C298.242 80.9834 297.789 80.2803 297.789 77.9574C297.789 75.6241 298.247 74.947 299.143 74.947C300.055 74.947 300.503 75.6501 300.503 77.9574C300.503 80.2751 300.06 80.9834 299.143 80.9834Z" fill="#2E406B"/>
<path d="M105.741 95.9418C105.741 92.8116 104.605 91.3845 102.376 91.3845C100.199 91.3845 98.9648 92.7283 98.9648 95.9574C98.9648 99.1918 100.178 100.546 102.387 100.546C104.204 100.546 105.283 99.6449 105.652 97.6449L103.704 97.5512C103.507 98.6449 103.095 98.9887 102.408 98.9887C101.512 98.9887 101.048 98.3168 101.012 96.4574H105.741V95.9418ZM102.387 92.9418C103.199 92.9418 103.637 93.4783 103.71 95.1449H101.022C101.09 93.5408 101.564 92.9418 102.387 92.9418Z" fill="#2E406B"/>
<path d="M114.928 91.3793C113.98 91.3793 113.246 91.7803 112.746 92.6501C112.423 91.8272 111.741 91.3793 110.757 91.3793C109.829 91.3793 109.132 91.8064 108.668 92.6657L108.616 91.5772H106.684V100.348H108.772V94.6918C108.777 93.5303 109.371 93.1241 109.97 93.1241C110.559 93.1241 110.887 93.4991 110.887 94.2439V100.348H112.975V94.6657C112.98 93.5095 113.569 93.1241 114.178 93.1241C114.762 93.1241 115.095 93.4991 115.095 94.2439V100.348H117.178V93.9209C117.178 92.2439 116.376 91.3793 114.928 91.3793Z" fill="#2E406B"/>
<path d="M125.992 100.582C128.284 100.582 129.805 99.3168 130.065 95.9939H127.914C127.753 98.0095 127.076 98.6501 126.013 98.6501C124.648 98.6501 123.862 97.598 123.862 94.4157C123.862 91.2595 124.648 90.223 126.008 90.223C126.971 90.223 127.643 90.7751 127.852 92.5928H130.018C129.732 89.4626 128.164 88.2855 125.977 88.2855C123.305 88.2855 121.617 90.0043 121.617 94.4209C121.617 98.8376 123.289 100.582 125.992 100.582Z" fill="#2E406B"/>
<path d="M133.159 90.3532V88.4261H131.07V90.3532H133.159ZM133.159 100.348V91.5772H131.07V100.348H133.159Z" fill="#2E406B"/>
<path d="M138.409 90.3533H140.206L138.612 87.6658H136.414L134.815 90.3533H136.622L137.508 88.8376L138.409 90.3533ZM140.878 95.9418C140.878 92.8116 139.742 91.3845 137.513 91.3845C135.336 91.3845 134.102 92.7283 134.102 95.9574C134.102 99.1918 135.315 100.546 137.523 100.546C139.341 100.546 140.419 99.6449 140.789 97.6449L138.841 97.5512C138.643 98.6449 138.232 98.9887 137.544 98.9887C136.648 98.9887 136.185 98.3168 136.148 96.4574H140.878V95.9418ZM137.523 92.9418C138.336 92.9418 138.773 93.4783 138.846 95.1449H136.159C136.227 93.5408 136.701 92.9418 137.523 92.9418Z" fill="#2E406B"/>
<path d="M145.997 91.3898C145.039 91.3898 144.289 91.8169 143.805 92.6971L143.753 91.5773H141.82V100.348H143.909V94.7648C143.914 93.5773 144.56 93.1554 145.216 93.1554C145.878 93.1554 146.195 93.5564 146.195 94.3377V100.348H148.284V93.8898C148.284 92.3169 147.518 91.3898 145.997 91.3898Z" fill="#2E406B"/>
<path d="M152.62 100.551C154.557 100.551 155.63 99.5355 155.813 97.1293L153.823 97.1032C153.729 98.5564 153.385 98.9834 152.661 98.9834C151.771 98.9834 151.328 98.2959 151.328 95.9626C151.328 93.6345 151.745 92.947 152.667 92.947C153.339 92.947 153.708 93.3324 153.813 94.6501L155.802 94.6241C155.599 92.3011 154.495 91.3793 152.672 91.3793C150.474 91.3793 149.219 92.6814 149.219 95.9782C149.219 99.2907 150.469 100.551 152.62 100.551Z" fill="#2E406B"/>
<path d="M158.819 90.3532V88.4261H156.73V90.3532H158.819ZM158.819 100.348V91.5772H156.73V100.348H158.819Z" fill="#2E406B"/>
<path d="M166.497 100.348C166.284 99.4731 166.221 98.9054 166.221 98.2283V94.1762C166.221 92.2648 165.352 91.3741 163.201 91.3741C161.013 91.3741 160.164 92.2752 160.055 94.2335L162.013 94.2648C162.065 93.171 162.419 92.8898 163.122 92.8898C163.904 92.8898 164.18 93.2856 164.18 94.0044V94.921C164.081 95.0096 163.951 95.0616 163.773 95.1033L162.065 95.3898C160.378 95.7179 159.805 96.5825 159.805 97.9731C159.805 99.7752 160.737 100.499 162.154 100.499C163.122 100.499 163.852 100.103 164.289 99.3377C164.341 99.7127 164.409 100.02 164.477 100.348H166.497ZM162.831 99.046C162.237 99.046 161.862 98.7439 161.862 97.8169C161.862 97.1033 162.122 96.7075 162.831 96.5044L164.206 96.1919V97.52C164.206 98.5096 163.602 99.046 162.831 99.046Z" fill="#2E406B"/>
<path d="M177.327 95.9418C177.327 92.8116 176.191 91.3845 173.962 91.3845C171.785 91.3845 170.551 92.7283 170.551 95.9574C170.551 99.1918 171.764 100.546 173.973 100.546C175.79 100.546 176.868 99.6449 177.238 97.6449L175.29 97.5512C175.092 98.6449 174.681 98.9887 173.993 98.9887C173.098 98.9887 172.634 98.3168 172.598 96.4574H177.327V95.9418ZM173.973 92.9418C174.785 92.9418 175.223 93.4783 175.296 95.1449H172.608C172.676 93.5408 173.15 92.9418 173.973 92.9418Z" fill="#2E406B"/>
<path d="M181.238 88.4783V90.4939H183.967V100.348H186.176V90.4939H188.905V88.4783H181.238Z" fill="#2E406B"/>
<path d="M194.909 95.9418C194.909 92.8116 193.773 91.3845 191.544 91.3845C189.367 91.3845 188.133 92.7283 188.133 95.9574C188.133 99.1918 189.346 100.546 191.555 100.546C193.372 100.546 194.451 99.6449 194.82 97.6449L192.872 97.5512C192.674 98.6449 192.263 98.9887 191.576 98.9887C190.68 98.9887 190.216 98.3168 190.18 96.4574H194.909V95.9418ZM191.555 92.9418C192.367 92.9418 192.805 93.4783 192.878 95.1449H190.19C190.258 93.5408 190.732 92.9418 191.555 92.9418Z" fill="#2E406B"/>
<path d="M198.948 100.551C200.885 100.551 201.958 99.5355 202.141 97.1293L200.151 97.1032C200.057 98.5564 199.714 98.9834 198.99 98.9834C198.099 98.9834 197.656 98.2959 197.656 95.9626C197.656 93.6345 198.073 92.947 198.995 92.947C199.667 92.947 200.036 93.3324 200.141 94.6501L202.13 94.6241C201.927 92.3011 200.823 91.3793 199 91.3793C196.802 91.3793 195.547 92.6814 195.547 95.9782C195.547 99.2907 196.797 100.551 198.948 100.551Z" fill="#2E406B"/>
<path d="M207.232 91.3898C206.273 91.3898 205.523 91.8169 205.039 92.6971L204.987 91.5773H203.055V100.348H205.143V94.7648C205.148 93.5773 205.794 93.1554 206.451 93.1554C207.112 93.1554 207.43 93.5564 207.43 94.3377V100.348H209.518V93.8898C209.518 92.3169 208.753 91.3898 207.232 91.3898Z" fill="#2E406B"/>
<path d="M213.917 100.551C216.083 100.551 217.385 99.2074 217.385 95.9574C217.385 92.7126 216.083 91.3793 213.917 91.3793C211.766 91.3793 210.453 92.7074 210.453 95.9574C210.453 99.2022 211.734 100.551 213.917 100.551ZM213.917 98.9834C213.016 98.9834 212.563 98.2803 212.563 95.9574C212.563 93.6241 213.021 92.947 213.917 92.947C214.828 92.947 215.276 93.6501 215.276 95.9574C215.276 98.2751 214.833 98.9834 213.917 98.9834Z" fill="#2E406B"/>
<path d="M220.417 100.348V88.4783H218.328V100.348H220.417Z" fill="#2E406B"/>
<path d="M224.823 100.551C226.99 100.551 228.292 99.2074 228.292 95.9574C228.292 92.7126 226.99 91.3793 224.823 91.3793C222.672 91.3793 221.359 92.7074 221.359 95.9574C221.359 99.2022 222.641 100.551 224.823 100.551ZM224.823 98.9834C223.922 98.9834 223.469 98.2803 223.469 95.9574C223.469 93.6241 223.927 92.947 224.823 92.947C225.734 92.947 226.182 93.6501 226.182 95.9574C226.182 98.2751 225.74 98.9834 224.823 98.9834Z" fill="#2E406B"/>
<path d="M233.79 92.6033C233.327 91.7856 232.639 91.3898 231.743 91.3898C230.046 91.3898 228.926 92.6398 228.926 95.8637C228.926 99.0773 229.957 100.4 231.764 100.4C232.608 100.4 233.27 100.046 233.717 99.3221V100.343C233.717 101.645 233.421 102.192 232.379 102.192C231.738 102.192 231.337 101.999 231.191 101.155L229.238 101.218C229.415 103.03 230.447 103.702 232.322 103.702C234.65 103.702 235.785 102.562 235.785 100.103V91.5773H233.837L233.79 92.6033ZM232.348 98.7439C231.504 98.7439 231.035 98.0669 231.035 95.8533C231.035 93.6502 231.514 93.0096 232.358 93.0096C233.217 93.0096 233.738 93.7179 233.738 95.8533C233.738 97.9835 233.207 98.7439 232.348 98.7439Z" fill="#2E406B"/>
<path d="M239.12 90.3532V88.4261H237.031V90.3532H239.12ZM239.12 100.348V91.5772H237.031V100.348H239.12Z" fill="#2E406B"/>
<path d="M246.798 100.348C246.585 99.4731 246.522 98.9054 246.522 98.2283V94.1762C246.522 92.2648 245.652 91.3741 243.501 91.3741C241.314 91.3741 240.465 92.2752 240.355 94.2335L242.314 94.2648C242.366 93.171 242.72 92.8898 243.423 92.8898C244.204 92.8898 244.48 93.2856 244.48 94.0044V94.921C244.382 95.0096 244.251 95.0616 244.074 95.1033L242.366 95.3898C240.678 95.7179 240.105 96.5825 240.105 97.9731C240.105 99.7752 241.038 100.499 242.454 100.499C243.423 100.499 244.152 100.103 244.59 99.3377C244.642 99.7127 244.71 100.02 244.777 100.348H246.798ZM243.132 99.046C242.538 99.046 242.163 98.7439 242.163 97.8169C242.163 97.1033 242.423 96.7075 243.132 96.5044L244.507 96.1919V97.52C244.507 98.5096 243.902 99.046 243.132 99.046Z" fill="#2E406B"/>
<path fill-rule="evenodd" clip-rule="evenodd" d="M20.3577 0.250967C20.2143 0.394415 20.0469 0.657403 19.9871 0.82476C19.9274 0.992116 19.8317 5.08039 19.7839 10.2684C19.7002 18.6004 19.7122 19.473 19.8915 20.1305C20.023 20.5728 20.2979 21.1227 20.6326 21.565C20.9195 21.9595 21.4455 22.5094 21.7922 22.7963C22.1389 23.0712 22.629 23.4298 22.892 23.5852C23.1549 23.7406 24.0993 24.3025 24.9839 24.8404C25.8685 25.3664 26.7053 25.8684 26.8368 25.9521C26.9683 26.0358 27.4464 26.3227 27.9126 26.5857C28.3669 26.8606 29.5025 27.5301 30.423 28.0799C31.3435 28.6179 32.5508 29.3351 33.1126 29.6698C33.6745 29.9926 34.8221 30.662 35.6828 31.1641C36.5315 31.6542 37.5834 32.2638 38.0138 32.5029C38.4441 32.742 39.006 33.0767 39.269 33.2441C39.532 33.4114 40.4166 33.9015 41.2414 34.3319C42.0662 34.7622 43.0823 35.2165 43.5126 35.3241C43.9908 35.4436 44.4929 35.4914 44.8276 35.4436C45.1264 35.4078 45.6644 35.2763 46.023 35.1567C46.3816 35.0252 46.9435 34.7981 47.2782 34.6307C47.6009 34.4753 48.3062 34.1048 48.8322 33.8059C49.3582 33.5071 50.2667 32.9691 50.8644 32.6225C51.4501 32.2758 52.6097 31.6064 53.4345 31.1282C54.2593 30.662 55.1917 30.1121 55.5264 29.9089C55.8492 29.7176 56.5306 29.3232 57.0207 29.0363C57.5108 28.7494 58.5628 28.1277 59.3517 27.6615C60.1407 27.1953 61.3002 26.514 61.9218 26.1434C62.5435 25.7728 63.8345 25.0197 64.7908 24.4579C65.7471 23.896 66.823 23.2505 67.1816 23.0234C67.5402 22.8082 68.0901 22.4735 68.4009 22.3061C68.7237 22.1268 69.0225 21.8877 69.0823 21.7682C69.1421 21.6606 69.166 21.4933 69.1182 21.3976C69.0464 21.2661 68.9508 21.2661 68.5563 21.3857C68.2933 21.4694 67.4805 21.7802 66.7632 22.0671C66.034 22.3659 64.9582 22.8202 64.3724 23.0592C63.7747 23.3103 62.8064 23.7167 62.2207 23.9558C61.623 24.2068 60.7623 24.5535 60.308 24.7328C59.8418 24.9121 58.7421 25.3664 57.8575 25.7489C56.9729 26.1195 55.9687 26.5379 55.646 26.6574C55.3113 26.7889 54.6179 27.0758 54.092 27.3029C53.566 27.5181 52.4662 27.9723 51.6414 28.319C50.8166 28.6537 49.7646 29.0841 49.3103 29.2753C48.8441 29.4666 47.9834 29.8133 47.3977 30.0523C46.8 30.3034 45.8317 30.674 45.246 30.9011C44.6483 31.1282 44.1223 31.3075 44.0506 31.3075C43.9908 31.3075 44.0147 31.2238 44.1103 31.1402C44.206 31.0445 44.6961 30.7337 45.1862 30.4588C45.6763 30.1838 46.4294 29.7774 46.8598 29.5383C47.2901 29.3112 47.6846 29.0841 47.7563 29.0243C47.8161 28.9765 48.1747 28.7733 48.5333 28.582C48.892 28.4027 50.183 27.6855 51.4023 27.0041C52.6216 26.3227 53.829 25.6533 54.092 25.5098C54.3549 25.3664 55.1081 24.948 55.7655 24.5894C56.423 24.2188 57.3913 23.6809 57.9172 23.394C58.4432 23.0951 59.2441 22.6528 59.7104 22.4018C60.1646 22.1507 60.9536 21.7204 61.4437 21.4455C61.9338 21.1705 62.7945 20.6804 63.3563 20.3696C63.9182 20.0588 64.7789 19.5926 65.269 19.3296C65.7591 19.0546 66.297 18.7558 66.4644 18.6482C66.6317 18.5287 66.9186 18.3733 67.1218 18.2896C67.3131 18.2059 67.8391 17.8951 68.2814 17.6082C68.7356 17.3213 69.1421 16.9866 69.2018 16.8671C69.2616 16.7595 69.2855 16.5921 69.2377 16.4965C69.1779 16.3889 69.0225 16.365 68.6759 16.4248C68.4129 16.4606 67.6359 16.7236 66.9425 16.9866C66.2492 17.2615 65.2809 17.6321 64.7908 17.8353C64.3007 18.0266 63.3563 18.3972 62.6988 18.6602C62.0414 18.9232 61.1209 19.2818 60.6667 19.4611C60.2005 19.6523 58.4074 20.3815 56.6621 21.0868C54.9168 21.7921 52.3945 22.8082 51.0437 23.3581C49.6929 23.908 48.0552 24.5774 47.3977 24.8523C46.7402 25.1153 45.772 25.5098 45.246 25.7011C44.72 25.9043 44.2299 26.0956 44.1701 26.1314C44.0904 26.1792 44.0904 26.1593 44.1701 26.0717C44.2299 26.0119 44.5885 25.7967 44.9471 25.5935C45.3057 25.4022 46.1425 24.936 46.8 24.5535C47.4575 24.171 48.4018 23.633 48.892 23.3581C49.3821 23.0832 50.1949 22.6289 50.6851 22.342C51.1752 22.0671 52.2032 21.4813 52.9563 21.051C53.7094 20.6326 54.6777 20.0827 55.108 19.8317C55.5384 19.5806 56.7218 18.9112 57.7379 18.3374C58.754 17.7636 59.9853 17.0703 60.4634 16.7953C60.9416 16.5204 61.6708 16.114 62.0772 15.8749C62.4837 15.6477 63.7269 14.9425 64.8506 14.3089C65.9623 13.6753 67.3609 12.8983 67.9586 12.5756C68.9508 12.0496 69.0345 11.9659 69.0584 11.6073C69.0823 11.3921 69.0345 11.2009 68.9389 11.165C68.8671 11.1291 68.4726 11.2367 68.0782 11.3921C67.6837 11.5475 66.7154 11.9659 65.9264 12.3006C65.1375 12.6473 64.0616 13.1015 63.5356 13.3048C63.0097 13.5199 62.388 13.7949 62.1609 13.9144C61.9338 14.034 61.3122 14.3089 60.7862 14.5241C60.2602 14.7273 59.268 15.1457 58.5747 15.4445C57.8814 15.7314 56.7218 16.2335 56.0046 16.5443C55.2754 16.8551 54.1278 17.3452 53.4345 17.6441C52.7411 17.9429 51.9283 18.2776 51.6055 18.4091C51.2947 18.5287 50.5416 18.8514 49.932 19.1264C49.3343 19.3894 48.3182 19.8317 47.6966 20.0946C47.0749 20.3696 46.1067 20.788 45.5448 21.039C44.983 21.29 44.4212 21.5052 44.2897 21.5052C44.1462 21.5052 44.4331 21.2542 45.0308 20.8717C45.5687 20.5369 46.3218 20.0588 46.7044 19.8197C47.0869 19.5926 48.6051 18.6721 50.0874 17.7995C51.5697 16.9268 53.1356 15.9825 53.5779 15.7195C54.0202 15.4445 54.7255 15.0261 55.132 14.7751C55.5503 14.536 56.2078 14.1296 56.6023 13.8905C56.9968 13.6514 57.4869 13.3765 57.6782 13.2689C57.8814 13.1613 58.8497 12.5995 59.8299 12.0137C60.8221 11.428 61.9099 10.7705 62.2446 10.5553C62.5913 10.3282 62.9021 10.1489 62.9379 10.1489C62.9738 10.1489 63.7508 9.69465 64.6713 9.13281C65.5917 8.57097 66.3687 8.11671 66.4046 8.11671C66.4405 8.11671 66.9067 7.85372 67.4446 7.53097C67.9945 7.20821 68.5802 6.80177 68.7595 6.63441C68.9508 6.46706 69.0703 6.23993 69.0345 6.1443C68.9986 6.04867 68.891 5.96499 68.7954 5.96499C68.6998 5.96499 67.9586 6.26384 67.1458 6.63441C66.3448 6.99304 65.1494 7.54292 64.492 7.84177C63.8345 8.12867 62.8303 8.58292 62.2446 8.84591C61.6708 9.09694 60.7384 9.52729 60.1526 9.77832C59.5788 10.0413 58.6225 10.4717 58.0368 10.7227C57.4391 10.9857 56.2556 11.4997 55.4069 11.8822C54.5462 12.2528 53.3628 12.7668 52.777 13.0298C52.1793 13.2928 51.2947 13.6992 50.8046 13.9144C50.3145 14.1415 49.2745 14.5958 48.4975 14.9186C47.7324 15.2533 47.0749 15.5282 47.0391 15.5282C47.0032 15.5282 46.2979 15.851 45.4492 16.2455C44.6124 16.6519 43.9191 16.9388 43.8952 16.9029C43.8832 16.8671 43.9908 16.7714 44.1343 16.6877C44.2897 16.5921 44.8874 16.2335 45.4851 15.8629C46.0708 15.5043 47.2543 14.7751 48.1149 14.2491C48.9637 13.7351 50.0993 13.0418 50.6253 12.719C51.1513 12.4082 52.3586 11.6551 53.3149 11.0694C54.2713 10.4836 55.371 9.79028 55.7655 9.5512C56.16 9.30016 57.1163 8.70246 57.8933 8.2243C58.6703 7.73418 59.5789 7.17235 59.9255 6.96913C60.2602 6.76591 61.0014 6.31166 61.5632 5.96499C62.1251 5.61832 62.8184 5.18798 63.1172 5.00867C63.4161 4.82936 64.1094 4.39901 64.6713 4.05235C65.2331 3.70568 66.0938 3.15579 66.5839 2.84499C67.074 2.53418 67.7913 2.09189 68.1858 1.87671C68.5683 1.66154 68.9269 1.39855 68.9867 1.30292C69.0345 1.20729 69.0345 1.03993 68.9747 0.9443C68.8791 0.788897 68.7954 0.788897 68.2336 0.992116C67.8869 1.11166 67.1099 1.43441 66.5241 1.68545C65.9264 1.94844 64.9582 2.36683 64.3724 2.61786C63.7747 2.8689 62.8423 3.27533 62.2805 3.52637C61.7186 3.76545 60.9655 4.08821 60.6069 4.23166C60.2483 4.38706 59.3039 4.7935 58.5149 5.12821C57.726 5.47487 56.5186 5.9889 55.8253 6.28775C55.132 6.5866 54.08 7.0289 53.4943 7.27993C52.8966 7.51901 52.1793 7.82982 51.8805 7.97327C51.5816 8.10476 50.7807 8.45143 50.0874 8.75028C49.394 9.03717 48.2943 9.51533 47.6368 9.79028C46.9793 10.0772 46.1425 10.4358 45.7839 10.5912C45.4253 10.7466 44.9352 10.902 44.708 10.9498C44.4809 10.9857 43.9908 10.9498 43.6322 10.8661C43.2736 10.7944 42.1379 10.3043 41.1218 9.79028C40.1057 9.27625 37.7867 8.09281 35.9816 7.17235C34.1766 6.25189 30.2437 4.26752 27.2552 2.77327C22.7605 0.525909 21.7085 0.0477482 21.2184 0.0118862C20.7163 -0.0239759 20.5848 0.0118862 20.3577 0.250967ZM17.0345 25.7489C16.9986 25.8445 16.9986 25.976 17.0345 26.0478C17.0703 26.1075 17.5126 26.502 18.0386 26.9084C18.5526 27.3268 19.2579 27.8767 19.6046 28.1397C19.9393 28.4027 20.6924 28.9884 21.2543 29.4427C21.8281 29.8969 22.5811 30.4827 22.9398 30.7576C23.2864 31.0206 23.7526 31.3792 23.9678 31.5466C24.183 31.714 25.3903 32.6464 26.6575 33.6386C27.9246 34.6188 29.132 35.5632 29.3471 35.7305C29.5623 35.8979 30.5306 36.651 31.4989 37.4041C32.4552 38.1572 34.3439 39.6514 35.6947 40.7153C37.3683 42.0542 38.1094 42.7236 38.0736 42.8432C38.0258 42.9986 37.966 42.9986 37.6791 42.8192C37.4998 42.7117 37.0575 42.4487 36.6988 42.2455C36.3402 42.0303 35.4437 41.5043 34.7264 41.05C33.9972 40.6077 33.2441 40.1535 33.0529 40.0459C32.8497 39.9264 32.3954 39.6514 32.0368 39.4123C31.6782 39.1852 31.0207 38.7668 30.5664 38.5038C30.1241 38.2289 29.4308 37.7986 29.0124 37.5356C28.606 37.2845 27.4584 36.5792 26.4782 35.9696C25.486 35.3599 24.3623 34.6546 23.9678 34.4156C23.5733 34.1765 22.4377 33.4712 21.4575 32.8615C20.4653 32.2519 19.3536 31.5586 18.983 31.3195C18.6124 31.0804 18.0506 30.7337 17.7278 30.5305C17.417 30.3392 16.9269 30.0404 16.6639 29.873C16.389 29.7057 15.6598 29.2634 15.0501 28.8928C14.4285 28.5103 13.8308 28.1995 13.7113 28.1995C13.6037 28.1995 13.4244 28.2234 13.3287 28.2592C13.2331 28.2951 13.1494 28.4266 13.1494 28.5581C13.1494 28.7255 13.8547 29.359 15.5283 30.674C16.8313 31.714 18.3494 32.9213 18.8993 33.3517C19.4492 33.782 20.8956 34.9176 22.1149 35.862C23.3343 36.8064 24.5416 37.7388 24.7926 37.942C25.0437 38.1333 25.7729 38.7071 26.4184 39.1972C27.052 39.6873 28.6777 40.9425 30.0166 41.9705C31.3554 43.0105 32.7779 44.1103 33.1724 44.4211C33.5669 44.7319 33.9375 45.0307 34.0092 45.1025C34.069 45.1622 33.9972 45.1383 33.8299 45.0307C33.6625 44.9351 33.2083 44.6721 32.8138 44.4569C32.4193 44.2298 31.9651 43.9668 31.7977 43.8473C31.6303 43.7397 31.0685 43.405 30.5425 43.1181C30.0166 42.8192 28.8809 42.1737 28.0322 41.6836C27.1715 41.1815 25.988 40.5002 25.4023 40.1535C24.8046 39.7949 23.9798 39.3167 23.5494 39.0776C23.1191 38.8386 22.2345 38.3245 21.577 37.942C20.9195 37.5595 20.1664 37.1291 19.9034 36.9857C19.6405 36.8422 19.1503 36.5553 18.8276 36.3641C18.4929 36.1609 17.9071 35.8142 17.5126 35.5871C17.1182 35.348 16.6041 35.0491 16.377 34.9176C16.1499 34.7861 15.5044 34.4156 14.9425 34.0928C14.3807 33.77 13.6993 33.3517 13.4124 33.1843C13.1375 33.005 12.8864 32.8615 12.8506 32.8615C12.8147 32.8615 12.0377 32.4073 11.1172 31.8455C10.1968 31.2836 9.31219 30.8294 9.14483 30.8294C8.96552 30.8294 8.79816 30.925 8.72644 31.0684C8.63081 31.2478 8.65471 31.3553 8.81012 31.4868C8.92966 31.5944 9.24046 31.8455 9.5154 32.0606C9.77839 32.2758 11.2966 33.4114 12.8984 34.5949C14.4883 35.7783 17.0464 37.691 18.5885 38.8386C20.1186 39.9861 22.5812 41.8151 24.0395 42.9029C25.5099 43.9907 27.0759 45.1383 27.5301 45.473C27.9844 45.7958 28.7016 46.3337 29.12 46.6684C29.5503 46.9912 29.897 47.302 29.8851 47.3498C29.8851 47.4096 29.4667 47.2183 28.9526 46.9434C28.4506 46.6804 27.7333 46.2979 27.3747 46.0947C27.0161 45.9034 26.514 45.6165 26.263 45.4611C26.0239 45.3057 25.7968 45.1742 25.7609 45.1742C25.7251 45.1742 25.2589 44.9232 24.709 44.6123C24.171 44.3135 23.394 43.8473 22.9756 43.5963C22.5692 43.3452 22.1986 43.142 22.1389 43.142C22.091 43.142 21.8639 43.0105 21.6368 42.8551C21.4097 42.6997 20.788 42.3291 20.2621 42.0422C19.7361 41.7434 18.5766 41.0859 17.692 40.5719C16.8074 40.0698 15.6717 39.4243 15.1816 39.1374C14.6915 38.8625 13.7471 38.3245 13.0897 37.942C12.4322 37.5595 11.6791 37.1172 11.4161 36.9737C11.1531 36.8303 10.4717 36.4358 9.88598 36.1011C9.31218 35.7664 8.37977 35.2165 7.79402 34.8818C7.22023 34.5351 6.40736 34.0689 5.97701 33.8298C5.54667 33.5907 5.11632 33.3517 5.02069 33.3158C4.92506 33.268 4.73379 33.2919 4.61425 33.3756C4.49471 33.4592 4.41103 33.6027 4.4469 33.6983C4.48276 33.794 4.85333 34.1167 5.28368 34.4156C5.71402 34.7144 6.87356 35.5273 7.84184 36.2326C8.82207 36.9259 10.3761 38.0376 11.2966 38.6951C12.217 39.3526 13.1614 40.034 13.3885 40.2013C13.6156 40.3687 14.5839 41.062 15.5402 41.7553C16.4966 42.4487 17.5605 43.2137 17.9071 43.4648C18.2538 43.7158 18.8635 44.1701 19.2818 44.4689C19.6883 44.7678 20.6446 45.4611 21.3977 46.011C22.1508 46.5609 23.1071 47.2542 23.5255 47.553C23.932 47.8519 24.5775 48.3301 24.96 48.6169C25.3306 48.9038 25.8207 49.3581 26.0359 49.633C26.251 49.908 26.4303 50.1471 26.4184 50.159C26.4184 50.1829 25.8446 49.8602 25.1274 49.4657C24.4221 49.0592 23.5255 48.5572 23.131 48.342C22.7366 48.1388 21.8998 47.6726 21.2782 47.3259C20.6566 46.9792 19.2579 46.2142 18.1701 45.6165C17.0823 45.0188 15.9228 44.3852 15.6 44.2179C15.2653 44.0386 14.4405 43.5843 13.7471 43.2018C13.0538 42.8192 12.217 42.353 11.8943 42.1857C11.5595 42.0064 10.7825 41.576 10.1609 41.2294C9.53931 40.8827 8.14069 40.1176 7.05287 39.5199C5.96506 38.9222 4.80552 38.2887 4.48276 38.1213C4.14805 37.942 3.26345 37.4638 2.51034 37.0455C1.75724 36.6271 1.02805 36.2206 0.896552 36.1369C0.765058 36.0413 0.514023 35.9696 0.322759 35.9696C0.0836784 35.9696 1.69368e-07 36.0294 1.70211e-07 36.2087C1.70942e-07 36.3641 0.322759 36.6988 0.992184 37.1889C1.54207 37.6073 2.84506 38.5875 3.89701 39.3765C4.93701 40.1655 5.94115 40.9186 6.12046 41.05C6.29977 41.1815 7.19632 41.851 8.09287 42.5443C9.00138 43.2376 9.88598 43.9071 10.0772 44.0386C10.2566 44.1701 11.9899 45.485 13.9384 46.9673C15.8749 48.4496 17.7278 49.8482 18.0386 50.0753C18.3614 50.3025 18.9113 50.7089 19.2579 50.9838C19.6166 51.2468 20.0708 51.6533 20.274 51.8804C20.4653 52.1075 20.7522 52.6096 20.9076 53.0041C21.063 53.3986 21.2303 54.1278 21.2901 54.6179C21.3379 55.108 21.4694 57.1043 21.577 59.0409C21.6726 60.9774 21.8639 64.0137 21.9954 65.7949C22.1269 67.5641 22.3182 70.1461 22.4138 71.5328C22.5094 72.9075 22.6529 74.8441 22.7246 75.8363C22.7963 76.8165 22.9159 77.7848 22.9995 77.988C23.0832 78.1792 23.2745 78.4422 23.4418 78.5618C23.5972 78.6694 23.8841 78.765 24.0874 78.753C24.2786 78.753 24.6014 78.6813 24.8046 78.6096C24.9959 78.5259 25.4262 78.3107 25.7609 78.1195C26.0837 77.9282 27.1356 77.3066 28.092 76.7328C29.0483 76.171 30.2317 75.4657 30.7218 75.1788C31.212 74.8919 31.989 74.4376 32.4552 74.1627C32.9094 73.8878 33.5908 73.4933 33.9494 73.2781C34.308 73.0749 34.6906 72.8477 34.7862 72.788C34.8818 72.7282 35.5034 72.3696 36.1609 71.999C36.8184 71.6284 37.5476 71.1981 37.7747 71.0547C38.0018 70.9112 38.7789 70.445 39.4961 70.0266C40.2731 69.5724 40.9903 69.0464 41.2892 68.7117C41.6359 68.3291 41.863 67.9107 42.0662 67.2772C42.2216 66.7871 42.4009 65.8546 42.4607 65.1972C42.5324 64.456 42.5563 59.8537 42.5205 53.1236C42.4726 45.3176 42.4129 42.0542 42.3172 41.588C42.2336 41.2294 42.0423 40.6436 41.8869 40.297C41.7315 39.9622 41.3131 39.3884 40.9664 39.0418C40.6317 38.6951 39.8308 38.1094 39.2092 37.7388C38.5876 37.3802 37.6671 36.8422 37.177 36.5553C36.6869 36.2684 36.1131 35.9576 35.9218 35.8501C35.7186 35.7425 35.0492 35.3719 34.4276 35.0133C33.806 34.6666 32.8736 34.1406 32.3595 33.8537C31.8575 33.5668 30.9968 33.0887 30.4469 32.7898C29.909 32.479 29.12 32.0367 28.6897 31.8096C28.2593 31.5825 27.7094 31.2717 27.4584 31.1163C27.2193 30.9609 26.9922 30.8294 26.9563 30.8294C26.9205 30.8294 26.5379 30.6261 26.0837 30.3632C25.6414 30.1121 24.7448 29.61 24.0874 29.2395C23.4299 28.8809 21.7324 27.9365 20.3218 27.1595C18.9113 26.3705 17.6083 25.6891 17.429 25.6413C17.1779 25.5815 17.0823 25.6174 17.0345 25.7489ZM99.6487 15.588C99.6129 15.6836 99.577 17.1659 99.577 18.8753C99.577 21.4813 99.6009 22.0073 99.7563 22.1627C99.9117 22.3181 100.462 22.342 103.271 22.342C106.08 22.342 106.642 22.3181 106.797 22.1627C106.965 22.0073 106.989 21.5411 106.989 18.8753C106.989 17.1659 106.965 15.6836 106.929 15.588C106.881 15.4326 106.367 15.4087 103.295 15.4087C100.223 15.4087 99.7085 15.4326 99.6487 15.588ZM112.368 37.8225C112.368 57.6422 112.392 60.2482 112.547 60.296C112.643 60.3319 114.113 60.3558 115.799 60.3558C117.532 60.3558 118.966 60.308 119.062 60.2363C119.206 60.1526 119.253 59.7222 119.301 58.0606L119.361 55.9926C119.899 56.913 120.437 57.5586 120.915 58.0248C121.489 58.5866 122.134 59.0648 122.899 59.4832C123.545 59.8418 124.477 60.2243 125.099 60.4036C125.685 60.571 126.653 60.7861 127.251 60.8818C127.836 60.9774 128.84 61.0969 129.462 61.1328C130.084 61.1687 131.16 61.1567 131.853 61.085C132.546 61.0133 133.694 60.7861 134.423 60.5829C135.14 60.3797 136.192 59.9733 136.754 59.6983C137.316 59.4114 138.177 58.8615 138.667 58.479C139.157 58.0845 139.874 57.4271 140.245 56.9967C140.615 56.5783 141.177 55.8491 141.488 55.3949C141.799 54.9287 142.313 54.0202 142.623 53.3627C142.934 52.7052 143.388 51.4979 143.628 50.673C143.867 49.8482 144.142 48.6887 144.249 48.1029C144.393 47.314 144.44 46.25 144.44 44.1581C144.44 41.9346 144.393 41.0142 144.225 40.0937C144.118 39.4363 143.831 38.2767 143.616 37.5236C143.389 36.7705 142.946 35.611 142.635 34.9535C142.313 34.296 141.787 33.3517 141.452 32.8615C141.129 32.3714 140.4 31.5107 139.85 30.9489C139.3 30.3871 138.607 29.7415 138.308 29.5144C138.009 29.2873 137.316 28.845 136.754 28.5461C136.192 28.2473 135.224 27.8289 134.602 27.6257C133.981 27.4344 133.036 27.1714 132.51 27.0638C131.984 26.9563 130.932 26.8367 130.179 26.8009C129.354 26.765 128.446 26.7889 127.908 26.8726C127.418 26.9563 126.474 27.1953 125.816 27.4105C125.159 27.6257 124.382 27.9365 124.083 28.0799C123.784 28.2353 123.174 28.6059 122.708 28.9048C122.254 29.2036 121.549 29.7774 121.142 30.1719C120.736 30.5664 120.257 31.1043 120.09 31.3673L119.767 31.8455C119.779 19.3894 119.755 15.6836 119.72 15.588C119.672 15.4326 119.146 15.4087 116.014 15.4087L112.368 15.4087L112.368 37.8225ZM127.011 32.742C127.537 32.6942 128.422 32.6703 128.984 32.7061C129.546 32.742 130.239 32.8376 130.538 32.9213C130.837 33.005 131.506 33.2799 132.032 33.531C132.785 33.9015 133.204 34.2004 134.005 35.0133C134.746 35.7664 135.176 36.3282 135.606 37.1052C135.929 37.7029 136.348 38.6353 136.527 39.1972C136.706 39.759 136.945 40.6675 137.065 41.2294C137.22 41.9705 137.28 42.7475 137.28 44.0983C137.28 45.3415 137.208 46.2859 137.077 46.9673C136.969 47.5291 136.718 48.4615 136.539 49.0592C136.348 49.645 135.977 50.5415 135.714 51.0317C135.439 51.5218 134.985 52.2151 134.698 52.5618C134.411 52.9084 133.885 53.4344 133.526 53.7213C133.168 54.0082 132.486 54.4027 132.032 54.6179C131.566 54.8211 130.897 55.0602 130.538 55.1558C130.143 55.2634 129.283 55.3351 128.386 55.3351C127.358 55.3351 126.689 55.2753 126.234 55.1438C125.876 55.0363 125.254 54.8211 124.86 54.6418C124.465 54.4744 123.844 54.1038 123.485 53.8289C123.126 53.554 122.612 53.0877 122.337 52.8009C122.074 52.5259 121.668 52.0119 121.429 51.6891C121.202 51.3544 120.831 50.685 120.616 50.1949C120.401 49.7048 120.15 49.0832 120.054 48.8202C119.959 48.5572 119.779 47.6965 119.648 46.9075C119.516 46.0588 119.421 44.8634 119.421 43.9788C119.421 43.0942 119.516 41.839 119.66 40.8947C119.839 39.6753 120.018 39.0298 120.401 38.0855C120.676 37.416 121.118 36.5673 121.369 36.2087C121.632 35.8501 122.063 35.3121 122.337 35.0252C122.6 34.7383 123.15 34.296 123.545 34.033C123.939 33.782 124.669 33.3995 125.159 33.2082C125.732 32.9691 126.402 32.8018 127.011 32.742ZM146.867 15.588C146.831 15.6836 146.795 17.1659 146.795 18.8753C146.795 21.4813 146.819 22.0073 146.975 22.1627C147.13 22.3181 147.68 22.342 150.489 22.342C153.298 22.342 153.86 22.3181 154.016 22.1627C154.183 22.0073 154.207 21.5411 154.207 18.8753C154.207 17.1659 154.183 15.6836 154.147 15.588C154.099 15.4326 153.585 15.4087 150.513 15.4087C147.441 15.4087 146.927 15.4326 146.867 15.588ZM194.325 18.2179C194.289 18.3135 194.253 20.4891 194.253 23.0592L194.253 27.7213C189.686 27.7213 189.22 27.7572 189.065 27.9006C188.897 28.056 188.874 28.4505 188.874 30.4707C188.874 32.4312 188.909 32.8974 189.053 33.0409C189.196 33.1843 189.674 33.2202 191.743 33.2202L194.253 33.2202C194.325 54.1517 194.337 54.3429 194.588 55.4546C194.731 56.0763 195.006 56.8891 195.185 57.2358C195.365 57.5944 195.771 58.1682 196.106 58.5029C196.429 58.8496 197.026 59.2919 197.421 59.4832C197.815 59.6864 198.485 59.9613 198.915 60.0928C199.381 60.2363 200.433 60.3917 201.545 60.4753C203.123 60.6068 203.709 60.5949 205.49 60.4395C206.637 60.3319 207.677 60.2243 207.785 60.1884C207.976 60.1167 208 59.8776 208 57.3673C208 55.2634 207.964 54.6059 207.845 54.582C207.773 54.5581 207.426 54.582 207.103 54.6298C206.769 54.6776 205.992 54.7255 205.37 54.7255C204.701 54.7374 203.948 54.6657 203.517 54.5581C203.099 54.4386 202.657 54.2353 202.465 54.0441C202.274 53.8648 202.035 53.554 201.927 53.3627C201.748 53.0399 201.724 52.0717 201.688 43.1061L201.664 33.2202C206.291 33.2202 207.725 33.1963 207.821 33.1604C207.976 33.1126 208 32.7061 208 30.4707C208 28.2353 207.976 27.8289 207.821 27.7811C207.725 27.7452 206.291 27.7213 204.653 27.7213L201.664 27.7213C201.664 20.4891 201.64 18.3135 201.605 18.2179C201.557 18.0625 201.043 18.0386 197.971 18.0386C194.898 18.0386 194.384 18.0625 194.325 18.2179ZM70.469 26.5976C70.3375 26.6335 69.9908 26.7291 69.692 26.8248C69.3931 26.9084 68.5324 27.3149 67.7793 27.7333C67.0262 28.1397 66.1058 28.6418 65.7471 28.833C65.3885 29.0243 64.5995 29.4546 64.0138 29.7894C63.4161 30.1241 62.5913 30.5903 62.1609 30.8294C61.7306 31.0684 60.8938 31.5347 60.308 31.8694C59.7103 32.2041 58.3715 32.9691 57.3195 33.5788C56.2676 34.1765 55.108 34.8459 54.7494 35.0372C54.3908 35.2404 53.8887 35.5273 53.6377 35.6827C53.3986 35.8381 53.1715 35.9696 53.1356 35.9696C53.0998 35.9696 52.6575 36.2206 52.1435 36.5314C51.6414 36.8303 50.8763 37.2965 50.446 37.5595C50.0156 37.8225 49.2984 38.2887 48.8441 38.5875C48.3899 38.8864 47.84 39.3526 47.6248 39.6156C47.4216 39.8786 47.1108 40.4165 46.9435 40.811C46.7761 41.2055 46.5729 42.0064 46.5011 42.6041C46.3816 43.4289 46.3816 46.5011 46.4892 55.8969C46.5729 63.5356 46.6685 68.2215 46.7402 68.365C46.8 68.4965 46.9554 68.5921 47.063 68.5682C47.2304 68.5443 47.314 68.3411 47.4216 67.7673C47.4933 67.337 47.6726 66.1057 47.8161 65.0179C47.9595 63.9301 48.2823 61.5153 48.5453 59.6386C48.7963 57.7618 49.0593 55.6937 49.1191 55.0363C49.1908 54.3788 49.3821 52.9204 49.5494 51.8087C49.7168 50.685 49.9678 48.8919 50.0874 47.8041C50.2189 46.7163 50.4699 44.9351 50.6492 43.8234C50.8405 42.7236 51.0198 41.8271 51.0676 41.8271C51.1274 41.8271 51.211 41.9346 51.2828 42.0661C51.3625 42.2255 51.3625 44.3852 51.2828 48.5452C51.211 51.988 51.0556 58.3236 50.9361 62.6271C50.8046 67.3011 50.7568 70.5406 50.8166 70.6721C50.8763 70.7797 51.0317 70.8753 51.1632 70.8753C51.2947 70.8753 51.4501 70.7797 51.5099 70.6721C51.5697 70.5526 51.7011 70.0027 51.8087 69.4409C51.9163 68.879 52.0837 67.8271 52.1674 67.1098C52.263 66.3926 52.526 64.5277 52.7531 62.9857C52.9922 61.4436 53.3986 58.6703 53.6736 56.8294C53.9366 54.9884 54.2115 53.0519 54.2713 52.5259C54.331 51.9999 54.5582 50.3025 54.7972 48.7604C55.0244 47.2183 55.2635 45.6045 55.3352 45.1742C55.4189 44.6363 55.4308 46.788 55.3949 52.2868C55.371 56.6261 55.3471 63.0813 55.3471 66.6317C55.3352 70.182 55.3352 73.1586 55.3471 73.2303C55.3471 73.314 55.4547 73.3857 55.5862 73.3857C55.7297 73.3857 55.8731 73.2661 55.9329 73.1107C55.9807 72.9673 56.1002 72.2022 56.1839 71.4133C56.2556 70.6243 56.5067 68.6638 56.7338 67.05C56.949 65.4363 57.212 63.416 57.3076 62.5673C57.4032 61.7066 57.6782 59.5549 57.9053 57.7857C58.1444 56.0045 58.4432 53.6974 58.5867 52.6455C58.7182 51.5935 58.9333 49.9558 59.0529 48.9995C59.1844 48.0432 59.3278 47.1347 59.3876 46.9673C59.4593 46.788 59.5191 49.3222 59.5669 53.542C59.6147 57.3195 59.6506 63.8703 59.6506 68.09C59.6506 74.7604 59.6745 75.8004 59.8299 75.9558C59.9255 76.0514 60.0929 76.1112 60.1885 76.0753C60.2841 76.0395 60.3678 75.9438 60.3678 75.8602C60.3678 75.7884 60.583 73.828 60.834 71.5328C61.097 69.2257 61.3361 66.9425 61.372 66.4523C61.4198 65.9622 61.6708 63.6193 61.9218 61.2524C62.1848 58.8855 62.5913 55.3351 62.8303 53.3627C63.0575 51.3903 63.3085 49.5015 63.3922 49.1788C63.4998 48.6767 63.5476 49.6211 63.6791 54.9167C63.7628 58.3953 63.9301 65.1254 64.0616 69.8592C64.2768 77.1751 64.3366 78.4901 64.492 78.6455C64.6115 78.765 64.7111 78.7849 64.7908 78.7052C64.8625 78.6335 65.0538 77.45 65.2212 76.0753C65.3766 74.6887 65.7232 71.7838 65.9862 69.6202C66.2492 67.4445 66.4883 65.3526 66.5241 64.9581C66.56 64.5636 66.811 62.4358 67.0621 60.2363C67.3251 58.0367 67.6239 55.5264 67.7195 54.6776C67.863 53.4225 67.9706 53.016 68.2336 52.5379C68.4129 52.2151 68.8313 51.7011 69.154 51.4022C69.4887 51.1034 70.3733 50.4459 71.1264 49.9558C71.8795 49.4657 73.9715 48.079 75.7766 46.8836C77.5936 45.6882 79.3149 44.5406 79.6138 44.3374C79.9126 44.1342 81.1678 43.2974 82.423 42.4606C83.6662 41.6358 85.6028 40.3448 86.7264 39.5917C87.8382 38.8386 88.9738 37.9898 89.2248 37.7149C89.6432 37.2726 89.6791 37.177 89.6074 36.8064C89.5715 36.5793 89.4639 36.3163 89.3802 36.2206C89.3085 36.1369 88.9618 35.8859 88.6391 35.6707C88.3044 35.4675 87.8023 35.1448 87.5034 34.9894C87.2046 34.822 86.4515 34.3917 85.8299 34.033C85.2083 33.6744 83.8336 32.8735 82.7816 32.2638C81.7297 31.6542 80.6538 31.0326 80.3908 30.8891C80.1278 30.7337 79.5062 30.3871 79.0161 30.1121C78.526 29.8252 77.9283 29.4786 77.7011 29.3351C77.474 29.1917 76.8763 28.845 76.3862 28.5581C75.8961 28.2712 75.3223 27.9604 75.131 27.8528C74.9278 27.7452 74.366 27.4105 73.8759 27.1236C73.0032 26.5976 72.9554 26.5857 71.8437 26.5618C71.2221 26.5498 70.6005 26.5618 70.469 26.5976ZM172.437 26.8367C172.234 26.8606 171.672 26.9443 171.182 27.016C170.692 27.0877 169.723 27.3149 169.03 27.5061C168.337 27.7094 167.32 28.0919 166.759 28.3549C166.197 28.6179 165.396 29.0841 164.966 29.371C164.535 29.6698 163.842 30.2077 163.423 30.5783C163.005 30.9489 162.324 31.6781 161.917 32.2041C161.499 32.7301 161.057 33.3517 160.913 33.5788C160.77 33.8059 160.411 34.5112 160.1 35.1328C159.801 35.7544 159.431 36.639 159.263 37.1052C159.108 37.5595 158.905 38.3126 158.797 38.7788C158.702 39.233 158.534 40.0459 158.439 40.5719C158.331 41.0979 158.223 42.4128 158.188 43.5006C158.14 44.696 158.176 45.9392 158.259 46.6684C158.331 47.3259 158.558 48.5333 158.749 49.3581C158.941 50.1829 159.335 51.4142 159.622 52.1075C159.909 52.8009 160.375 53.7333 160.662 54.1995C160.937 54.6657 161.427 55.359 161.738 55.7535C162.049 56.148 162.67 56.8174 163.125 57.2358C163.579 57.6542 164.356 58.2758 164.846 58.5986C165.336 58.9333 166.197 59.4114 166.759 59.6625C167.32 59.9255 168.229 60.2602 168.791 60.4156C169.353 60.571 170.261 60.7742 170.823 60.8818C171.385 60.9774 172.317 61.0969 172.915 61.1328C173.501 61.1806 174.66 61.1448 175.485 61.073C176.322 60.9894 177.661 60.7622 178.533 60.5471C179.573 60.2841 180.458 59.9613 181.223 59.5788C181.845 59.268 182.657 58.8018 183.016 58.5388C183.375 58.2878 184.044 57.714 184.498 57.2717C184.953 56.8294 185.562 56.148 185.861 55.7535C186.148 55.359 186.614 54.6059 186.901 54.0799C187.188 53.554 187.618 52.5857 187.857 51.9282C188.109 51.2707 188.407 50.2307 188.527 49.6211C188.658 49.0234 188.754 48.4137 188.754 48.2822C188.754 48.0432 188.67 48.0432 185.108 48.0432L181.462 48.0432C181.462 48.4615 181.378 48.9038 181.271 49.2983C181.175 49.6928 180.924 50.3861 180.721 50.8523C180.518 51.3066 180.135 52.0119 179.848 52.4064C179.573 52.8009 179.059 53.3747 178.701 53.6735C178.342 53.9843 177.78 54.3668 177.457 54.5342C177.123 54.7015 176.477 54.9526 176.023 55.096C175.282 55.3351 174.995 55.359 173.572 55.3112C172.066 55.2634 171.887 55.2395 170.943 54.8569C170.381 54.6298 169.604 54.1995 169.209 53.8887C168.815 53.5898 168.241 53.028 167.918 52.6335C167.607 52.251 167.165 51.5815 166.938 51.1512C166.723 50.7209 166.4 50.0275 166.245 49.5972C166.077 49.1668 165.826 48.1149 165.683 47.2661C165.456 45.9392 165.432 45.4133 165.48 43.6202C165.519 42.2255 165.619 41.1098 165.778 40.273C165.922 39.5797 166.101 38.8027 166.197 38.5397C166.292 38.2767 166.567 37.6551 166.806 37.165C167.034 36.6749 167.476 35.9576 167.775 35.5751C168.074 35.2045 168.6 34.6666 168.934 34.4036C169.281 34.1287 169.867 33.7581 170.225 33.5788C170.584 33.3995 171.229 33.1245 171.66 32.9811C172.305 32.7659 172.724 32.7181 174.11 32.7181C175.377 32.7061 175.963 32.754 176.501 32.9213C176.896 33.0289 177.589 33.3158 178.055 33.5549C178.581 33.8179 179.155 34.2482 179.609 34.7025C180.075 35.1687 180.494 35.7544 180.781 36.3282C181.032 36.8183 181.295 37.5475 181.366 37.942C181.45 38.3365 181.57 38.6951 181.641 38.7429C181.701 38.7907 183.255 38.8386 185.072 38.8386C186.901 38.8386 188.479 38.8147 188.575 38.7788C188.694 38.7429 188.754 38.5636 188.754 38.3006C188.754 38.0735 188.646 37.3802 188.527 36.7705C188.407 36.1728 188.192 35.3958 188.061 35.073C187.929 34.7503 187.654 34.1287 187.439 33.6983C187.224 33.268 186.794 32.5747 186.471 32.1443C186.16 31.714 185.586 31.0684 185.204 30.6979C184.821 30.3273 184.212 29.8133 183.853 29.5503C183.494 29.2873 182.705 28.833 182.12 28.5342C181.522 28.2353 180.554 27.8409 179.968 27.6615C179.37 27.4822 178.402 27.2312 177.816 27.1117C177.099 26.9563 176.095 26.8606 174.768 26.8248C173.68 26.8009 172.628 26.8009 172.437 26.8367ZM99.7563 27.9126C99.577 28.0799 99.5651 29.4068 99.5651 44.0505C99.577 58.0606 99.6009 60.0211 99.7563 60.1765C99.9117 60.3319 100.462 60.3558 103.271 60.3558C106.08 60.3558 106.642 60.3319 106.797 60.1765C106.965 60.0211 106.989 58.3953 106.989 44.0386C106.989 30.0165 106.965 28.056 106.809 27.9006C106.654 27.7452 106.104 27.7213 103.295 27.7213C100.414 27.7213 99.9237 27.7452 99.7563 27.9126ZM146.975 27.9126C146.795 28.0799 146.783 29.4068 146.783 44.0505C146.795 58.0606 146.819 60.0211 146.975 60.1765C147.13 60.3319 147.68 60.3558 150.489 60.3558C153.298 60.3558 153.86 60.3319 154.016 60.1765C154.183 60.0211 154.207 58.3953 154.207 44.0386C154.207 30.0165 154.183 28.056 154.028 27.9006C153.872 27.7452 153.322 27.7213 150.513 27.7213C147.632 27.7213 147.142 27.7452 146.975 27.9126Z" fill="#2E406B"/>
</svg>
